<?xml version="1.0" encoding="utf-8"?>
<!-- Generator: Adobe Illustrator 19.2.1, SVG Export Plug-In . SVG Version: 6.00 Build 0)  -->
<svg version="1.1" id="Layer_1" xmlns="http://www.w3.org/2000/svg" xmlns:xlink="http://www.w3.org/1999/xlink" x="0px" y="0px"
	 viewBox="0 0 100 100" style="enable-background:new 0 0 100 100;" xml:space="preserve">
<style type="text/css">
	.st0{fill-rule:evenodd;clip-rule:evenodd;fill:#038141;}
	.st1{fill-rule:evenodd;clip-rule:evenodd;fill:#FFFFFF;}
</style>
<polygon class="st0" points="100,100 0,100 0,0 100,0 100,100 "/>
<path class="st1" d="M29.7,38.5l-0.3,0l-0.9,1.1l-0.5,1.6l0.8,1l1.1-0.3l1-1.6l-0.9,0.7l-1,0.2l-0.3-0.8L29.7,38.5L29.7,38.5z
	 M7.1,32.1L7,33.9l0,0.1l-0.2,0.8c0.4-0.7,0.8-1.4,1-2.2l-0.3-1.4l-0.9,0.3L6,32.2L7.1,32.1L7.1,32.1z M30.2,33.2l0.5-0.6l-0.2,1.2
	l-0.2,0L30.2,33.2L30.2,33.2z M30.7,35.6l0.7-0.3l-0.1-0.7l0.5-1.5l-0.2-1.4l-1.3-0.2l-1,1.1c-0.3,0.8-0.2,1.8,0.5,2.4
	c-1,1.4-2.3,2.5-3.7,3.4l-1.2,0.9l0,0.2l1.6-0.5C28.1,38.2,29.7,37.2,30.7,35.6L30.7,35.6z M15.2,33.3l1-0.5l0.5,0.5l0.5,0l0.5-0.7
	l-0.2-0.8l-0.6,0.8l-0.4-1.2l-0.1,0l-0.7,1.1l-0.5-0.1l-0.1-1l-0.1-0.3l-0.1,0l-0.3,1.2L15.2,33.3L15.2,33.3z M5.9,43.5l0.9-0.8
	c0.5-0.8,0.7-1.8,0.8-2.7l0.2-1.1l0,0l0.7-2.3l0.2,0l0.1,1l-0.2,1.8c0,1.2,0.1,2.6,0.9,3.6c0.6,0.7,1.5,1,2.4,1
	c0.1,1.5,0.4,3.1,0.5,4.6l0,0.1l0.1,1.6l0.2,2h0.2l0.6-1.6c0.1-1.5-0.2-2.9-0.2-4.4c-0.1-1-0.2-2-0.2-3l1-1.1l0.5-0.8l0.2,0l0.6,1.4
	l2.2,0.6l1.7-1.1c0.6-0.8,0.5-1.7,0.4-2.6c-0.2-1.1-0.5-2.2-0.8-3.3l0.6-0.2l0-0.7L19,34.3l-1-0.9l-0.8,0.7l-0.4,0.7l0.5,1.4
	c0.5,1.3,0.9,2.6,1.1,4L17.9,41l-1.6-0.3l-0.7-1.2c-0.3-1.1-0.6-2.2-0.5-3.3c0.2-1.1-0.2-2.2-1.1-2.9l-0.3,0.2
	c-0.3,0.8-0.4,1.7-0.1,2.5c0.2,1,0.5,2.1,0.6,3.1l-1.2,2l-0.1-0.7l-0.1-0.8c-0.2-1.4-0.3-2.9-0.4-4.4l0.6-0.6c0-0.9-0.4-1.6-0.8-2.4
	l-0.8-0.9l-0.8,1.2l0.3,1.1c-0.1,0.8,0.3,1.6,0.4,2.4c0.1,0.8,0.1,1.7,0.2,2.5c0,0.9,0.1,1.8,0.2,2.8l-0.9-0.2l-1-1.4l-0.2-0.6
	l-0.1-1.6l0.5-1.9l0.1-1.3l-0.8-0.6l-1.1,0.8c-0.5,0.7-0.9,1.5-1.1,2.4l0,0.1c-0.4,1.3-0.2,2.7-0.8,3.9l-0.6,0.5l-0.8-0.9
	c-0.4-1-0.5-2.1-0.6-3.2L4.4,35l-0.2,0c-0.3,0.8-0.4,1.6-0.4,2.4l-0.1,0.1c0,1.8,0.3,3.6,1.1,5.2L5.9,43.5L5.9,43.5z M93.6,42.6
	c-0.2-2.4-0.7-4.8-0.6-7.2l0.8,0.3l-0.1-0.9c-0.5-1-0.9-2-1.4-3l-0.5-0.7l-0.5,0.3l-0.7,1.1l0.2,1.3c0.1,1,0.3,2.1,0.4,3.1l0.1,1.4
	l0.2,1.7c0.4,3.2,0.7,6.5,1,9.7c0.1,1.6,0.1,3.2-0.5,4.8c-0.5,1.3-1.4,2.4-2.5,3.3c-0.8,0.7-1.8,1.3-2.7,1.9L86,60.6l2-0.2
	c1.5-0.4,3-1.1,3.9-2.3c1-1.1,1.5-2.5,1.8-3.9l0,0c0.2-1.3,0.4-2.7,0.3-4C94.1,47.6,93.9,45.1,93.6,42.6L93.6,42.6z M82.5,59.3
	L83,58l-0.1-0.2l-1.6-0.1L81,58.4l0.7,0.6l-1,1.4l0.7,0.4l1.9-0.9l0-0.5L82.5,59.3L82.5,59.3z M79.8,77.8c-0.9,0.1-1.9,0-2.8,0.1
	l-0.7-0.5l-0.5,0.3l0,0.3C74.7,78,73.8,78,72.9,78l-0.5-0.7l0-0.8c2.5-0.1,5-0.1,7.6-0.2L79.8,77.8L79.8,77.8z M82.1,74.7l-2-0.5
	c-2.6,0-5.2,0.1-7.8,0.1l0-0.8l0.5-1l-0.7-1.1l-0.4,0L71,72.5l0.6,1.1l0,0.6c-9.6,0.1-19.3,0.1-28.9,0.1c-1.8,0-3.6,0-5.5,0
	c-4.9,0-9.8-0.1-14.7-0.1c-2.5,0-4.9-0.1-7.4-0.1c0.6,0.9,1.6,1.6,2.7,1.9c1.8,0.6,3.7,0.8,5.5,0.9c2,0.1,4,0,6,0.1
	c6.4,0.1,12.8,0,19.2-0.1c5.8-0.1,11.7-0.2,17.5-0.3c1.8,0,3.7-0.1,5.5-0.1v0.8l-0.6,0.8l0.9,1.4h0.2l0.6-0.8c1,0,1.9-0.1,2.9-0.1
	l0.7,0.6l0.7-0.6c1,0,2,0,3.1,0l0.8,0.6l1.4-0.4l0.6-2.2L82.1,74.7L82.1,74.7z M6.3,58.5l-0.8-0.6c-0.3-1,0-2.1,0.3-3l0.1-2.1
	l-0.2,0l-0.6,1.9c-0.4,0.9-0.5,1.8-0.5,2.7l0.2,2l1.1,0.9L7.2,59l0-1.5L6.3,58.5L6.3,58.5z M9.3,47.1l1.5-0.5l0-1.1l-0.4,0
	c-1,0.3-2,0.7-2.9,1.3c-1.2,0.8-2.4,1.7-3.2,2.9l1.3-0.8C6.8,48.2,8,47.6,9.3,47.1L9.3,47.1z M17,48.1l-0.1-1.4l0.2-0.1l0.8,0.3
	l0.8,0.9L17,48.1L17,48.1z M20.9,58.1c0.9-0.8,1.6-1.9,1.9-3c0.4-1.5,0.5-3.2,0.3-4.8l-0.1-2l0.1-0.4l0.2,0l1.4,1l1.9-0.5l0.7-0.7
	l0.3,0l0.6,0.6l1.7,0.3l0.9-0.8l0.3-2.2l-0.3-1.4L30,44.8l0.1,0.5l0.1,1.1l-0.7,0.9l-0.9-0.6l-0.5-2l-0.2,0l-0.9,2l-1.3,0.9
	l-0.9-0.6l-0.2-1.8l-0.5-0.4l-1.3,1c-0.1-1.3-0.2-2.7-0.3-4.1c-0.1-1.6-0.3-3.2-0.4-4.9l0.6,0.3l0.4-0.3l-0.1-1.1
	c-0.4-0.9-0.7-1.7-1-2.6l-0.6-1.4l-0.8,0.5l-0.7,0.9l0.3,1l0,0.6l0.2,2.2l0.1,0.7l0,0.1l0.2,2.2l0,0.1c0.2,2.2,0.6,4.4,0.6,6.6
	l-1.2,0.7l-1.7-2l-1.4-0.5L16,45.6l-0.8,1.8l0,2l0.3,0.5l1.8,0.3l2-0.6l-0.1,1.3l-0.5,0.7l-2.2,1.9c-0.8,0.5-1.8,1-2.7,1.2L11.9,54
	c-0.9-1-1.2-2.5-1.1-3.8l0.1-1.3l-0.5,0.9c-0.2,0.8-0.4,1.6-0.4,2.4c0,0.9,0,1.7,0.4,2.5c0.5,1,1.4,1.8,2.6,2
	c1.4,0.2,2.8-0.4,3.9-1.1c1.6-0.9,3.1-2.1,3.6-3.8l0-0.1c0.2-0.9,0.1-1.8,0.1-2.7l1-0.5c0,1,0,2,0,3l-0.2,2.1l0,0.1
	c-0.3,0.9-0.9,1.6-1.6,2.2c-1.2,1-2.7,1.7-4.2,2.1c-0.9,0.2-1.8,0.4-2.7,0.4c-1,0-2-0.3-2.6-1c-0.8-0.8-1-2-1.1-3.1v-1.6l0-2.4
	c-0.7,1.2-0.9,2.5-1,3.8c-0.1,1.6,0.1,3.2,0.8,4.6l1,1.2c0.8,0.6,1.8,0.8,2.8,0.8c1.7,0,3.4-0.4,4.9-1C18.8,59.3,20,58.9,20.9,58.1
	L20.9,58.1z M83.2,45.2c0-0.8-0.1-1.6-0.1-2.4c1,1.4,2,2.7,3,4.1l0.2,0.8c0.2,1,0.3,1.9,0.4,2.9c0.1,1.1,0,2.3,0,3.4l0.3,0.6
	l0.5-1.5l0.1-1.8c-0.1-0.9-0.1-1.8-0.2-2.7c1.1,1.4,2.1,2.8,3.1,4.2l1,1.5l0.2,0l-0.1-2.2c-0.5-1.6-1.6-2.8-2.5-4.2
	c-0.6-0.9-1.3-1.7-1.9-2.7c-0.1-1.1-0.2-2.1-0.3-3.2c-0.2-1.5-0.4-4.6-0.4-4.6l0-1.4l0.3,0.2l0.3-0.1l0-0.8
	c-0.3-0.9-0.5-1.9-0.8-2.9l-0.6-1.4l-0.5,0.2l-0.8,1.4l0.1,1.1c0.1,1.9,0.3,3.8,0.5,5.8c0.2,1.2,0.4,2.3,0.6,3.5
	c-0.9-1.2-1.8-2.4-2.7-3.6c0-1.3-0.2-2.5-0.2-3.8l0.6,0.2l-0.1-0.6c-0.4-1.2-0.9-2.4-1.3-3.6l-0.4-0.4l-1,1.6l0.3,1.5
	c0,0.8,0.2,1.6,0.2,2.4l-1.4-1.9h0.5l0.2-0.2l-0.2-0.5c-0.8-0.8-1.6-1.4-2.3-2.2l-0.9-0.4L76.6,32l-0.1,1.8l0.9,1.7
	c1.3,1.5,2.5,3.1,3.7,4.6l0.2,1.6c0,0.8,0.1,1.5,0.2,2.3l0,0.1c0.2,2.8,0.5,5.6,0.3,8.4l-0.5,1.6l-1,0.6l-1.3-0.5l-1.7-1.9l-0.9,0
	l-1.1,1.5c-0.8,1.2-1.4,2.5-2.1,3.8l-0.7,1l-0.9,0l-0.7-1.1l0.8,0.3l1.1-0.8c0.6-1,0.9-2.1,1-3.2c0.2-1.6-0.2-3.2-0.5-4.8
	c-0.1-1-0.3-2-0.3-3.1l0-0.1c-0.2-1.6-0.4-3.2-0.6-4.7c-0.1-1.2-0.3-2.4-0.4-3.6l1.2-0.5l-0.2-1.4c-0.6-0.8-0.9-1.8-1.3-2.7
	l-0.6-1.6l-0.9-0.6l-1,0.5l-1,1.9c-0.2,1,0,1.9,0.3,2.8c0.2,0.9,0.3,1.7,0.4,2.6c0.3,2.2,0.6,4.4,0.9,6.7c0.2,1.4,0.4,2.8,0.6,4.3
	c0.2,2,0.7,4,0.5,6l-0.3,1.3l-0.2-1.8l-0.1-2.2l-0.2,0l-0.5,1.8c-0.2,1.3-0.6,2.6-0.2,3.9c0.3,0.9,1.1,1.4,1.7,1.9l1.2,0.6l0.8-0.5
	c0.8-1,1.4-2.2,2-3.4l1.2-2l0.5-0.3l0.9,1.2c0.7,0.7,1.7,1.1,2.8,1.2c0.9,0,1.7-0.5,2.2-1.2c0.7-1,0.8-2.3,0.9-3.6l0-0.1
	C83.5,49.8,83.3,47.5,83.2,45.2L83.2,45.2z M78.8,44.9c-1.1,1-2.4,1.7-3.5,2.7l-0.3,0.7l1.1-0.5c0.8-0.7,1.8-1.2,2.7-1.7l1-0.6
	l0-1.2L78.8,44.9L78.8,44.9z M65,34.7c0.2,1.4,0.4,2.8,0.6,4.2c0.3,2.1,0.5,4.3,0.7,6.4c0.2,2.1,0.2,4.3,0.4,6.4
	c0.1,0.8,0.1,1.7,0.1,2.5c-0.1,1.2-0.7,2.3-1.5,3.1c-1.1,1.1-2.2,2.2-3.6,2.9l-2.2,0.9v0.2l1.6,0.1c0.9-0.1,2-0.1,2.8-0.6
	c1.1-0.6,1.8-1.5,2.6-2.4c1-1.1,1.4-2.6,1.6-4c0.2-1.4,0.2-2.8,0.1-4.2c0-2.3-0.2-4.6-0.5-6.8c-0.2-2.4-0.6-4.8-0.5-7.2l0.8,0.2
	l-0.1-0.7l-0.6-2l-0.2-0.6l0-0.1l-0.5-1.2L66,31.8l-1.1,1.1l-0.2,1.2L65,34.7L65,34.7z M27,54.2l0.2-0.1l0.7-1.5L27.9,51l-1.4-0.3
	l-0.1,1.1l0.9,0.1l0,1.2L27,54.2L27,54.2z M62.5,37.9L62.1,39l-0.3,0.1l-0.4-0.9l-0.2,0l0.2,1.6l1.1-0.5l0.8,0.5l0.6-0.2l0.1-0.3
	l-0.1-1.7l-0.2,0l-0.1,0.3L63,39l-0.4-1L62.5,37.9L62.5,37.9z M74.6,41.3l0.4,0l0.4-0.3l1.2,1.8l0.4,0.7l0.4-0.5c0-0.9,0-1.8,0-2.8
	l0.3-0.6l0.9,0.2l0-0.6L78,38.5l-0.3-0.1l-1,1.1l0.1,1.9l-0.1,0.9L76.1,41l-1-1.6l-0.5,0.1l-0.2,0.6V41L74.6,41.3L74.6,41.3z
	 M79.2,51l0.8-0.8c0.3-0.9-0.1-1.9-0.8-2.6l-0.6-0.2l-0.5,0.9l1.2,1.1L79.2,51L79.2,51z M89,37.1l0.2,1.4h0.2l0.4-1.9
	c0-1.2-0.3-2.5-1-3.5l-0.7,0.7l0.1,0.8C88.6,35.3,88.8,36.2,89,37.1L89,37.1z M45.8,45.4l-0.2,0l-0.5-0.8L44.6,44l-0.1,1.1l-0.2,0.5
	l-0.3,0l-0.5-1.4L43.3,44l0.2,2.2l0.8,0.3l0.6-0.8H45l0.7,0.4l0.9-0.8l-0.4-1.9L46,44.8L45.8,45.4L45.8,45.4z M50.1,45.3l1.6,0.7
	l0.5,0.4l-2.1,0.5L50,45.5L50.1,45.3L50.1,45.3z M33.3,46.7c0.4,0.8,0.9,1.6,1.3,2.5l0.3,1.6l-1.1,1.6c-0.9,0.8-1.9,1.6-2.9,2.3
	v-1.2l0-1.5h-0.2c-0.5,0.8-0.9,1.8-1.2,2.7l-0.3,1.1L29,56c-1.7,1.1-3.5,2.2-5.3,3.1l-2.3,1.2l0,0.3l0.6,0c2.5-0.7,4.9-1.4,7.2-2.5
	c0.1,0.8,0.3,1.7,1,2.3c0.7,0.7,1.9,0.8,2.8,0.7c1.6-0.2,3-1.2,4.1-2.3c1.1-1.1,2.1-2.2,3-3.5c0.5,1.2,1.2,2.4,2.2,3.2
	c1.6,1.4,3.8,2,6,2.3l1.2-0.4l0.4-1.6l-1.4-0.6l-1.7-1.2l0-1.2l1.8-0.9c1.9-0.7,3.9-1.3,5.9-1.7l1.7-0.4l0.7-1.3l0.1-0.8l-1.7,0
	c-2.3,0.1-4.6,0.2-6.9,0.2c-0.9,0-1.9,0-2.8-0.1c1.5-0.8,3.1-1.4,4.7-1.9l1,0.1l0-0.4c0.9-0.3,1.8-0.6,2.4-1.3l0.9-1.9L53.2,44
	c-0.8-0.5-1.7-1-2.7-1l-1.4,0.7l-1.1,2.1l0.5,1.7c-1.4,0.4-2.7,0.9-4,1.4l-1.9,0.8l-0.9,1.5l-0.2,1.2l0.9,0.2c0.9,0.1,1.8,0,2.7,0.1
	c0.9,0.1,1.7,0.2,2.4,0.7l0.3,0.3c-1.1,0.4-2.3,1.1-2.7,2.3l0,1.9c-1.3-0.3-2.5-1-3.2-2.1c-0.8-1.3-0.8-2.9-1.1-4.4
	c-0.1-1-0.4-1.9-0.6-2.9l0,0.1c-0.4-1.8-1.2-3.5-2-5.2l-0.5-1L37,43.7l-0.2,1.6c0.6,1.4,1,2.9,1.5,4.4l0,0.1l0.5,1.8l0,0.1l0.4,1.5
	c-0.8,1.5-1.9,2.9-3.2,4.1c-1,0.9-2.1,1.6-3.4,1.9l-1.8-0.3l-0.4-1.4c1.4-0.7,2.5-1.6,3.6-2.7c0.9-0.8,1.6-1.8,1.9-2.9
	c0.2-0.9,0.2-1.8,0-2.7l-0.2-0.7l-0.6-1.5l0.6-0.1l-0.6-1.4L34.1,44l-0.6,0l-0.6,1l-0.3,1.1L33.3,46.7L33.3,46.7z M52.6,60.1
	l0.9,0.4c1,0,1.8-0.7,2.5-1.2l0.7-0.7l-0.6,0.1c-0.8,0.3-1.6,0.9-2.5,0.9l-0.2-0.3l0.3-1.9l-1.5,0.6l-0.7,0.6l1.2-0.3L52.6,60.1
	L52.6,60.1z M35.4,42.1l1.2-0.9c0.5-1.1,0.8-2.2,1.2-3.3l0.6-1.2l0.2,0l0,0.7c-0.1,1.1-0.2,2.2,0.1,3.3l1.2,1.9l2.4,0.1
	c1.2-0.5,2.2-1.4,2.9-2.5c0.7,0.8,1.5,1.7,2.6,1.9l2.1-1c0.6-1,0.9-2.2,0.7-3.4c-0.1-0.8-0.3-1.6-0.5-2.5l-0.4-1.2l0.8,0.5l0.5,0
	L51,33.9l-1.3-2.1l-1-0.5l-0.5,0.8l-0.6,1l0.6,1.6c0.3,0.9,0.6,1.9,0.8,2.8L49,39.8l-1,0.6l-1.1-0.8c-0.6-1-0.9-2.1-1.1-3.2
	c0-1.1-0.1-2.2-0.3-3.3c-0.1-0.8-0.4-1.6-0.8-2.4h-0.2l-0.7,1.4l0.2,1.2c0.3,1.3,0.6,2.7,0.6,4.1l-0.6,2l-1.7,1.2l-1.6,0l-0.8-1.5
	c0-1.4-0.1-2.9,0.2-4.3l0.1-1.4L39.6,33l-0.7,0.3c-0.6,0.8-1.1,1.6-1.6,2.5c-0.6,1.2-1.2,2.4-1.6,3.7l-0.9,0.7l-1.2-1.5l-0.2-0.7
	c-0.2-0.9-0.2-1.8-0.1-2.7l0.3-1.6l-0.2,0c-0.5,0.9-0.7,1.9-0.8,2.9c-0.2,1.6,0.3,3.3,1.4,4.6L35.4,42.1L35.4,42.1z M61.2,33.1
	l0.7,1l0,2.2l0.6-0.7c0.5-1.1,0.2-2.4-0.4-3.5l-0.9-0.7l-0.5,1.2L61.2,33.1L61.2,33.1z M51.7,34l1.1,0.9c1.5,1.9,3,3.8,4.4,5.9
	c0.1,0.8,0.2,1.7,0.3,2.5l0,0l0.2,1.3c0.4,2.8,0.8,5.7,1,8.5c0,1.2,0.1,2.5-0.3,3.7l-0.1,1.3l0.6-0.6c0.8-1.8,1-3.8,0.9-5.7
	l-0.1-0.1c0-1.8-0.4-3.6-0.5-5.4c0-0.9-0.2-1.8-0.2-2.8c1.9,2.9,3.8,5.8,5.4,8.9l1,2.1l0.2,0c0-1.2-0.4-2.4-0.8-3.5
	c-0.8-1.8-1.8-3.6-2.9-5.3c-1-1.6-2-3.1-3-4.6l-0.2-1.3c-0.1-1-0.1-1.9-0.1-2.9l0.6,0.2l0.1-0.2l-0.3-1.3c-0.4-1.1-0.9-2.2-1.4-3.3
	l-0.5-0.5l-0.6,0.5l-0.4,1.2l0.4,1c0,1.2,0.3,2.3,0.4,3.5L57,37.9c-0.7-0.9-1.4-1.9-2-2.9l1.1,0L55.5,34c-0.9-0.9-1.9-1.8-2.9-2.6
	l-0.8-0.2l-0.1,0.2l0.1,1.6L51.7,34L51.7,34z M42.1,34.6l0,1.9h0.2l0.3-1c0.1-1,0.1-2-0.2-3l-0.6-0.9l-0.6,0.4l0.1,0.7L42.1,34.6
	L42.1,34.6z"/>
</svg>
