<?xml version="1.0" encoding="utf-8"?>
<!-- Generator: Adobe Illustrator 19.2.1, SVG Export Plug-In . SVG Version: 6.00 Build 0)  -->
<svg version="1.1" id="Layer_1" xmlns="http://www.w3.org/2000/svg" xmlns:xlink="http://www.w3.org/1999/xlink" x="0px" y="0px"
	 viewBox="0 0 100 100" style="enable-background:new 0 0 100 100;" xml:space="preserve">
<style type="text/css">
	.st0{fill:#73123E;stroke:#000000;stroke-width:3.887922e-02;}
	.st1{fill:#FFFFFF;}
</style>
<g>
	<rect x="6.1" class="st0" width="93.9" height="100"/>
	<polyline class="st1" points="0,0 0,45 7,45 7,44.9 29.7,39.3 7,33.8 7,33.7 29.7,28.1 7,22.6 7,22.5 29.7,16.9 7,11.3 7,11.3 
		29.7,5.7 7,0 7,0 	"/>
	<polygon class="st1" points="29.7,61.5 7,55.9 7,55.9 29.7,50.3 6.9,44.7 6.9,44.7 0,44.7 0,100 7,100 7,100 29.7,95.1 7,89.5 
		7,89.5 29.7,83.9 7,78.3 7,78.3 29.7,72.7 7,67.1 7,67.1 	"/>
</g>
</svg>
