<?xml version="1.0" encoding="UTF-8" standalone="no"?>
<!-- Generator: Adobe Illustrator 19.1.0, SVG Export Plug-In . SVG Version: 6.00 Build 0)  -->
<svg id="Layer_1" style="enable-background:new 0 0 205 45" xmlns="http://www.w3.org/2000/svg" xml:space="preserve" viewBox="0 0 205 45" version="1.1" y="0px" x="0px" xmlns:xlink="http://www.w3.org/1999/xlink">
<style type="text/css">
	.st0{fill:#F68B2D;}
	.st1{fill:#FFFFFF;}
</style>
	<path class="st0" d="m29.9 16.9c-0.2 0.3-0.5 0.5-0.9 0.7-0.3 0.1-0.6 0.2-0.9 0.2-0.6 0-1.1-0.2-1.5-0.5h-1.5-2-2.2c-0.8 0-1.6 0-2.5 0.1h-0.3v0.5 0.5c0 0.6-0.1 1.3-0.1 2.1v2.3 3.4c0 1.6 0 3.1 0.1 4.4s0.1 2.3 0.3 2.9c0.5 0.4 0.8 0.9 0.8 1.6v0.2c-0.1 0.6-0.3 1-0.7 1.3-0.5 0.3-0.9 0.4-1.3 0.4-0.1 0-0.3 0-0.4-0.1-0.5-0.1-0.9-0.3-1.4-0.7s-0.8-1-0.9-1.9c-0.1-1-0.2-2.1-0.3-3.3s-0.1-2.6-0.1-4v-3.7c0-1.2 0.1-2.5 0.1-3.6 0-0.4 0-0.8 0.1-1.2v-1.1h-3-3-3c-0.9 0-1.7 0-2.3-0.1-0.6 0-1.1-0.2-1.4-0.6-0.4-0.4-0.5-0.8-0.5-1.3v-0.1c0-0.4 0.2-0.8 0.5-1.2 0.3-0.3 0.7-0.5 1.3-0.5h0.1c1.1 0.1 2.4 0.1 3.8 0.1h4.5 3.8 3.8 3.2 2.9 1.8 1.5c0.8 0 1.3 0.2 1.6 0.6s0.5 0.8 0.5 1.2v0.5c-0.1 0.3-0.2 0.6-0.5 0.9z"/>
	<path class="st0" d="m46 32.5c0 0.3-0.1 0.6-0.2 0.9-0.2 0.3-0.4 0.5-0.7 0.7-0.9 0.5-1.9 0.9-3.1 1.3-1.1 0.4-2.2 0.7-3.2 0.8h-0.6-0.5c-0.9 0-1.6-0.1-2.1-0.4s-1-0.7-1.4-1.3c-0.2-0.3-0.4-0.6-0.5-1.1-0.2-0.5-0.2-0.9-0.2-1.3-0.1 0-0.2 0-0.2 0.1-0.3 0.2-0.8 0.5-1.3 1-0.5 0.4-1.1 0.9-1.7 1.4-0.4 0.3-0.7 0.6-1.1 0.9-0.3 0.3-0.7 0.6-1 0.8-1.1 0.8-2.2 1.2-3.2 1.2-0.8 0-1.5-0.3-2.1-0.8-0.7-0.6-1.1-1.6-1.1-2.9 0.1-1.2 0.4-2.3 0.9-3.4 0.4-0.8 0.9-1.6 1.5-2.3s1.2-1.4 1.8-2.1 1.3-1.2 1.9-1.8c0.7-0.5 1.3-1 1.8-1.4 0.6-0.4 1.4-0.8 2.3-1.3s1.8-0.7 2.8-0.7c0.5 0 1.1 0.1 1.6 0.3s1.1 0.5 1.7 1c0.3 0.2 0.5 0.4 0.6 0.7 0.1 0.2 0.2 0.5 0.2 0.7 0 0.3-0.1 0.7-0.2 0.9-0.2 0.3-0.4 0.5-0.7 0.7s-0.6 0.3-1 0.3-0.8-0.1-1.1-0.4c-0.2-0.2-0.4-0.3-0.6-0.3-0.2-0.1-0.5-0.1-0.7-0.1-0.7 0-1.6 0.3-2.6 1-0.5 0.3-1 0.7-1.6 1.2s-1.1 1-1.7 1.6c-0.7 0.6-1.2 1.2-1.7 1.8s-0.8 1.2-1.1 1.8c-0.1 0.1-0.1 0.3-0.2 0.5s-0.1 0.4-0.1 0.6 0 0.3 0 0.3c0 0.1 0 0.1 0.1 0.1 0.2 0 0.4-0.1 0.7-0.4l0.5-0.4c0.4-0.3 0.9-0.8 1.5-1.2 0.5-0.5 1.1-0.9 1.7-1.4s1.1-0.9 1.7-1.3c0.5-0.4 1-0.8 1.5-1 0.7-0.4 1.4-0.6 2-0.6 0.5 0 1 0.2 1.3 0.5s0.5 0.8 0.5 1.5v0.6 1c0 0.3 0.1 0.5 0.2 0.7 0.1 0.4 0.3 0.6 0.5 0.8 0.2 0.1 0.4 0.2 0.7 0.2h0.2c0.3-0.1 0.7-0.1 1.1-0.2s0.9-0.2 1.3-0.4 0.9-0.3 1.3-0.5 0.8-0.3 1.1-0.5c0.3-0.2 0.6-0.2 0.9-0.2 0.5 0 0.9 0.2 1.3 0.6 0.2 0.4 0.3 0.8 0.3 1.2z"/>
	<path class="st0" d="m59.9 32.1c0 0.4-0.1 0.7-0.3 1s-0.6 0.6-1 0.8c-0.1 0.1-0.3 0.1-0.4 0.2s-0.2 0.1-0.4 0.2c-0.6 0.2-1.2 0.4-1.9 0.6s-1.4 0.5-2.2 0.7-1.6 0.4-2.4 0.5-1.6 0.2-2.4 0.2c-1.2 0-2.2-0.2-3.2-0.5-0.8-0.3-1.5-0.8-2.1-1.4s-1-1.3-1.3-2.2c-0.3-0.8-0.6-1.8-0.7-2.8-0.1-1.1-0.2-2.2-0.2-3.5v-0.3c0-1.1 0.1-2.3 0.3-3.4 0.2-1.2 0.5-2.3 0.8-3.4 0.4-1.1 0.8-2.1 1.2-3.1s0.9-1.8 1.4-2.5c0.8-1.1 1.5-2 2.3-2.6s1.5-0.9 2.3-0.9c0.2 0 0.3 0 0.5 0.1h-0.1c0.9 0.1 1.6 0.6 2.2 1.6s0.9 2.4 1 4.2v0.5 0.5c0 1.4-0.1 2.8-0.4 4.4-0.3 1.5-0.7 2.9-1.2 4.1-0.6 1.4-1.3 2.7-2.2 3.8s-1.7 2.2-2.5 3c0.1 0.1 0.3 0.2 0.5 0.3s0.4 0.2 0.6 0.2c0.1 0 0.3 0 0.5 0.1h0.5c0.6 0 1.2-0.1 1.9-0.2s1.4-0.3 2.1-0.5 1.4-0.4 2.1-0.6 1.4-0.5 2.1-0.7c0.2-0.1 0.5-0.2 0.7-0.2 0.8 0 1.4 0.4 1.7 1.2 0.2 0.2 0.2 0.4 0.2 0.6zm-10.7-17.9c-0.1 0-0.3 0.1-0.5 0.3s-0.5 0.5-0.8 1-0.6 1.1-1 1.9c-0.3 0.8-0.6 1.6-0.9 2.5s-0.5 1.8-0.7 2.8-0.3 1.9-0.3 2.9v0.4c0 0.9 0.1 1.8 0.3 2.5 0.6-0.7 1.2-1.5 1.7-2.3 0.6-0.8 1-1.7 1.4-2.6 0.2-0.3 0.3-0.8 0.4-1.3s0.3-1.1 0.4-1.8 0.2-1.3 0.3-1.9c0.1-0.7 0.1-1.3 0.1-1.8v-0.5c0-1.3-0.2-1.9-0.4-2.1z"/>
	<path class="st0" d="m80.1 32.5c0 0.3-0.1 0.6-0.2 0.9-0.2 0.3-0.4 0.5-0.7 0.7-0.9 0.5-1.9 0.9-3.1 1.3s-2.2 0.7-3.2 0.8h-0.6-0.5c-0.9 0-1.6-0.1-2.1-0.4s-1-0.7-1.4-1.3c-0.2-0.3-0.4-0.6-0.5-1.1-0.2-0.5-0.2-0.9-0.2-1.3-0.1 0-0.2 0-0.2 0.1-0.3 0.2-0.8 0.5-1.3 1-0.5 0.4-1.1 0.9-1.7 1.4-0.4 0.3-0.7 0.6-1.1 0.9-0.3 0.3-0.7 0.6-1 0.8-1.1 0.8-2.2 1.2-3.2 1.2-0.8 0-1.5-0.3-2.1-0.8-0.7-0.6-1.1-1.6-1.1-2.9 0.1-1.2 0.4-2.3 0.9-3.4 0.4-0.8 0.9-1.6 1.5-2.3s1.2-1.4 1.8-2.1 1.3-1.2 1.9-1.8c0.7-0.5 1.3-1 1.8-1.4 0.6-0.4 1.4-0.8 2.3-1.3s1.8-0.7 2.8-0.7c0.5 0 1.1 0.1 1.6 0.3s1.1 0.5 1.7 1c0.3 0.2 0.5 0.4 0.6 0.7 0.1 0.2 0.2 0.5 0.2 0.7 0 0.3-0.1 0.7-0.2 0.9-0.2 0.3-0.4 0.5-0.7 0.7s-0.6 0.3-1 0.3-0.8-0.1-1.1-0.4c-0.2-0.2-0.4-0.3-0.6-0.3-0.2-0.1-0.5-0.1-0.7-0.1-0.7 0-1.6 0.3-2.6 1-0.5 0.3-1 0.7-1.6 1.2s-1.1 1-1.7 1.6c-0.5 0.6-1.1 1.2-1.5 1.8-0.5 0.6-0.8 1.2-1.1 1.8-0.1 0.1-0.1 0.3-0.2 0.5s-0.1 0.4-0.1 0.6 0 0.3 0 0.3c0 0.1 0 0.1 0.1 0.1 0.2 0 0.4-0.1 0.7-0.4l0.5-0.4c0.4-0.3 0.9-0.8 1.5-1.2 0.5-0.5 1.1-0.9 1.7-1.4s1.1-0.9 1.7-1.3c0.5-0.4 1-0.8 1.5-1 0.7-0.4 1.4-0.6 2-0.6 0.5 0 1 0.2 1.3 0.5s0.5 0.8 0.5 1.5v0.6 1c0 0.3 0.1 0.5 0.2 0.7 0.1 0.4 0.3 0.6 0.5 0.8 0.2 0.1 0.4 0.2 0.7 0.2h0.2c0.3-0.1 0.7-0.1 1.1-0.2s0.9-0.2 1.3-0.4c0.4-0.1 0.9-0.3 1.3-0.5s0.8-0.3 1.1-0.5c0.3-0.2 0.6-0.2 0.9-0.2 0.5 0 0.9 0.2 1.3 0.6-0.1 0.4 0.1 0.8 0.1 1.2z"/>
	<path class="st0" d="m92.8 25.8c0 1.2-0.4 2.5-1.1 3.8-0.3 0.7-0.7 1.4-1.2 2.1s-1 1.4-1.6 2c-0.9 1-1.9 1.9-3 2.7s-2.2 1.5-3.3 2.3c-0.3 0.2-0.7 0.3-1 0.3-0.6 0-1.1-0.3-1.5-1-0.1-0.3-0.2-0.5-0.2-0.8 0-0.7 0.3-1.2 0.8-1.6 1.2-0.8 2.3-1.5 3.2-2.2s1.8-1.4 2.5-2.3c0.5-0.5 0.9-1.1 1.3-1.7s0.7-1.1 0.9-1.6c0.3-0.6 0.4-1 0.4-1.4 0-0.2 0-0.3-0.1-0.5-0.2-0.2-0.4-0.2-0.8-0.2h-0.2s-0.2 0-0.3 0c-0.6 0.1-1.4 0.2-2.3 0.5s-1.8 0.7-2.6 1.2l-1.2 0.9c-0.4 0.3-0.6 0.7-0.8 1.1-0.1 0.1-0.1 0.2-0.1 0.2 0 0.1 0 0.1-0.1 0.2l-0.1 0.3c0 0.1 0 0.3-0.1 0.4v0.3 0.5c0 0.2 0 0.3 0.1 0.5v0.4c-0.1 0.6-0.2 1.1-0.6 1.4-0.3 0.3-0.7 0.5-1.2 0.5-0.4 0-0.7-0.1-1.1-0.4s-0.6-0.7-0.8-1.3c-0.1-0.6-0.2-1.2-0.3-2 0-0.8-0.1-1.6-0.1-2.4 0-1.2 0-2.5 0.1-3.9s0.2-2.7 0.4-4.1c0.1-1.3 0.3-2.6 0.5-3.7s0.4-2.1 0.5-2.9c0.1-0.4 0.2-0.8 0.2-1.2 0.1-0.3 0.3-0.7 0.5-1 0.3-0.6 0.9-0.9 1.6-0.9h0.2c0.5 0 0.8 0.1 1.2 0.4 0.3 0.3 0.5 0.6 0.5 1.1v0.2c0 0.2-0.1 0.5-0.2 0.7s-0.2 0.5-0.3 0.6c-0.1 0.2-0.2 0.3-0.2 0.4-0.1 0.7-0.2 1.5-0.4 2.4-0.1 0.9-0.3 1.8-0.4 2.8l-0.3 3s-0.2 2.1-0.3 3.1c0.2-0.2 0.5-0.4 0.8-0.6s0.6-0.3 0.8-0.5c0.7-0.4 1.6-0.8 2.6-1.1s2-0.6 3.1-0.7c0.2-0.1 0.4-0.1 0.6-0.1h0.6c0.8 0 1.4 0.1 2 0.4 0.5 0.2 1 0.5 1.4 0.9 0.7 0.6 1 1.5 1 2.5z"/>
	<path class="st0" d="m115.7 32.5c0 0.3-0.1 0.6-0.2 0.9-0.2 0.3-0.4 0.5-0.7 0.7-0.9 0.5-1.9 0.9-3.1 1.3s-2.2 0.7-3.2 0.8h-0.6-0.5c-0.9 0-1.6-0.1-2.1-0.4s-1-0.7-1.4-1.3c-0.2-0.3-0.4-0.6-0.5-1.1-0.2-0.5-0.2-0.9-0.2-1.3-0.1 0-0.2 0-0.2 0.1-0.3 0.2-0.8 0.5-1.3 1-0.5 0.4-1.1 0.9-1.7 1.4-0.4 0.3-0.7 0.6-1.1 0.9-0.3 0.3-0.7 0.6-1 0.8-1.1 0.8-2.2 1.2-3.2 1.2-0.8 0-1.5-0.3-2.1-0.8-0.7-0.6-1.1-1.6-1.1-2.9 0.1-1.2 0.4-2.3 0.9-3.4 0.4-0.8 0.9-1.6 1.5-2.3s1.2-1.4 1.8-2.1 1.3-1.2 1.9-1.8c0.7-0.5 1.3-1 1.8-1.4 0.6-0.4 1.4-0.8 2.3-1.3s1.8-0.7 2.8-0.7c0.5 0 1.1 0.1 1.6 0.3s1.1 0.5 1.7 1c0.3 0.2 0.5 0.4 0.6 0.7 0.1 0.2 0.2 0.5 0.2 0.7 0 0.3-0.1 0.7-0.2 0.9-0.2 0.3-0.4 0.5-0.7 0.7s-0.6 0.3-1 0.3-0.8-0.1-1.1-0.4c-0.2-0.2-0.4-0.3-0.6-0.3-0.2-0.1-0.5-0.1-0.7-0.1-0.7 0-1.6 0.3-2.6 1-0.5 0.3-1 0.7-1.6 1.2s-1.1 1-1.7 1.6c-0.5 0.6-1.1 1.2-1.5 1.8-0.5 0.6-0.8 1.2-1.1 1.8-0.1 0.1-0.1 0.3-0.2 0.5s-0.1 0.4-0.1 0.6 0 0.3 0 0.3c0 0.1 0 0.1 0.1 0.1 0.2 0 0.4-0.1 0.7-0.4l0.5-0.4c0.4-0.3 0.9-0.8 1.5-1.2 0.5-0.5 1.1-0.9 1.7-1.4s1.1-0.9 1.7-1.3c0.5-0.4 1-0.8 1.5-1 0.7-0.4 1.4-0.6 2-0.6 0.5 0 1 0.2 1.3 0.5s0.5 0.8 0.5 1.5v0.6 1c0 0.3 0.1 0.5 0.2 0.7 0.1 0.4 0.3 0.6 0.5 0.8 0.2 0.1 0.4 0.2 0.7 0.2h0.2c0.3-0.1 0.7-0.1 1.1-0.2s0.9-0.2 1.3-0.4c0.4-0.1 0.9-0.3 1.3-0.5s0.8-0.3 1.1-0.5c0.3-0.2 0.6-0.2 0.9-0.2 0.5 0 0.9 0.2 1.3 0.6-0.1 0.4 0.1 0.8 0.1 1.2z"/>
	<path class="st0" d="m125.3 25.7c-0.3 0.4-0.7 0.6-1.3 0.6h-0.9c-0.3 0-0.7 0-1.1-0.1-0.5 0-1 0-1.5-0.1h-1.6c0 0.7 0 1.4 0.1 2.2 0.1 0.7 0.1 1.5 0.2 2.2s0.2 1.4 0.3 2 0.2 1.2 0.4 1.7c0.1 0.1 0.1 0.2 0.1 0.3s0 0.1 0 0.2c0 0.5-0.1 0.8-0.4 1.1s-0.6 0.5-0.9 0.6c-0.1 0.1-0.2 0.1-0.3 0.1h-0.2c-0.4 0-0.8-0.1-1.2-0.4-0.4-0.2-0.6-0.6-0.7-1.2-0.3-1.1-0.5-2.4-0.7-3.9s-0.2-3.1-0.2-4.7h-2.4c-0.6 0-1-0.2-1.3-0.5-0.3-0.4-0.4-0.8-0.4-1.2 0-0.5 0.1-0.9 0.4-1.2 0.3-0.4 0.7-0.6 1.3-0.7h1 0.6 0.7c0-0.8 0-1.7 0.1-2.7s0.2-2 0.3-3.1 0.3-2.1 0.4-3.2c0.2-1.1 0.4-2.1 0.6-3.1-0.1-0.1-0.2-0.3-0.2-0.6 0-0.2 0-0.3 0.1-0.4 0.1-0.3 0.2-0.6 0.6-1.1 0.1-0.1 0.1-0.1 0.2-0.3 0.1-0.1 0.1-0.2 0.1-0.1l0.1-0.4c0.1-0.1 0.1-0.2 0.2-0.3s0.1-0.2 0-0.1v0.1c0.3-0.7 0.8-1.1 1.5-1.1 0.3 0 0.6 0.1 1 0.3 0.3 0.2 0.6 0.5 0.8 0.8s0.3 0.7 0.3 1.1v0.1c0 0.3 0 0.6-0.1 0.8s-0.2 0.4-0.3 0.6c-0.2 0.8-0.4 1.8-0.6 2.8-0.2 1.1-0.4 2.2-0.5 3.3-0.2 1.1-0.3 2.3-0.4 3.4s-0.2 2.1-0.2 3c0.5 0 1.1 0 1.8 0.1 0.7 0 1.5 0.1 2.2 0.1 0.9 0.1 1.6 0.2 2.1 0.4s0.7 0.7 0.7 1.5c-0.4 0.4-0.5 0.8-0.8 1.1z"/>
	<path class="st1" d="m125.2 36.6c-0.5 0-1-0.2-1.4-0.5-0.4-0.4-0.6-0.9-0.6-1.6 0-0.6 0.3-1.2 0.8-1.6l0.6-0.3c0.2-0.1 0.5-0.1 0.7-0.1 0.5 0 0.9 0.1 1.2 0.4 0.3 0.2 0.5 0.4 0.6 0.7s0.2 0.6 0.2 0.9c0 0.3-0.1 0.6-0.2 0.9s-0.3 0.5-0.6 0.7c-0.4 0.4-0.9 0.5-1.3 0.5z"/>
	<path class="st1" d="m149.5 31.6c0 0.7-0.3 1.2-1 1.6-0.5 0.2-1.2 0.5-2 0.9-0.9 0.4-1.9 0.7-3 1.1s-2.4 0.7-3.8 0.9c-1.4 0.3-2.8 0.4-4.4 0.4h-0.3c-2.1 0-3.7-0.4-4.9-1.2s-1.7-1.8-1.7-3.2c0-0.5 0.1-1 0.2-1.5s0.4-1.1 0.7-1.7c0.8-1.4 1.9-2.6 3.4-3.8s3.2-2.1 5.1-2.8c0.2-0.1 0.6-0.1 1.2-0.1h0.4 0.3c0.7 0.1 1.2 0.3 1.5 0.7 0.3 0.3 0.5 0.7 0.5 1.2s-0.2 0.9-0.5 1.3-0.7 0.6-1.3 0.7h-0.3-0.4-0.7c-0.2 0-0.5-0.1-0.7-0.2-0.5 0.1-0.9 0.3-1.4 0.6s-1 0.6-1.5 1-0.9 0.8-1.4 1.3c-0.4 0.5-0.7 1-1 1.4-0.2 0.3-0.3 0.7-0.3 1 0 0.4 0.2 0.8 0.7 1.1 0.4 0.3 1.1 0.4 2.1 0.4 1.3 0 2.5-0.1 3.7-0.4 1.2-0.2 2.3-0.5 3.4-0.8 1-0.3 1.9-0.6 2.7-1 0.8-0.3 1.3-0.6 1.7-0.8 0.3-0.2 0.6-0.2 1-0.2 0.6 0 1.1 0.3 1.5 0.8 0.4 0.6 0.5 1 0.5 1.3z"/>
	<path class="st1" d="m163.8 27.5c-0.2 0.3-0.4 0.5-0.8 0.6-0.1 0.1-0.3 0.1-0.5 0.1s-0.4 0-0.6 0.1c0.3 0.5 0.4 1.1 0.4 1.8 0 0.5-0.1 1-0.3 1.5-0.2 0.6-0.5 1.1-1 1.6-0.7 0.8-1.5 1.6-2.3 2.2s-1.6 1.1-2.5 1.5c-0.8 0.3-1.6 0.5-2.4 0.7-0.8 0.1-1.7 0.2-2.6 0.2h-0.2c-2.4 0-4-0.8-4.9-2.3-0.5-0.7-0.7-1.7-0.7-2.8 0-0.7 0.1-1.5 0.2-2.2 0.3-1.6 1-3 2-4.2s2.1-2.2 3.4-2.8c0.6-0.3 1.2-0.5 1.8-0.5s1.3 0.2 1.9 0.7c0.2-0.1 0.5-0.1 0.8-0.1 0.2 0 0.5 0 0.7 0.1 0.5 0.1 0.9 0.2 1.4 0.4s0.9 0.5 1.2 0.7h3.1c0.5 0 1 0.2 1.4 0.5 0.4 0.4 0.6 0.8 0.6 1.2v0.1c0.2 0.4 0.1 0.6-0.1 0.9zm-5.1 2.5c0-0.7-0.3-1.2-0.9-1.7h-2.8c-0.7 0-1.3-0.1-1.8-0.3s-0.7-0.5-0.8-1h-0.1-0.1-0.1c-0.5 0.4-1 0.9-1.5 1.6s-0.9 1.6-1.1 2.5c-0.1 0.5-0.1 0.9-0.1 1.2 0 0.5 0.1 0.9 0.3 1.2 0.4 0.5 0.9 0.8 1.7 0.8h0.3c0.7 0 1.3-0.1 1.8-0.2s1-0.2 1.4-0.4c0.6-0.3 1.3-0.6 1.8-1.1 0.6-0.5 1.1-1 1.6-1.6 0.2-0.2 0.4-0.6 0.4-1z"/>
	<path class="st1" d="m202.9 33.7c-0.3 0.2-0.6 0.4-1 0.4-0.1 0-0.3 0-0.4-0.1 0.1 0.1 0 0.1 0 0-0.1 0-0.2-0.1-0.3-0.1-0.2 0.1-0.4 0.1-0.8 0.2s-0.7 0.1-1 0.2l-1.2 0.3s-0.8 0.2-1.2 0.3c-1 0.4-1.9 0.6-2.7 0.6-0.7 0-1.3-0.1-2-0.4-0.6-0.2-1.2-0.7-1.7-1.2-0.6-0.7-1.1-1.6-1.5-2.5-0.4-1-0.7-2-1-3.1-0.1-0.4-0.3-0.6-0.4-0.6-0.4 0-1 0.3-2 1-0.2 0.1-0.5 0.3-0.8 0.6s-0.7 0.7-1.2 1.1c-0.4 0.4-0.9 0.9-1.3 1.4s-0.9 1-1.3 1.4c-0.2 0.3-0.5 0.5-0.8 0.7s-0.7 0.2-1.1 0.2c-0.4 0-0.7-0.1-1.1-0.3-0.3-0.2-0.6-0.4-0.8-0.8s-0.4-0.8-0.5-1.3c-0.1-0.4-0.3-0.9-0.4-1.3s-0.3-0.7-0.4-1.1c-0.1-0.3-0.3-0.7-0.4-1.1-0.1-0.1-0.2-0.2-0.3-0.2h-0.1-0.1c-0.3 0.1-0.7 0.4-1.1 0.8-0.3 0.4-0.6 0.8-1 1.2s-0.8 0.8-1.2 1.3c-0.3 0.3-0.6 0.7-0.9 1-0.5 0.6-1 1.1-1.4 1.7s-0.8 1.1-1 1.5c-0.2 0.3-0.5 0.6-0.8 0.8s-0.6 0.2-0.9 0.2h-0.5s-0.3-0.1-0.4-0.2c-0.8-0.4-1.2-1-1.2-1.9-0.1-0.7-0.1-1.5-0.1-2.4s0-1.7 0-2.6v-3.1c0-1 0-1.8 0.1-2.3 0.1-0.6 0.3-1.1 0.7-1.3 0.4-0.3 0.8-0.4 1.3-0.4h0.1c0.5 0 0.9 0.2 1.2 0.5 0.4 0.3 0.6 0.7 0.6 1.3v0.1c-0.1 0.7-0.1 1.5-0.1 2.3v2.4 0.9c0.1-0.1 0.2-0.3 0.3-0.4l0.4-0.4c0.3-0.3 0.5-0.6 0.8-0.9s0.6-0.7 0.9-1l0.6-0.7c0.5-0.6 1.1-1.1 1.8-1.7 0.7-0.5 1.4-0.8 2.2-1h0.3 0.4c0.6 0 1.1 0.2 1.6 0.5s0.9 0.8 1.3 1.6c0.1 0.4 0.3 0.8 0.4 1.2 0.2 0.4 0.3 0.8 0.4 1.1s0.2 0.5 0.2 0.7c0.1 0.1 0.1 0.1 0 0.1l0.2-0.1 0.8-0.8 0.9-0.9 0.9-0.9c0.3-0.3 0.6-0.5 0.8-0.7 1.9-1.6 3.5-2.4 4.9-2.4h0.1c1.6 0 2.6 1.1 3.1 3.2 0.2 0.9 0.4 1.9 0.8 2.8 0.3 0.9 0.7 1.6 1.1 2.1 0.3 0.3 0.6 0.5 1 0.5 0.3 0 0.7-0.1 1-0.2 0.5-0.2 1-0.3 1.5-0.5 0.5-0.1 1-0.3 1.6-0.4 0.5-0.1 1-0.3 1.5-0.4s0.9-0.2 1.2-0.2h0.2c0.4 0 0.7 0 0.9 0.1 0.3 0.1 0.5 0.2 0.7 0.4 0.4 0.3 0.6 0.7 0.6 1.2 0 0.3-0.1 0.7-0.4 1-0.1 0.5-0.3 0.7-0.6 1z"/>
</svg>
