<?xml version="1.0" encoding="utf-8"?>
<!-- Generator: Adobe Illustrator 20.0.0, SVG Export Plug-In . SVG Version: 6.00 Build 0)  -->
<svg version="1.1" id="Isolation_Mode" xmlns="http://www.w3.org/2000/svg" xmlns:xlink="http://www.w3.org/1999/xlink" x="0px"
	 y="0px" viewBox="0 0 10 10" style="enable-background:new 0 0 10 10;" xml:space="preserve">
<path d="M9.7,0.3c-0.4-0.4-0.8-0.4-1.2,0L4.9,3.9L1.5,0.3c-0.4-0.4-0.8-0.4-1.2,0s-0.4,0.8,0,1.2L3.8,5L0.3,8.5
	c-0.4,0.4-0.4,0.8,0,1.2c0.4,0.4,0.8,0.4,1.2,0L5,6.2l3.5,3.5c0.4,0.4,0.8,0.4,1.2,0c0.4-0.4,0.4-0.8,0-1.2L6.2,5l3.6-3.6
	C10.1,1.1,10.1,0.5,9.7,0.3z"/>
</svg>
