<?xml version="1.0" encoding="utf-8"?>
<!-- Generator: Adobe Illustrator 19.2.1, SVG Export Plug-In . SVG Version: 6.00 Build 0)  -->
<svg version="1.1" id="Layer_1" xmlns="http://www.w3.org/2000/svg" xmlns:xlink="http://www.w3.org/1999/xlink" x="0px" y="0px"
	 viewBox="0 0 100 100" style="enable-background:new 0 0 100 100;" xml:space="preserve">
<style type="text/css">
	.st0{fill:#FFFFFF;stroke:#000000;stroke-width:0.3888;}
	.st1{fill:#ED2B30;}
	.st2{fill:#FFFFFF;}
	.st3{fill:#168542;}
	.st4{fill:#F15D2F;}
</style>
<g>
	<path class="st0" d="M75.4,51.8"/>
</g>
<rect class="st1" width="100" height="100"/>
<rect x="28.8" class="st2" width="71.2" height="35.6"/>
<rect x="29.1" y="67.8" class="st3" width="70.9" height="32.2"/>
<g>
	<path class="st2" d="M4.9,28.7c-0.2,0-0.5-0.1-0.6-0.2c-0.1-0.1-0.1-0.2-0.1-0.3c0.1-0.3,0.5-0.6,1.2-1c3.7-2.3,7.4-6,11.1-11.2
		l0.3,0.2c-3.8,5.3-7.5,9-11.3,11.4c-0.2,0.1-1,0.6-1,0.8c0.1,0.2,0.8,0.1,1.4-0.3c4.3-2.2,8.7-6.3,11.7-11l0.3,0.2
		c-3.1,4.8-7.6,9-11.9,11.2C5.9,28.5,5.3,28.7,4.9,28.7z"/>
	<path class="st2" d="M18.1,17.3c-0.2,0-0.5-0.2-0.9-0.5c-0.8-0.6-0.7-0.7-0.7-0.8l0-0.1l0.1,0c5.4-7.1,6-7.6,6.4-7.6l0.2,0.1
		l0.1,0.2c0.1,0.3-0.1,0.8-5,8.7v0.1l-0.1,0.1L18.1,17.3z M16.9,16.1c0.1,0.1,0.3,0.2,0.5,0.4c0.3,0.2,0.5,0.3,0.6,0.4
		c3.2-5.1,4.7-7.5,4.9-8.2C22.4,9.2,20.6,11.4,16.9,16.1z"/>
	<path class="st2" d="M4.9,28.9c-0.5,0-0.6-0.2-0.7-0.4c-0.1-0.3,0.1-0.6,0.4-0.8c0.2-0.1,0.4-0.3,0.6-0.4c0.3-0.2,0.7-0.4,1-0.7
		c0.3-0.2,0.4-0.2,0.7-0.2l0.1,0c0.1,0,0.3,0.1,0.5,0.1c0.2,0.1,0.4,0.1,0.5,0.2l0,0c0.3,0.1,0.4,0.2,0.4,0.4c0,0.2-0.1,0.2-0.3,0.4
		c-0.2,0.1-0.4,0.3-0.6,0.4c-0.7,0.5-1.3,0.9-2.2,1C5.1,28.9,5,28.9,4.9,28.9z M6.9,26.8c-0.2,0-0.2,0-0.5,0.2
		c-0.3,0.2-0.6,0.5-1,0.7c-0.2,0.2-0.5,0.3-0.6,0.4c-0.2,0.1-0.3,0.3-0.2,0.4c0,0.1,0.2,0.2,0.6,0.1c0.8-0.1,1.4-0.5,2.1-1
		c0.2-0.1,0.4-0.3,0.6-0.4l0,0l-0.1,0c-0.1,0-0.3-0.1-0.5-0.1C7.2,26.9,7,26.8,6.9,26.8z"/>
	<path class="st2" d="M25,28.7c-0.4,0-1-0.2-1.4-0.5c-5.3-2.7-9.6-7.5-11.9-11.2l0.3-0.2c2.2,3.6,6.5,8.4,11.7,11
		c0.4,0.3,1,0.5,1.3,0.4l0.1,0c0-0.3-0.8-0.7-1-0.8c-3.8-2.3-7.5-6-11.3-11.4l0.3-0.2c3.8,5.3,7.4,8.9,11.1,11.2
		c0.7,0.4,1.1,0.7,1.2,1c0,0.1,0,0.2-0.1,0.3c-0.1,0.1-0.2,0.2-0.3,0.2L25,28.7z"/>
	<path class="st2" d="M11.8,17.3L11.8,17.3l-0.2-0.1l0-0.1C6.2,8.7,6.4,8.6,6.7,8.3l0.1,0C7,8.1,7.2,8,13.3,15.9h0l0.1,0.1
		c0,0.1,0.1,0.2-0.7,0.8C12.4,17.1,12.1,17.3,11.8,17.3z M7,8.7c0.2,0.8,2.7,4.8,4.9,8.2c0.1-0.1,0.3-0.2,0.6-0.4
		c0.2-0.2,0.4-0.3,0.5-0.4C10.5,12.9,7.7,9.3,7,8.7z"/>
	<path class="st2" d="M25,28.9c-0.1,0-0.2,0-0.4,0c-1-0.2-1.6-0.6-2.3-1.1c-0.1-0.1-0.3-0.2-0.4-0.3c-0.2-0.1-0.4-0.2-0.4-0.4
		c0-0.2,0.1-0.2,0.4-0.4l0,0c0.2-0.1,0.3-0.1,0.5-0.2c0.2,0,0.3-0.1,0.5-0.1l0.1,0c0.3,0,0.4,0,0.7,0.2c0.3,0.2,0.7,0.5,1,0.7
		c0.2,0.2,0.5,0.3,0.6,0.4c0.3,0.2,0.5,0.5,0.4,0.8C25.6,28.7,25.5,28.9,25,28.9z M22,27.1L22,27.1c0.2,0.1,0.4,0.2,0.5,0.3
		c0.7,0.5,1.3,0.9,2.2,1.1c0.4,0.1,0.6,0,0.6-0.1c0-0.1,0-0.3-0.2-0.4c-0.2-0.1-0.4-0.3-0.6-0.4c-0.3-0.2-0.7-0.4-1-0.7
		c-0.2-0.1-0.2-0.2-0.4-0.2c-0.1,0-0.3,0.1-0.5,0.1C22.4,27,22.2,27,22,27.1L22,27.1z"/>
	<path class="st2" d="M13.9,22.5c-0.1,0-0.2-0.1-0.2-0.2v-8.2l0.1-0.2c0.5-0.3,0.7-0.5,0.7-1.8c0-0.4,0-0.7-0.1-0.8l0-0.2l0.2-0.1h1
		l0.2,0.1l0,0.2c-0.1,0.2-0.1,0.5-0.1,0.9c0,1.3,0.2,1.5,0.7,1.8l0,0l0.1,0.2v5.7C16.5,21.1,16.2,22.5,13.9,22.5z M14.1,14.2v7.9
		c1.8-0.1,2-1.1,2-2.2v-5.6c-0.5-0.4-0.8-0.7-0.8-2.1c0-0.3,0-0.6,0-0.8h-0.5c0,0.2,0,0.4,0,0.7C14.9,13.5,14.7,13.8,14.1,14.2z"/>
	<path class="st2" d="M15.1,11.5c-0.8,0-1.4-0.5-1.4-1.1s0.6-1.1,1.4-1.1c0.8,0,1.4,0.5,1.4,1.1S15.9,11.5,15.1,11.5z M15.1,9.7
		c-0.6,0-1,0.3-1,0.7s0.5,0.7,1,0.7c0.6,0,1-0.3,1-0.7S15.7,9.7,15.1,9.7z"/>
	<path class="st2" d="M15.1,9.9c-0.4,0-0.5-0.2-0.5-0.4c0-0.1,0-0.2,0.1-0.3C14.8,9.1,14.9,9,15.1,9c0.3,0,0.5,0.2,0.5,0.4
		C15.6,9.6,15.5,9.8,15.1,9.9L15.1,9.9z M15.1,9.4L15,9.5l0.1,0.1l0.1-0.1L15.1,9.4z"/>
	<path class="st2" d="M14,10.8c-0.3,0-0.5-0.2-0.5-0.4c0-0.1,0-0.2,0.1-0.3c0.1-0.1,0.2-0.1,0.4-0.1c0.3,0,0.5,0.2,0.5,0.4
		c0,0.1,0,0.2-0.1,0.3C14.3,10.7,14.2,10.8,14,10.8z M14,10.3l-0.1,0.1l0.1,0.1l0.1-0.1L14,10.3z"/>
	<path class="st2" d="M16.1,10.8c-0.1,0-0.2,0-0.3-0.1c-0.1-0.1-0.1-0.3,0-0.5c0.1-0.2,0.2-0.3,0.4-0.3c0.3,0,0.5,0.2,0.5,0.4
		c0,0.1,0,0.2-0.1,0.3C16.5,10.7,16.4,10.8,16.1,10.8L16.1,10.8z M16.2,10.3L16.2,10.3l-0.1,0.1l0.1,0l0.2-0.1L16.2,10.3z"/>
	<path class="st2" d="M15.5,22.2l-0.1-0.1h-0.3c0-0.1,0.1-0.2,0.4-0.5c0.2-0.2,0.5-0.5,0.5-0.6l0.4,0.1c-0.1,0.2-0.3,0.5-0.7,0.8
		C15.6,22,15.5,22.1,15.5,22.2z"/>
	<path class="st2" d="M13.8,22.5c-1.2,0-2.9-0.4-4.2-1c-0.2-0.1-0.9-0.4-0.8-0.9c0.1-0.5,1-0.7,1.6-0.7c1.9-0.2,3-0.3,3.2-0.5l0,0
		c0.2-0.1,0.3-0.2,0.5-0.1c0.1,0.1,0.1,0.3,0.1,0.6l0,0c-0.1,0.2-0.1,1-0.1,1.4c0,0.3,0.1,0.7,0.3,0.7l0,0.4
		C14.3,22.5,14,22.5,13.8,22.5z M13.8,19.9c-0.3,0.2-1.4,0.3-3.4,0.5c-0.7,0-1.2,0.2-1.2,0.4c0,0.1,0.1,0.2,0.6,0.5
		c1.2,0.6,3,1,4.1,0.9c-0.1-0.2-0.2-0.5-0.2-0.8C13.7,20.6,13.7,20.1,13.8,19.9z"/>
	<path class="st2" d="M10.9,19.3H7.8c-0.2,0-0.4-0.2-0.4-0.4v-1.7c0-0.2,0.2-0.4,0.4-0.4h3.1c0.2,0,0.4,0.2,0.4,0.4v1.7
		C11.3,19.1,11.1,19.3,10.9,19.3z M7.8,17.2l0,1.7l3.1,0l0-1.7L7.8,17.2z"/>
	<path class="st2" d="M22,19.3h-3.1c-0.2,0-0.4-0.2-0.4-0.4v-1.7c0-0.2,0.2-0.4,0.4-0.4H22c0.2,0,0.4,0.2,0.4,0.4v1.7
		C22.4,19.1,22.2,19.3,22,19.3z M18.9,17.2l0,1.7l0,0H22l0-1.7L18.9,17.2z"/>
	<path class="st2" d="M13,19c-0.4,0-0.8-0.3-0.9-0.7h0l0-0.4c0.1-0.4,0.4-0.7,0.9-0.7c0.5,0,0.9,0.4,0.9,0.9S13.5,19,13,19z
		 M12.9,18.6l0.1,0c0.3,0,0.5-0.2,0.5-0.5s-0.2-0.5-0.5-0.5l-0.1,0c0.3,0,0.5,0.2,0.5,0.5S13.2,18.6,12.9,18.6z M12.8,18.1
		c0,0.1,0,0.1,0.1,0.1c0.1,0,0.1,0,0.1-0.1c0-0.1,0-0.1-0.1-0.1L12.8,18.1z"/>
	<path class="st2" d="M12.1,19.2c-0.8,0-0.8-0.6-0.8-1.1s0-1.1,0.8-1.1c0.2,0,0.4,0,0.5,0.1c0.2,0.2,0.2,0.5,0.2,0.8h0l0,0.4
		C12.9,18.7,12.8,19.2,12.1,19.2z M12.1,17.7l-0.1,0l0,0.2l0,0.2c0,0.4,0,0.4,0.1,0.4l0.1,0l0-0.2h0v-0.2
		C12.2,17.7,12.2,17.7,12.1,17.7z"/>
	<path class="st2" d="M10.9,18.7c-0.1,0-0.2,0-0.3-0.1c-0.1-0.1-0.1-0.2-0.1-0.3c0-0.1,0-0.1,0-0.2c0-0.1,0-0.2,0-0.2
		c0-0.1,0-0.2,0.1-0.3c0.1-0.1,0.2-0.1,0.7,0l0.1,0c0.3,0,0.5,0,0.5,0.1c0.1,0.1,0.1,0.2,0,0.3l0,0.2l0,0.2c0,0.1,0,0.2,0,0.3
		c-0.1,0.1-0.2,0.1-0.6,0.1c-0.1,0-0.2,0-0.3,0L10.9,18.7z M11,17.8c0,0.1,0,0.2,0,0.3l0,0.2l0.1,0c0.1,0,0.2,0,0.3,0l0.2,0l0-0.2
		l0-0.2l-0.2,0l-0.1,0C11.2,17.9,11.1,17.9,11,17.8z"/>
	<path class="st2" d="M12.6,18.7c-0.4,0-0.5,0-0.6-0.1c-0.1-0.1-0.1-0.2,0-0.3l0-0.2c0-0.1,0-0.2,0-0.3l0-0.3
		c0.1-0.1,0.2-0.1,0.3-0.1c0.1,0,0.1,0,0.2,0c0.3,0.1,0.4,0.1,0.5,0.2c0.1,0.1,0,0.2,0,0.3l0,0.1l0,0.2c0,0.1,0,0.2,0,0.3
		C13,18.7,12.8,18.7,12.6,18.7z M12.4,18.3c0.1,0,0.3,0,0.3,0l0-0.2l0-0.2l-0.2,0h-0.2l0,0.2L12.4,18.3z"/>
	<path class="st2" d="M17.7,19.2c-0.7,0-0.8-0.5-0.8-0.9h0l0-0.4c0-0.4,0.1-0.6,0.3-0.8c0.1-0.1,0.3-0.2,0.5-0.1h0
		c0.7,0,0.7,0.6,0.7,1.1C18.5,18.6,18.5,19.2,17.7,19.2z M17.6,18.5l0.1,0c0.1,0,0.1,0,0.1-0.4l0-0.2l0-0.2l-0.1,0
		c-0.1,0-0.1,0-0.1,0.4l0,0.2L17.6,18.5z"/>
	<path class="st2" d="M18.9,18.7l-0.1,0c-0.1,0-0.2,0-0.3,0c-0.4,0-0.5,0-0.6-0.1c-0.1-0.1-0.1-0.2,0-0.3l0-0.2l0-0.2
		c0-0.1,0-0.2,0-0.3c0.1-0.1,0.2-0.1,0.6-0.1l0.1,0c0.4-0.1,0.5-0.1,0.7,0c0.1,0.1,0.1,0.2,0.1,0.3c0,0.1,0,0.1,0,0.2
		c0,0.1,0,0.2,0,0.2c0,0.1,0,0.2-0.1,0.3C19.1,18.7,19,18.7,18.9,18.7z M18.2,18.3l0.2,0c0.1,0,0.3,0,0.3,0l0.1,0l0-0.2
		c0-0.1,0-0.2,0-0.3c-0.1,0-0.2,0-0.3,0l-0.1,0c-0.1,0-0.2,0-0.2,0l0,0.2L18.2,18.3z"/>
	<path class="st2" d="M16.4,18.6c-0.1,0-0.2,0-0.3-0.1C16,18.4,16,18.3,16,18.2l0-0.1l0-0.1c0-0.1,0-0.2,0.1-0.3
		c0.1-0.1,0.3-0.1,0.8-0.1c0.2,0,0.3,0,0.4,0c0.2,0,0.3,0,0.4,0.1c0.1,0.1,0.1,0.2,0.1,0.3l0,0.1l0,0.1c0,0.1,0,0.2-0.1,0.3
		c-0.1,0.1-0.3,0.1-0.8,0.1c-0.2,0-0.3,0-0.4,0L16.4,18.6z M16.4,18L16.4,18v0.2l0.1,0c0.2,0,0.7,0,0.9,0l0-0.1l0-0.1l-0.1,0
		C17.1,18,16.6,18,16.4,18z"/>
	<path class="st2" d="M16.8,16c-3.3,4.6-7,8.7-11.2,11.3c-0.7,0.4-1.3,0.8-1.1,1.1c0.2,0.3,1.1,0.1,1.7-0.3C11.1,25.6,15.4,21,18,17
		"/>
	<path class="st4" d="M4.9,28.6c-0.2,0-0.3,0-0.4-0.2l0-0.2c0.1-0.3,0.6-0.6,1.1-0.9C9.3,25,13,21.3,16.8,16l0,0
		C13,21.3,9.4,25,5.6,27.3c-0.5,0.3-1.1,0.6-1.1,0.9l0,0.2c0.2,0.3,1.1,0.1,1.7-0.3c2.3-1.2,4.6-2.8,6.8-5c1.9-1.9,3.6-4,5-6.1l0,0
		c-1.4,2.1-3.1,4.3-5,6.1c-2.2,2.1-4.5,3.8-6.8,5C5.8,28.4,5.3,28.6,4.9,28.6z"/>
	<path class="st2" d="M18.1,17.1c0,0.1-0.4-0.1-0.8-0.4c-0.4-0.3-0.7-0.6-0.6-0.6c5.6-7.3,6.2-7.8,6.4-7.6
		C23.3,8.6,23,9.3,18.1,17.1z"/>
	<path class="st4" d="M18.1,17.1c-0.1,0-0.4-0.2-0.8-0.4c-0.3-0.2-0.6-0.5-0.6-0.6l0,0c4.9-6.4,6-7.6,6.3-7.6l0.1,0l0,0.1
		C23.2,8.8,22.5,10.1,18.1,17.1L18.1,17.1L18.1,17.1z M16.7,16.1L16.7,16.1c0,0,0.2,0.3,0.6,0.6c0.3,0.3,0.7,0.4,0.8,0.4l0,0l0,0
		l0,0c4.3-6.9,5.1-8.3,5-8.5l0,0l-0.1,0C22.7,8.5,21.6,9.7,16.7,16.1L16.7,16.1L16.7,16.1z"/>
	<path class="st2" d="M22.5,8.8c0,0,0.1,0.1,0.2,0.2s0.2,0.1,0.3,0.1"/>
	<path class="st4" d="M23,9.1c-0.1,0-0.2,0-0.3-0.1l-0.2-0.2l0,0L22.7,9C22.8,9.1,22.9,9.1,23,9.1L23,9.1z"/>
	<path class="st2" d="M22,9.4c0,0,0.1,0.2,0.3,0.3c0.2,0.1,0.3,0.2,0.4,0.2"/>
	<path class="st4" d="M22.7,9.9l-0.2-0.1l-0.2-0.1C22.1,9.6,22,9.4,22,9.4l0,0c0,0,0.1,0.2,0.3,0.3l0.2,0.1L22.7,9.9L22.7,9.9z"/>
	<polygon class="st4" points="22.1,10.6 22,9.4 22,9.4 22.1,10.6 	"/>
	<polygon class="st4" points="21.7,11.2 21.5,9.9 21.5,9.9 21.7,11.2 	"/>
	<rect x="21.2" y="10.4" transform="matrix(0.9806 -0.196 0.196 0.9806 -1.7732 4.3811)" class="st4" width="0" height="1.5"/>
	<polygon class="st4" points="21,12.5 20.7,10.9 20.7,10.9 21,12.5 	"/>
	<polygon class="st4" points="20.6,13.1 20.3,11.5 20.3,11.5 20.6,13.1 	"/>
	<polygon class="st4" points="20.2,13.7 19.9,12 19.9,12 20.2,13.7 	"/>
	<polygon class="st4" points="19.8,14.4 19.5,12.5 19.5,12.5 19.8,14.4 	"/>
	<rect x="19.2" y="13" transform="matrix(0.989 -0.1482 0.1482 0.989 -1.8627 3.0084)" class="st4" width="0" height="2"/>
	<polygon class="st4" points="19,15.6 18.7,13.5 18.7,13.5 19,15.6 	"/>
	<polygon class="st4" points="21.4,10.1 21.4,10.1 22.5,9.9 22.5,9.9 	"/>
	<polygon class="st4" points="20.9,10.7 20.9,10.7 22.2,10.4 22.2,10.4 	"/>
	<polygon class="st4" points="20.5,11.2 20.5,11.2 21.9,11 21.9,11 	"/>
	<rect x="20" y="11.6" transform="matrix(0.9806 -0.1961 0.1961 0.9806 -1.8818 4.2956)" class="st4" width="1.5" height="0"/>
	<polygon class="st4" points="19.5,12.4 19.5,12.4 21.2,12.1 21.2,12.1 	"/>
	<polygon class="st4" points="19.1,13 19.1,13 20.9,12.6 20.9,12.6 	"/>
	<rect x="18.6" y="13.4" transform="matrix(0.9785 -0.206 0.206 0.9785 -2.3412 4.315)" class="st4" width="1.9" height="0"/>
	<rect x="18.2" y="13.9" transform="matrix(0.9889 -0.1483 0.1483 0.9889 -1.8569 3.0025)" class="st4" width="2" height="0"/>
	<rect x="17.8" y="14.5" transform="matrix(0.9806 -0.1961 0.1961 0.9806 -2.4786 3.9685)" class="st4" width="2" height="0"/>
	<polygon class="st4" points="18.4,15.1 18.4,15.1 19.5,14.9 19.5,14.9 	"/>
	<polygon class="st4" points="18.4,15.1 18.3,14 18.3,14 18.4,15.1 	"/>
	<path class="st2" d="M18.2,17c0,0.1-0.4-0.1-0.8-0.4C17,16.3,16.7,16,16.7,16l1.1-1.4c0,0.1,0.2,0.3,0.6,0.6
		c0.4,0.2,0.7,0.4,0.7,0.3L18.2,17z"/>
	<path class="st4" d="M18.2,17c-0.1,0-0.4-0.2-0.8-0.4C17,16.3,16.7,16,16.7,16l0,0l1.1-1.4v0c0,0.1,0.2,0.3,0.6,0.6
		c0.1,0.1,0.2,0.1,0.3,0.2c0.2,0.1,0.3,0.2,0.4,0.2l0,0l0-0.1v0l0,0l0,0L18.2,17L18.2,17L18.2,17z M16.7,16c0,0,0.3,0.3,0.7,0.6
		c0.3,0.3,0.7,0.4,0.8,0.4l0,0l0,0l0,0l0.9-1.5c-0.1,0-0.2-0.1-0.4-0.2c-0.1,0-0.2-0.1-0.3-0.2c-0.4-0.3-0.6-0.5-0.6-0.6L16.7,16z"
		/>
	<path class="st2" d="M18.1,16.7c0,0.1-0.3-0.1-0.6-0.3C17.2,16.2,17,16,17,15.9l0.9-1.2c0,0,0.2,0.2,0.5,0.4
		c0.3,0.2,0.6,0.3,0.6,0.3L18.1,16.7z"/>
	<path class="st4" d="M18.1,16.7c-0.1,0-0.3-0.1-0.6-0.3C17.2,16.2,17,16,17,15.9l0,0l0.9-1.2l0,0c0,0,0.2,0.2,0.5,0.4
		c0.3,0.2,0.6,0.3,0.6,0.3l0,0l0,0L18.1,16.7L18.1,16.7L18.1,16.7z M17,15.9c0,0.1,0.2,0.3,0.5,0.5c0.2,0.1,0.5,0.3,0.6,0.3l0,0l0,0
		l0,0l0.9-1.3c-0.1,0-0.3-0.1-0.6-0.3c-0.3-0.2-0.5-0.4-0.5-0.4L17,15.9z"/>
	<rect x="17.4" y="15.5" transform="matrix(0.5746 -0.8184 0.8184 0.5746 -5.2817 21.4404)" class="st2" width="1.1" height="0.7"/>
	<path class="st4" d="M18,16.5L18,16.5l-0.6-0.4l0,0l0.6-0.9l0,0l0.6,0.4l0,0L18,16.5z M17.4,16l0.6,0.4l0.6-0.9L18,15.2L17.4,16z"
		/>
	<polygon class="st4" points="17.9,16.4 17.9,16.4 18,15.1 18,15.1 	"/>
	<rect x="17.2" y="15.8" transform="matrix(0.8944 -0.4472 0.4472 0.8944 -5.1763 9.6731)" class="st4" width="1.3" height="0"/>
	<path class="st2" d="M7.9,26.9c-0.3-0.1-0.7-0.2-1-0.3c-0.3,0-0.3,0-0.6,0.2c-0.5,0.4-1.2,0.8-1.6,1.1c-0.5,0.3-0.5,1,0.5,0.8
		C6.3,28.5,7,27.9,8,27.3C8.3,27.1,8.3,27.1,7.9,26.9z"/>
	<path class="st4" d="M4.9,28.7c-0.4,0-0.5-0.2-0.5-0.2c-0.1-0.2,0.1-0.5,0.3-0.6c0.2-0.1,0.4-0.3,0.6-0.4c0.3-0.2,0.7-0.4,1-0.7
		c0.3-0.2,0.3-0.2,0.6-0.2c0.2,0.1,0.3,0.1,0.5,0.1c0.2,0,0.4,0.1,0.5,0.2l0,0C8.1,27,8.2,27,8.2,27.1c0,0.1-0.1,0.1-0.2,0.2
		c-0.2,0.1-0.4,0.3-0.6,0.4c-0.7,0.5-1.3,0.8-2.2,1C5.1,28.7,5,28.7,4.9,28.7z M6.9,26.6c-0.3,0-0.3,0-0.6,0.2
		c-0.3,0.2-0.7,0.5-1,0.7c-0.2,0.2-0.5,0.3-0.6,0.4c-0.2,0.1-0.4,0.4-0.3,0.6c0.1,0.2,0.4,0.3,0.8,0.2c0.8-0.2,1.5-0.5,2.2-1
		c0.2-0.1,0.4-0.3,0.6-0.4c0.1-0.1,0.2-0.1,0.2-0.2c0,0-0.1-0.1-0.3-0.2c-0.1,0-0.3-0.1-0.5-0.1C7.2,26.7,7,26.7,6.9,26.6z"/>
	<path class="st2" d="M6.5,26.9c-0.3,0.2-1.2,0.9-1.6,1.1c-0.3,0.2-0.5,0.5-0.1,0.5c0.4,0.1,1.2-0.2,2.6-1.2
		c0.2-0.1,0.5-0.2,0.1-0.4c-0.4-0.1-0.6-0.2-0.7-0.2C6.7,26.8,6.6,26.8,6.5,26.9z"/>
	<path class="st4" d="M5,28.5l-0.2,0h0c-0.1,0-0.2,0-0.2-0.1c0-0.1,0.1-0.3,0.3-0.4c0.3-0.1,0.8-0.5,1.2-0.8
		c0.2-0.1,0.3-0.2,0.4-0.3l0.2-0.1l0.1-0.1l0,0h0c0.1,0,0.1,0,0.2,0.1c0.1,0,0.3,0.1,0.5,0.1C7.6,27,7.7,27,7.7,27.1
		c0,0.1-0.1,0.1-0.2,0.2l-0.1,0C6.3,28.1,5.5,28.5,5,28.5z M6.8,26.7l-0.1,0.1l-0.1,0.1l0,0c-0.1,0.1-0.2,0.2-0.4,0.3
		c-0.4,0.3-0.9,0.7-1.2,0.8c-0.2,0.1-0.3,0.3-0.3,0.4c0,0.1,0.1,0.1,0.2,0.1l0.2,0c0.5,0,1.3-0.4,2.4-1.2l0.1,0
		c0.1-0.1,0.2-0.1,0.2-0.2c0-0.1-0.1-0.1-0.2-0.2c-0.2,0-0.3-0.1-0.5-0.1C6.9,26.7,6.9,26.7,6.8,26.7z"/>
	<path class="st4" d="M7.8,26.9L7.8,26.9l0-0.2c0-0.2,0-0.3,0-0.4l0,0h0l0,0l0,0l0,0l0,0.1c0.1,0.1,0.3,0.1,0.5-0.1
		c0.2-0.2,0.2-0.3,0.1-0.4l-0.2,0l0,0l0,0l0.2,0.1c0.1,0.1,0.1,0.3-0.1,0.5c-0.2,0.2-0.4,0.2-0.5,0.1l-0.1-0.1c0,0.1,0,0.2,0,0.3
		L7.8,26.9L7.8,26.9z"/>
	<path class="st4" d="M9.1,25.6c-0.1,0-0.2,0-0.3-0.1l0-0.1l-0.1,0.1l-0.1,0.1h0v0l0.2-0.1l0.1-0.1l0,0l0,0l0,0.1
		c0.1,0.1,0.3,0.1,0.5,0.1c0.1-0.1,0.2-0.2,0.2-0.2l-0.1-0.1l0,0l0,0c0.1,0,0.1,0.1,0.1,0.2c0,0.1-0.1,0.2-0.2,0.3L9.1,25.6z"/>
	<path class="st4" d="M9.4,25.6L9.4,25.6L9.4,25.6l0.2,0c0.1,0,0.2,0,0.2-0.1l0,0l0,0c-0.1,0.1-0.2,0.1-0.2,0.1L9.4,25.6L9.4,25.6z"
		/>
	<path class="st4" d="M9.8,25.2L9.8,25.2l-0.1-0.2c0-0.1,0.1-0.3,0.2-0.5c0.1-0.1,0.2-0.1,0.3-0.1l0.1,0c0.1,0,0.3,0.1,0.3,0.2l0,0
		l0,0c0-0.1-0.2-0.2-0.3-0.2c-0.1,0-0.3,0-0.4,0.1c-0.1,0.1-0.2,0.3-0.2,0.4L9.8,25.2L9.8,25.2L9.8,25.2z"/>
	<path class="st4" d="M9.4,25L9.4,25L9.4,25c0.1,0,0.3,0,0.3-0.2h0C9.7,25,9.5,25,9.4,25z"/>
	<path class="st4" d="M10.7,24.4L10.7,24.4L10.7,24.4L10.7,24.4l0.1-0.1l0.1-0.1l-0.2-0.1c-0.1-0.1-0.1-0.2,0-0.3
		c0-0.2,0.2-0.4,0.4-0.4c0.2,0,0.3,0.1,0.3,0.2h0c0-0.1-0.1-0.2-0.3-0.2c-0.2,0-0.4,0.2-0.4,0.4c-0.1,0.1-0.1,0.2,0,0.3l0.2,0.1l0,0
		l0,0l-0.1,0.1L10.7,24.4z"/>
	<path class="st4" d="M11,23.6L11,23.6L11,23.6c0.1,0,0.2-0.1,0.2-0.2l0-0.2v0h0l0,0.2C11.2,23.5,11.1,23.6,11,23.6z"/>
	<path class="st4" d="M11.5,23.7L11.5,23.7L11.5,23.7c0-0.1,0-0.2,0-0.3l0-0.1l0,0l0-0.2h0l0,0l0,0l0,0.2c0,0.1,0.1,0.1,0.2,0.1
		c0.3,0,0.5-0.2,0.5-0.4c0-0.1,0.1-0.2,0-0.2c0-0.1-0.1-0.1-0.2-0.1l0,0l0,0c0.1,0,0.2,0,0.2,0.1c0,0.1,0,0.1,0,0.2
		c0,0.2-0.2,0.4-0.5,0.4c-0.1,0-0.2,0-0.2-0.1l0,0C11.5,23.5,11.6,23.7,11.5,23.7L11.5,23.7z"/>
	<path class="st4" d="M12.3,22.7L12.3,22.7c0-0.1,0-0.2,0.1-0.3l0.1-0.2l0,0l0,0l0,0c0,0.1,0,0.2,0,0.2l0.2,0l0.1-0.1
		c0.1-0.1,0.3-0.3,0.2-0.4l0,0l0,0c0.1,0.2-0.1,0.3-0.2,0.5l-0.1,0.1l-0.3,0l-0.1-0.1l-0.1,0.1C12.3,22.5,12.3,22.6,12.3,22.7
		L12.3,22.7z"/>
	<path class="st4" d="M5.3,28.5L5.3,28.5c-0.1-0.1-0.1-0.1-0.1-0.2l0-0.1c0.1-0.2,0.2-0.1,0.2-0.1l0.1,0l0,0l0.1,0.2l0.2-0.1
		c-0.1-0.1-0.1-0.3,0-0.4c0.1-0.1,0.3-0.1,0.4,0l0-0.1c0-0.1,0-0.2,0-0.3l0,0l0,0c0.1,0,0.3,0.2,0.3,0.3l0,0.2
		c0.1,0,0.2-0.1,0.2-0.1l0.1-0.1l-0.1-0.1c0-0.1,0-0.2,0.1-0.2l0.2,0c0.1,0,0.2,0,0.3-0.1c0,0,0-0.2-0.2-0.2l-0.3,0.1
		c-0.1,0.1-0.3,0.1-0.4,0l0,0l0,0c0.1,0.1,0.2,0.1,0.3,0l0.3-0.1c0.2,0,0.2,0.2,0.2,0.2c-0.1,0.1-0.2,0.1-0.3,0.1l-0.2,0
		c-0.1,0.1-0.1,0.1-0.1,0.2l0.1,0.1l0,0l0,0l-0.1,0.1c-0.1,0.1-0.2,0.1-0.3,0.1l0,0l0,0c0.1,0,0.1-0.1,0.1-0.2
		c0-0.1-0.1-0.3-0.2-0.3c0.1,0.1,0,0.2,0,0.3l0,0.1l0,0l0,0c-0.1-0.1-0.3-0.1-0.4,0c-0.1,0.1-0.1,0.3,0,0.4l0,0l0,0
		c-0.1,0-0.2,0.1-0.3,0.2h0l0,0l0,0c0.1-0.1,0.1-0.2,0-0.3l-0.1,0c-0.1,0-0.1,0-0.2,0.1C5.2,28.2,5.1,28.4,5.3,28.5L5.3,28.5
		L5.3,28.5z"/>
	<path class="st4" d="M4.9,28.5l-0.1-0.1l0.1-0.1l0,0l0,0l-0.1,0.1L4.9,28.5c0.1,0,0.3-0.1,0.3-0.2l0-0.1v0h0l0,0.1
		C5.2,28.4,5,28.5,4.9,28.5z"/>
	<path class="st4" d="M5.8,27.7L5.8,27.7L5.8,27.7c0.1-0.1,0.2-0.2,0.1-0.3v0h0C6,27.5,5.9,27.6,5.8,27.7L5.8,27.7z"/>
	<path class="st4" d="M6,28.3L6,28.3c0-0.1,0-0.2-0.1-0.2l0,0l0,0C6,28.1,6,28.2,6,28.3L6,28.3z"/>
	<path class="st4" d="M22.6,9.2c-0.1-0.1-0.3,0.1-0.1,0.2C22.6,9.4,22.7,9.2,22.6,9.2z"/>
	<path class="st4" d="M22.5,9.4L22.5,9.4c-0.1-0.1-0.1-0.1-0.1-0.2l0.1-0.1l0.1,0l0,0l0,0.1C22.7,9.3,22.6,9.4,22.5,9.4z M22.5,9.2
		L22.5,9.2L22.5,9.2l0,0.1L22.5,9.2L22.5,9.2L22.5,9.2L22.5,9.2L22.5,9.2z"/>
	<path class="st2" d="M13.1,16c3.3,4.6,7,8.7,11.2,11.3c0.7,0.4,1.3,0.8,1.1,1.1c-0.2,0.3-1.1,0.1-1.7-0.3
		C18.8,25.6,14.4,21,11.9,17"/>
	<path class="st4" d="M25,28.6c-0.4,0-0.9-0.2-1.3-0.4c-2.3-1.2-4.6-2.9-6.8-5c-2-1.9-3.7-4-5-6.1l0,0c1.3,2.1,3,4.2,5,6.1
		c2.2,2.1,4.5,3.8,6.8,5c0.5,0.3,1.1,0.5,1.5,0.4c0.1,0,0.2-0.1,0.2-0.1l0-0.2c-0.1-0.3-0.6-0.6-1.1-0.9c-3.7-2.3-7.4-6-11.2-11.3
		l0,0c3.8,5.3,7.5,9,11.2,11.3c0.6,0.3,1.1,0.6,1.1,0.9l0,0.2c0,0.1-0.1,0.1-0.2,0.1L25,28.6z"/>
	<path class="st2" d="M11.8,17.1c0,0.1,0.4-0.1,0.8-0.4c0.4-0.3,0.7-0.6,0.6-0.6C7.6,8.8,7,8.3,6.8,8.4C6.6,8.6,6.8,9.3,11.8,17.1z"
		/>
	<path class="st4" d="M11.8,17.1L11.8,17.1L11.8,17.1c-5-7.8-5.3-8.5-5-8.7l0,0c0.3,0,1.1,0.9,6.4,7.7l0,0c0,0.1-0.3,0.4-0.6,0.6
		C12.3,17,11.9,17.1,11.8,17.1z M6.8,8.4L6.8,8.4c-0.2,0.2,0,1,5,8.7l0,0l0,0l0,0c0.1,0,0.4-0.2,0.8-0.4c0.4-0.3,0.6-0.5,0.6-0.6
		l0,0h0l0,0C7.9,9.3,7.1,8.4,6.8,8.4z"/>
	<path class="st2" d="M7.4,8.8c0,0-0.1,0.1-0.2,0.2C7.1,9.1,7,9.2,6.9,9.2"/>
	<path class="st4" d="M6.9,9.2L6.9,9.2C7,9.2,7.1,9.1,7.2,9c0.1-0.1,0.2-0.2,0.2-0.2l0,0c0,0-0.1,0.1-0.2,0.2S7,9.2,6.9,9.2z"/>
	<path class="st2" d="M7.9,9.4c0,0-0.1,0.2-0.3,0.3C7.5,9.8,7.3,9.9,7.3,9.9"/>
	<path class="st4" d="M7.3,9.9L7.3,9.9c0,0,0.2-0.1,0.3-0.2c0.2-0.1,0.3-0.3,0.3-0.3l0,0c0,0-0.1,0.2-0.3,0.3
		C7.5,9.8,7.3,9.9,7.3,9.9z"/>
	<polygon class="st4" points="7.8,10.6 7.8,10.6 7.9,9.4 7.9,9.4 	"/>
	<polygon class="st4" points="8.1,11.2 8.1,11.2 8.4,9.9 8.4,9.9 	"/>
	<rect x="7.9" y="11.1" transform="matrix(0.1961 -0.9806 0.9806 0.1961 -3.9799 17.4452)" class="st4" width="1.5" height="0"/>
	<polygon class="st4" points="8.9,12.5 8.9,12.5 9.2,10.9 9.2,10.9 	"/>
	<polygon class="st4" points="9.3,13.1 9.3,13.1 9.6,11.5 9.6,11.5 	"/>
	<polygon class="st4" points="9.7,13.7 9.7,13.7 10,12 10,12 	"/>
	<polygon class="st4" points="10.1,14.4 10.1,14.4 10.4,12.5 10.4,12.5 	"/>
	<rect x="9.6" y="14" transform="matrix(0.1483 -0.9889 0.9889 0.1483 -4.775 22.4553)" class="st4" width="2" height="0"/>
	<polygon class="st4" points="10.9,15.6 10.9,15.6 11.2,13.5 11.2,13.5 	"/>
	<polygon class="st4" points="8.5,10.1 7.3,9.9 7.3,9.9 8.5,10.1 	"/>
	<polygon class="st4" points="9,10.7 7.7,10.4 7.7,10.4 9,10.7 	"/>
	<polygon class="st4" points="9.4,11.2 8,11 8,11 9.4,11.2 	"/>
	<polygon class="st4" points="9.9,11.8 8.3,11.5 8.3,11.5 9.9,11.8 	"/>
	<polygon class="st4" points="10.4,12.4 8.7,12.1 8.7,12.1 10.4,12.4 	"/>
	<polygon class="st4" points="10.8,13 9,12.6 9,12.6 10.8,13 	"/>
	<rect x="10.3" y="12.4" transform="matrix(0.206 -0.9786 0.9786 0.206 -4.8947 20.768)" class="st4" width="0" height="1.9"/>
	<rect x="10.7" y="12.9" transform="matrix(0.1485 -0.9889 0.9889 0.1485 -4.6839 22.4602)" class="st4" width="0" height="2"/>
	<rect x="11.1" y="13.5" transform="matrix(0.1963 -0.9805 0.9805 0.1963 -5.2967 22.5378)" class="st4" width="0" height="2"/>
	<polygon class="st4" points="11.5,15.1 10.4,14.9 10.4,14.9 11.5,15.1 	"/>
	<polygon class="st4" points="11.5,15.1 11.5,15.1 11.6,14 11.6,14 	"/>
	<path class="st2" d="M11.7,17c0,0.1,0.4-0.1,0.8-0.4c0.4-0.3,0.7-0.6,0.6-0.6L12,14.5c0,0.1-0.2,0.3-0.6,0.6
		c-0.4,0.2-0.7,0.4-0.7,0.3L11.7,17z"/>
	<path class="st4" d="M11.7,17L11.7,17L11.7,17l-1-1.6l0,0l0,0v0l0,0.1l0,0c0.1,0,0.2-0.1,0.4-0.2c0.1,0,0.2-0.1,0.3-0.2
		c0.4-0.3,0.6-0.5,0.6-0.6v0l1.1,1.5l0,0c0,0.1-0.3,0.4-0.6,0.6C12.2,16.9,11.8,17,11.7,17z M10.7,15.4l1,1.6l0,0
		c0.1,0,0.4-0.1,0.8-0.4c0.4-0.3,0.6-0.5,0.6-0.6l0,0h0l0,0L12,14.5c0,0.1-0.2,0.3-0.6,0.6c-0.1,0.1-0.2,0.1-0.3,0.2
		C10.9,15.4,10.8,15.4,10.7,15.4z"/>
	<path class="st2" d="M11.8,16.7c0,0.1,0.3-0.1,0.6-0.3c0.3-0.2,0.5-0.4,0.5-0.5L12,14.8c0,0-0.2,0.2-0.5,0.4
		c-0.3,0.2-0.6,0.3-0.6,0.3L11.8,16.7z"/>
	<path class="st4" d="M11.8,16.7L11.8,16.7L11.8,16.7l-0.9-1.2l0,0c0,0,0.3-0.1,0.6-0.3c0.3-0.2,0.5-0.4,0.5-0.4l0,0l0,0l0.9,1.1
		c0,0.1-0.2,0.3-0.5,0.5C12.1,16.6,11.9,16.7,11.8,16.7z M10.9,15.5l0.9,1.2l0,0l0,0c0.1,0,0.3-0.2,0.6-0.3c0.3-0.2,0.5-0.4,0.5-0.5
		L12,14.8c0,0-0.2,0.2-0.5,0.4C11.2,15.4,11,15.5,10.9,15.5z"/>
	<rect x="11.6" y="15.2" transform="matrix(0.8185 -0.5745 0.5745 0.8185 -6.8933 9.7154)" class="st2" width="0.7" height="1.1"/>
	<path class="st4" d="M12,16.4L12,16.4l-0.6-0.9l0,0l0.6-0.4l0,0l0.6,0.9l0,0L12,16.4z M11.3,15.5l0.6,0.9l0.6-0.4l-0.6-0.9
		L11.3,15.5z"/>
	<polygon class="st4" points="12,16.4 11.9,15.1 11.9,15.1 12,16.4 	"/>
	<rect x="12" y="15.1" transform="matrix(0.4472 -0.8944 0.8944 0.4472 -7.4986 19.4672)" class="st4" width="0" height="1.3"/>
	<path class="st2" d="M22,26.9c0.3-0.1,0.7-0.2,1-0.3c0.3,0,0.3,0,0.6,0.2c0.5,0.4,1.2,0.8,1.6,1.1c0.5,0.3,0.5,1-0.5,0.8
		c-1.1-0.2-1.8-0.8-2.7-1.4C21.6,27.1,21.6,27.1,22,26.9z"/>
	<path class="st4" d="M25,28.7c-0.1,0-0.2,0-0.3,0c-0.9-0.2-1.6-0.6-2.3-1.1c-0.1-0.1-0.3-0.2-0.4-0.3c-0.2-0.1-0.3-0.2-0.3-0.2
		s0.1-0.1,0.3-0.2l0,0c0.1-0.1,0.3-0.1,0.5-0.1c0.2,0,0.3-0.1,0.5-0.1h0c0.3,0,0.3,0,0.6,0.2c0.3,0.2,0.7,0.5,1,0.7
		c0.2,0.2,0.5,0.3,0.6,0.4c0.3,0.2,0.4,0.4,0.3,0.6C25.5,28.6,25.4,28.7,25,28.7z M22,26.9c-0.2,0.1-0.3,0.1-0.3,0.2
		s0.1,0.1,0.3,0.2c0.2,0.1,0.3,0.2,0.4,0.3c0.7,0.5,1.3,0.9,2.3,1.1c0.4,0.1,0.7,0,0.8-0.2c0.1-0.2-0.1-0.4-0.3-0.6
		c-0.2-0.1-0.4-0.3-0.6-0.4c-0.3-0.2-0.7-0.4-1-0.7c-0.3-0.2-0.3-0.2-0.6-0.2c-0.1,0-0.3,0.1-0.5,0.1C22.3,26.8,22.2,26.9,22,26.9z"
		/>
	<path class="st2" d="M23.4,26.9c0.3,0.2,1.2,0.9,1.6,1.1c0.3,0.2,0.5,0.5,0.1,0.5c-0.4,0.1-1.2-0.2-2.6-1.2
		c-0.2-0.1-0.5-0.2-0.1-0.4c0.4-0.1,0.6-0.2,0.7-0.2C23.2,26.8,23.3,26.8,23.4,26.9z"/>
	<path class="st4" d="M24.9,28.5c-0.5,0-1.3-0.4-2.4-1.2l-0.1,0c-0.1-0.1-0.2-0.1-0.2-0.2c0-0.1,0.1-0.1,0.2-0.2
		c0.2-0.1,0.4-0.1,0.5-0.1c0.1,0,0.2-0.1,0.2-0.1h0l0,0l0.1,0.1l0.2,0.1c0.1,0.1,0.2,0.2,0.4,0.3c0.4,0.3,0.9,0.7,1.2,0.8
		c0.2,0.1,0.4,0.3,0.3,0.4c0,0.1-0.1,0.1-0.2,0.1L24.9,28.5z M23.1,26.7c0,0-0.1,0-0.2,0.1c-0.1,0-0.3,0.1-0.5,0.1
		c-0.1,0.1-0.2,0.1-0.2,0.2c0,0.1,0.1,0.1,0.2,0.2l0.1,0c1.1,0.8,1.9,1.2,2.4,1.2l0.2,0c0.1,0,0.2,0,0.2-0.1c0-0.1-0.1-0.3-0.3-0.4
		c-0.3-0.1-0.8-0.5-1.2-0.8c-0.2-0.1-0.3-0.2-0.4-0.3l0,0l-0.1-0.1L23.1,26.7z"/>
	<path class="st4" d="M22.1,26.9L22.1,26.9l0-0.2c0-0.1,0-0.2,0-0.3l0,0l-0.2,0.2c-0.1,0-0.2,0-0.4-0.1c-0.2-0.2-0.2-0.4-0.1-0.5
		l0.2-0.1l0,0l0,0l-0.2,0c-0.1,0.1-0.1,0.3,0.1,0.4c0.1,0.1,0.3,0.1,0.3,0.1l0.2-0.1l0-0.1l0,0l0,0l0,0h0l0,0c0.1,0.1,0,0.2,0,0.4
		L22.1,26.9L22.1,26.9z"/>
	<path class="st4" d="M20.7,25.6l-0.2,0c-0.1-0.1-0.2-0.2-0.2-0.3c0,0,0-0.1,0.1-0.2l0,0l0,0l-0.1,0.1c0,0.1,0.1,0.2,0.2,0.2
		c0.1,0.1,0.4,0,0.5-0.1l0-0.1l0,0l0,0l0.1,0.1l0.2,0.1v0h0l-0.1-0.1L21,25.4l0,0.1C20.9,25.6,20.8,25.6,20.7,25.6z"/>
	<path class="st4" d="M20.5,25.6L20.5,25.6l-0.2,0c-0.1,0-0.2,0-0.2-0.1l0,0l0,0c0.1,0.1,0.1,0.1,0.2,0.1L20.5,25.6L20.5,25.6
		L20.5,25.6z"/>
	<path class="st4" d="M20.1,25.2L20.1,25.2L20.1,25.2l0.1-0.2c0-0.1-0.1-0.3-0.2-0.4c-0.1-0.1-0.2-0.1-0.4-0.1
		c-0.1,0-0.3,0.1-0.3,0.2l0,0l0,0c0.1-0.1,0.2-0.2,0.3-0.2c0.2,0,0.3,0,0.4,0.1c0.1,0.1,0.2,0.3,0.2,0.5L20.1,25.2L20.1,25.2z"/>
	<polygon class="st4" points="20.4,25 20.3,24.9 20.2,24.8 20.2,24.8 20.3,24.9 20.5,24.9 20.5,24.9 20.5,24.9 	"/>
	<path class="st4" d="M19.2,24.4l-0.1-0.1L19,24.3l0,0l0,0l0.2-0.1c0-0.1,0-0.2,0-0.3c0-0.2-0.2-0.4-0.4-0.4c-0.2,0-0.3,0.1-0.3,0.2
		h0c0-0.1,0.1-0.2,0.3-0.2c0.2,0,0.4,0.2,0.4,0.4c0.1,0.1,0.1,0.2,0,0.3l-0.2,0.1l0.1,0.1L19.2,24.4L19.2,24.4L19.2,24.4L19.2,24.4z
		"/>
	<path class="st4" d="M18.9,23.6c-0.1,0-0.2-0.1-0.2-0.1l0-0.2h0v0l0,0.2C18.7,23.5,18.8,23.6,18.9,23.6L18.9,23.6L18.9,23.6z"/>
	<path class="st4" d="M18.4,23.7L18.4,23.7c-0.1-0.1,0-0.2,0-0.3l0,0l-0.2,0.1c-0.3,0-0.5-0.2-0.5-0.4l0-0.2c0-0.1,0.1-0.1,0.2-0.1
		l0,0l0,0c-0.1,0-0.2,0-0.2,0.1l0,0.2c0,0.2,0.2,0.4,0.5,0.4c0.1,0,0.2-0.1,0.2-0.1l0-0.2l0,0l0,0h0l0,0.2l0,0l0,0.1
		C18.4,23.5,18.4,23.6,18.4,23.7L18.4,23.7L18.4,23.7z"/>
	<path class="st4" d="M24.6,28.5L24.6,28.5L24.6,28.5c0.2-0.1,0.1-0.3,0.1-0.3c-0.1-0.1-0.1-0.1-0.2-0.1l-0.1,0
		c-0.1,0.1-0.1,0.2,0,0.3l0,0l0,0h0c-0.1-0.1-0.2-0.2-0.3-0.2l0,0l0,0l0.1-0.2l-0.1-0.2c-0.1-0.1-0.3-0.1-0.4,0l0,0l0,0l0-0.1
		c0-0.1,0-0.2,0-0.3c-0.1,0-0.2,0.2-0.2,0.3c0,0.1,0,0.2,0.1,0.2l0,0l0,0c-0.1,0-0.2-0.1-0.3-0.1l-0.1-0.1l0,0l0,0l0.1-0.1
		c0-0.1,0-0.1-0.1-0.2l-0.2,0c-0.1,0-0.2,0-0.3-0.1c0,0,0-0.2,0.2-0.2l0.3,0.1c0.1,0.1,0.3,0.1,0.3,0l0,0l0,0
		c-0.1,0.1-0.2,0.1-0.4,0l-0.3-0.1c-0.2,0-0.2,0.2-0.2,0.2c0.1,0.1,0.2,0.1,0.3,0.1l0.2,0c0.1,0.1,0.2,0.1,0.1,0.2l-0.1,0.1l0.1,0.1
		c0.1,0.1,0.1,0.1,0.2,0.1l0-0.2c0-0.1,0.2-0.3,0.3-0.3l0,0l0,0c-0.1,0.1,0,0.2,0,0.3l0,0.1c0.1-0.1,0.3-0.1,0.4,0l0.1,0.2l-0.1,0.2
		l0.2,0.1l0.1-0.2l0,0l0.1,0c0.1,0,0.2,0,0.2,0.1C24.7,28.2,24.8,28.4,24.6,28.5L24.6,28.5z"/>
	<path class="st4" d="M24.9,28.5c-0.1,0-0.3-0.1-0.3-0.2l0-0.1h0v0l0,0.1C24.6,28.4,24.8,28.5,24.9,28.5L24.9,28.5l0.1-0.1l-0.1-0.1
		l0,0l0,0l0.1,0.1L24.9,28.5z"/>
	<path class="st4" d="M24.1,27.7L24.1,27.7c-0.1-0.1-0.2-0.2-0.1-0.3h0v0C23.9,27.5,24,27.6,24.1,27.7L24.1,27.7L24.1,27.7z"/>
	<path class="st4" d="M23.9,28.3L23.9,28.3c0-0.1,0-0.2,0.1-0.2l0,0l0,0C23.9,28.1,23.9,28.2,23.9,28.3L23.9,28.3z"/>
	<path class="st4" d="M7.3,9.2c0.1-0.1,0.2,0.1,0.1,0.2C7.3,9.4,7.2,9.2,7.3,9.2z"/>
	<path class="st4" d="M7.4,9.4L7.4,9.4c-0.1,0-0.2-0.1-0.2-0.2l0-0.1l0,0l0.1,0l0.1,0L7.4,9.4L7.4,9.4z M7.3,9.2L7.3,9.2L7.3,9.2
		l0.1,0.1L7.3,9.2L7.3,9.2L7.3,9.2L7.3,9.2z"/>
	<path class="st4" d="M17.6,22.8L17.6,22.8L17.6,22.8l0.1-0.2c0-0.1-0.1-0.3-0.2-0.4c-0.1-0.1-0.2-0.1-0.4-0.1
		c-0.1,0-0.3,0.1-0.3,0.2l0,0l0,0c0.1-0.1,0.2-0.2,0.3-0.2c0.2,0,0.3,0,0.4,0.1c0.1,0.1,0.2,0.3,0.2,0.5L17.6,22.8L17.6,22.8z"/>
	<polygon class="st4" points="17.9,22.6 17.8,22.5 17.7,22.4 17.7,22.4 17.8,22.5 18,22.5 18,22.5 18,22.5 	"/>
	<path class="st4" d="M16.7,22L16.7,22c-0.1-0.1,0-0.2,0-0.3l0,0c0,0-0.1,0.1-0.2,0.1c-0.3,0-0.5-0.2-0.5-0.4l0-0.2
		c0-0.1,0.1-0.1,0.2-0.1l0,0l0,0c-0.1,0-0.2,0-0.2,0.1l0,0.2c0,0.2,0.2,0.4,0.5,0.4c0.1,0,0.2-0.1,0.2-0.1l0-0.2l0,0l0,0h0l0,0.2
		l0,0l0,0.1C16.7,21.8,16.7,21.9,16.7,22L16.7,22L16.7,22z"/>
	<path class="st2" d="M13.9,22.3v-8.2c0.6-0.4,0.8-0.6,0.8-2c0-0.4,0-0.7-0.1-0.9h1c-0.1,0.2-0.1,0.5-0.1,1c0,1.4,0.3,1.6,0.8,2v5.7
		C16.3,21.1,16,22.3,13.9,22.3z"/>
	<path class="st4" d="M13.9,22.3L13.9,22.3l0-8.2l0,0c0.6-0.4,0.8-0.6,0.8-2c0-0.4,0-0.7-0.1-0.9l0,0l0,0h1l0,0l0,0
		c-0.1,0.2-0.1,0.5-0.1,1c0,1.4,0.3,1.6,0.8,2l0,0l0,0v5.7C16.3,21.1,16,22.3,13.9,22.3z M13.9,14.1v8.2c2.1,0,2.4-1.2,2.4-2.4v-5.7
		l0,0c-0.5-0.4-0.8-0.6-0.8-2c0-0.5,0-0.8,0.1-1h-1c0.1,0.2,0.1,0.5,0.1,0.9C14.7,13.5,14.5,13.7,13.9,14.1z"/>
	<path class="st4" d="M15.1,11.7c-0.1,0-0.2,0-0.3,0l-0.1-0.1h0C14.7,11.6,14.9,11.7,15.1,11.7c0.2,0,0.4-0.1,0.4-0.1h0L15.1,11.7z"
		/>
	<path class="st4" d="M15.1,12.1c-0.1,0-0.2,0-0.3,0L14.7,12h0C14.7,12,14.9,12.1,15.1,12.1c0.2,0,0.4-0.1,0.4-0.1h0L15.1,12.1z"/>
	<path class="st4" d="M15.1,12.4c-0.1,0-0.2,0-0.3,0l-0.1-0.1h0C14.7,12.3,14.9,12.4,15.1,12.4c0.2,0,0.4-0.1,0.4-0.1h0L15.1,12.4z"
		/>
	<path class="st4" d="M15.1,12.8c-0.1,0-0.2,0-0.3,0l-0.1-0.1h0C14.7,12.7,14.9,12.8,15.1,12.8c0.2,0,0.4-0.1,0.4-0.1h0L15.1,12.8z"
		/>
	<path class="st4" d="M15.1,14.2L15.1,14.2c-0.3-0.3-0.5-0.9-0.5-1.1h0c0,0,0.2,0.1,0.4,0.1c0.3,0,0.4,0,0.4-0.1l0,0l0,0
		C15.6,13.4,15.4,13.9,15.1,14.2L15.1,14.2z M14.6,13.1c0,0.2,0.2,0.8,0.5,1.1c0.3-0.3,0.5-0.8,0.4-1.1L15,13.2c-0.1,0-0.2,0-0.3,0
		L14.6,13.1z"/>
	<ellipse class="st2" cx="15.1" cy="10.4" rx="1.2" ry="0.9"/>
	<path class="st4" d="M15.1,11.3c-0.7,0-1.2-0.4-1.2-0.9s0.5-0.9,1.2-0.9s1.2,0.4,1.2,0.9S15.8,11.3,15.1,11.3z M15.1,9.5
		c-0.7,0-1.2,0.4-1.2,0.9s0.5,0.9,1.2,0.9s1.2-0.4,1.2-0.9S15.8,9.5,15.1,9.5z"/>
	<path class="st2" d="M15.1,9.2c-0.4,0-0.4,0.5,0,0.5C15.5,9.6,15.5,9.2,15.1,9.2z"/>
	<path class="st4" d="M15.1,9.7c-0.2,0-0.3-0.1-0.3-0.3l0.1-0.2c0.1-0.1,0.1-0.1,0.2-0.1c0.2,0,0.3,0.1,0.3,0.2
		C15.4,9.5,15.3,9.7,15.1,9.7L15.1,9.7z M15.1,9.2c-0.1,0-0.2,0-0.2,0.1l-0.1,0.2c0,0.1,0.1,0.2,0.3,0.2c0.2-0.1,0.3-0.2,0.3-0.3
		C15.4,9.3,15.3,9.2,15.1,9.2z"/>
	<path class="st2" d="M14,10.1c-0.4,0-0.4,0.5,0,0.5S14.4,10.1,14,10.1z"/>
	<path class="st4" d="M14,10.6c-0.2,0-0.3-0.1-0.3-0.3l0.1-0.2c0.1-0.1,0.1-0.1,0.2-0.1c0.2,0,0.3,0.1,0.3,0.3l-0.1,0.2
		C14.2,10.6,14.1,10.6,14,10.6z M14,10.1c-0.1,0-0.2,0-0.2,0.1l-0.1,0.2c0,0.1,0.1,0.2,0.3,0.2c0.1,0,0.2,0,0.2-0.1l0.1-0.2
		C14.3,10.2,14.2,10.1,14,10.1z"/>
	<path class="st2" d="M16.2,10.1c0.4,0,0.4,0.5,0,0.5C15.8,10.7,15.8,10.1,16.2,10.1z"/>
	<path class="st4" d="M16.1,10.6l-0.2-0.1c-0.1-0.1-0.1-0.2,0-0.3c0.1-0.1,0.2-0.2,0.3-0.2c0.2,0,0.3,0.1,0.3,0.3l-0.1,0.2
		C16.4,10.6,16.3,10.6,16.1,10.6L16.1,10.6z M16.2,10.1c-0.1,0-0.2,0.1-0.3,0.2c0,0.1,0,0.2,0,0.3c0.1,0.1,0.1,0.1,0.2,0.1
		c0.1,0,0.2,0,0.2-0.1l0.1-0.2C16.5,10.2,16.4,10.1,16.2,10.1z"/>
	<path class="st2" d="M15.1,10.1c-0.4,0-0.4,0.5,0,0.5C15.5,10.7,15.5,10.1,15.1,10.1z"/>
	<path class="st4" d="M15.2,10.6L15.2,10.6L15.2,10.6c-0.3,0-0.4-0.1-0.4-0.3l0.1-0.2c0.1-0.1,0.1-0.1,0.2-0.1
		c0.1,0,0.2,0.1,0.3,0.2c0,0.1,0,0.2,0,0.3L15.2,10.6z M15.1,10.1c-0.1,0-0.2,0-0.2,0.1l-0.1,0.2c0,0.1,0.1,0.2,0.3,0.2
		c0.1,0,0.2,0,0.2-0.1c0.1-0.1,0.1-0.2,0-0.3C15.3,10.2,15.2,10.1,15.1,10.1z"/>
	<path class="st4" d="M14.3,11L14.3,11c0.1-0.1,0.2-0.4,0.2-0.6s-0.1-0.5-0.2-0.6l0,0c0.1,0.1,0.2,0.4,0.2,0.6S14.4,10.9,14.3,11z"
		/>
	<path class="st4" d="M14.5,11.2L14.5,11.2c0.2-0.2,0.2-0.5,0.2-0.8c0-0.2-0.1-0.5-0.2-0.8l0,0c0.1,0.3,0.2,0.6,0.2,0.8
		C14.7,10.7,14.7,11,14.5,11.2z"/>
	<path class="st4" d="M16,11c-0.1-0.1-0.2-0.4-0.2-0.6s0.1-0.5,0.2-0.6l0,0c-0.1,0.1-0.2,0.4-0.2,0.6S15.9,10.9,16,11L16,11z"/>
	<path class="st4" d="M15.8,11.2c-0.2-0.2-0.2-0.5-0.2-0.8c0-0.4,0.1-0.7,0.2-0.8l0,0c-0.1,0.2-0.2,0.5-0.2,0.8
		C15.6,10.7,15.6,11,15.8,11.2L15.8,11.2z"/>
	<path class="st2" d="M15.1,13.7c-0.6,0-0.6,0.8,0,0.8C15.7,14.6,15.7,13.7,15.1,13.7z"/>
	<path class="st4" d="M15.2,14.5L15.2,14.5L15.2,14.5c-0.4,0-0.5-0.2-0.5-0.4c0-0.1,0-0.2,0.1-0.3c0.1-0.1,0.2-0.1,0.3-0.1
		c0.2,0,0.3,0.1,0.4,0.2c0.1,0.1,0.1,0.3,0,0.4C15.4,14.5,15.3,14.5,15.2,14.5z M15.1,13.7c-0.1,0-0.3,0-0.3,0.1
		c-0.1,0.1-0.1,0.2-0.1,0.3c0,0.2,0.1,0.4,0.4,0.4c0.2,0,0.3,0,0.4-0.1c0.1-0.1,0.1-0.3,0-0.4C15.4,13.8,15.3,13.7,15.1,13.7z"/>
	<path class="st2" d="M14.3,13.9c-0.3,0-0.3,0.5,0,0.5C14.7,14.4,14.7,13.9,14.3,13.9z"/>
	<path class="st4" d="M14.3,14.4c-0.2,0-0.2-0.1-0.2-0.3l0.1-0.2l0.2-0.1c0.2,0,0.3,0.1,0.3,0.3l-0.1,0.2
		C14.5,14.4,14.4,14.4,14.3,14.4z M14.3,13.9L14.1,14l-0.1,0.2c0,0.1,0.1,0.2,0.2,0.2c0.1,0,0.2,0,0.2-0.1l0.1-0.2
		C14.6,14,14.5,13.9,14.3,13.9z"/>
	<path class="st2" d="M15.9,13.9c0.3,0,0.3,0.5,0,0.5S15.6,13.9,15.9,13.9z"/>
	<path class="st4" d="M15.9,14.4c-0.2,0-0.2-0.1-0.2-0.3l0.1-0.2l0.2-0.1c0.2,0,0.2,0.1,0.2,0.3l-0.1,0.2L15.9,14.4z M15.9,13.9
		L15.7,14l-0.1,0.2c0,0.1,0.1,0.2,0.2,0.2l0.2-0.1l0.1-0.2C16.1,14,16,13.9,15.9,13.9z"/>
	<path class="st4" d="M15.1,14.7c-0.7,0-1.2-0.1-1.2-0.2h0C13.9,14.6,14.3,14.7,15.1,14.7c0.8,0,1.2-0.1,1.2-0.2h0
		C16.3,14.6,15.8,14.7,15.1,14.7z"/>
	<path class="st4" d="M15.1,15.1c-0.7,0-1.2-0.1-1.2-0.2h0C13.9,15,14.3,15.1,15.1,15.1c0.8,0,1.2-0.1,1.2-0.2h0
		C16.3,15,15.8,15.1,15.1,15.1z"/>
	<path class="st4" d="M15.1,15.7c-0.7,0-1.2-0.1-1.2-0.2h0C13.9,15.6,14.3,15.7,15.1,15.7c0.8,0,1.2-0.1,1.2-0.2h0
		C16.3,15.6,15.8,15.7,15.1,15.7z"/>
	<path class="st4" d="M15.1,16.1c-0.7,0-1.2-0.1-1.2-0.2h0C13.9,16,14.3,16.1,15.1,16.1c0.8,0,1.2-0.1,1.2-0.2h0
		C16.3,16,15.8,16.1,15.1,16.1z"/>
	<path class="st4" d="M14.3,15.5L14.3,15.5L14.3,15.5L14.3,15.5c0.1,0,0.2-0.1,0.2-0.2l-0.1-0.1l-0.2,0c0,0.1,0,0.2,0.1,0.2l0,0l0,0
		c-0.1,0-0.2,0.1-0.2,0c-0.1,0-0.1-0.1-0.1-0.2l0-0.1l0,0l0,0.1h0l0-0.1l0.1,0l0,0.1c0,0.1,0,0.2,0.1,0.2l0.2,0l-0.1-0.2l0,0
		l0.2-0.1l0.1,0.2l-0.1,0.2l0,0l0.2,0l-0.1-0.2l0.1-0.1h0l0.1,0.1l0,0.1l0,0.1l0.2,0c0.1-0.1,0-0.2,0-0.3L14.9,15l0,0l0,0l0.1,0.1
		c0,0.1,0.1,0.2,0,0.3l-0.2,0l0-0.1l0-0.1l-0.1-0.1l-0.1,0.1l0.1,0.2l0,0l0,0l0,0l0,0l0,0l-0.2,0L14.3,15.5L14.3,15.5L14.3,15.5
		L14.3,15.5z"/>
	<path class="st4" d="M15.9,15.5L15.9,15.5L15.9,15.5L15.9,15.5l-0.1,0l-0.2,0l0,0l0,0l0,0l0,0l0,0l0.1-0.2l-0.1-0.1l-0.1,0.1l0,0.1
		l0,0.1l-0.1,0.1l-0.2,0c-0.1-0.1-0.1-0.2,0-0.3l0.1-0.1l0,0l0,0l-0.1,0.1c0,0.1,0,0.2,0,0.3l0.1,0l0.1-0.1l0-0.1l0-0.1l0.1-0.1
		l0.1,0.1l-0.1,0.2l0.2,0l0,0l-0.1-0.2l0.1-0.2l0.2,0.1l0,0l-0.1,0.2l0.2,0c0.1,0,0.1-0.1,0.1-0.2l0-0.1l0.1,0l0,0.1h0l0-0.1l0,0
		l0,0.1c0,0.1,0,0.2-0.1,0.2c-0.1,0-0.1,0-0.2,0l0,0l0,0c0.1,0,0.1-0.1,0.1-0.2l-0.2,0c0,0-0.1,0.1-0.1,0.1
		C15.7,15.4,15.8,15.5,15.9,15.5L15.9,15.5L15.9,15.5L15.9,15.5z"/>
	<path class="st4" d="M15.1,16.6c-0.7,0-1.2-0.1-1.2-0.2h0C13.9,16.5,14.3,16.6,15.1,16.6c0.8,0,1.2-0.1,1.2-0.2h0
		C16.3,16.5,15.8,16.6,15.1,16.6z"/>
	<path class="st4" d="M15.2,16.4L15.2,16.4L15.2,16.4c-0.2,0-0.2-0.1-0.2-0.2l0-0.1l0.1-0.1l0.1,0.1L15.2,16.4L15.2,16.4z
		 M15.1,16.1l-0.1,0l0,0.1c0,0.1,0,0.1,0.1,0.1l0.1,0l0-0.2L15.1,16.1z"/>
	<path class="st4" d="M15.6,16.4c-0.1,0-0.2-0.1-0.2-0.2l0-0.1l0.1-0.1c0.1,0,0.2,0.1,0.2,0.2l0,0.1L15.6,16.4z M15.6,16.1l-0.1,0
		l0,0.1c0,0.1,0,0.1,0.1,0.1l0.1,0l0-0.1C15.7,16.2,15.7,16.1,15.6,16.1z"/>
	<path class="st4" d="M16,16.4c-0.1,0-0.2-0.1-0.2-0.2l0-0.1l0.1-0.1c0.1,0,0.2,0.1,0.2,0.2l0,0.1L16,16.4z M16,16.1l-0.1,0l0,0.1
		c0,0.1,0,0.1,0.1,0.1l0.1,0l0-0.1C16.1,16.2,16.1,16.1,16,16.1z"/>
	<path class="st4" d="M16.3,16.2c-0.1,0-0.2-0.1-0.2-0.2l0-0.1l0.1-0.1v0l-0.1,0l0,0.1C16.2,16.1,16.2,16.2,16.3,16.2L16.3,16.2z"/>
	<path class="st4" d="M14.6,16.4c-0.1,0-0.2-0.1-0.2-0.2l0-0.1l0.1-0.1c0.1,0,0.2,0.1,0.2,0.2l0,0.1L14.6,16.4z M14.6,16.1l-0.1,0
		l0,0.1c0,0.1,0,0.1,0.1,0.1l0.1,0l0-0.1C14.7,16.2,14.7,16.1,14.6,16.1z"/>
	<path class="st4" d="M14.2,16.4c-0.1,0-0.2-0.1-0.2-0.2l0-0.1l0.1-0.1c0.1,0,0.2,0.1,0.2,0.2l0,0.1L14.2,16.4z M14.2,16.1l-0.1,0
		l0,0.1c0,0.1,0,0.1,0.1,0.1l0.1,0l0-0.1C14.3,16.2,14.3,16.1,14.2,16.1z"/>
	<path class="st4" d="M13.9,16.2L13.9,16.2l0.1-0.1l0-0.1c0-0.1,0-0.1-0.1-0.1v0c0.1,0,0.2,0.1,0.2,0.2l0,0.1L13.9,16.2z"/>
	<path class="st4" d="M13.9,19.2L13.9,19.2c0-0.2,0.4-0.7,0.8-1.1c0.1-0.1,0.2-0.2,0.3-0.2c0.1-0.1,0.2-0.2,0.4-0.3
		c0.5-0.5,0.9-0.9,0.9-1.2h0c0,0.3-0.4,0.7-0.9,1.3c-0.1,0.1-0.2,0.2-0.4,0.3c-0.1,0.1-0.2,0.2-0.3,0.2C14.4,18.5,13.9,19,13.9,19.2
		z"/>
	<path class="st4" d="M13.9,19.7L13.9,19.7c0-0.2,0.4-0.7,0.8-1.1c0.1-0.1,0.2-0.2,0.3-0.2c0.1-0.1,0.2-0.2,0.4-0.3
		c0.5-0.5,0.9-0.9,0.9-1.2h0c0,0.3-0.4,0.7-0.9,1.3c-0.1,0.1-0.2,0.2-0.4,0.3c-0.1,0.1-0.2,0.2-0.3,0.2C14.4,19,13.9,19.5,13.9,19.7
		z"/>
	<path class="st4" d="M13.9,20.2L13.9,20.2c0-0.2,0.4-0.7,0.8-1.1c0.1-0.1,0.2-0.2,0.3-0.2c0.1-0.1,0.2-0.2,0.4-0.3
		c0.5-0.5,0.9-0.9,0.9-1.2h0c0,0.3-0.4,0.7-0.9,1.3c-0.1,0.1-0.2,0.2-0.4,0.3c-0.1,0.1-0.2,0.2-0.3,0.2C14.4,19.5,13.9,20,13.9,20.2
		z"/>
	<path class="st4" d="M13.9,20.7L13.9,20.7c0-0.2,0.4-0.7,0.8-1.1c0.1-0.1,0.2-0.2,0.3-0.2c0.1-0.1,0.2-0.2,0.4-0.3
		c0.5-0.5,0.9-0.9,0.9-1.2h0c0,0.3-0.4,0.7-0.9,1.3c-0.1,0.1-0.2,0.2-0.4,0.3c-0.1,0.1-0.2,0.2-0.3,0.2C14.4,20,13.9,20.5,13.9,20.7
		z"/>
	<path class="st4" d="M13.9,21.2L13.9,21.2c0-0.2,0.4-0.7,0.8-1.1c0.1-0.1,0.2-0.2,0.3-0.2c0.1-0.1,0.2-0.2,0.4-0.3
		c0.5-0.5,0.9-0.9,0.9-1.2h0c0,0.3-0.4,0.7-0.9,1.3c-0.1,0.1-0.2,0.2-0.4,0.3c-0.1,0.1-0.2,0.2-0.3,0.2C14.4,20.5,13.9,21,13.9,21.2
		z"/>
	<path class="st4" d="M13.9,21.7L13.9,21.7c0-0.2,0.4-0.7,0.8-1.1c0.1-0.1,0.2-0.2,0.3-0.2c0.1-0.1,0.2-0.2,0.4-0.3
		c0.5-0.5,0.9-0.9,0.9-1.2h0c0,0.3-0.4,0.7-0.9,1.3c-0.1,0.1-0.2,0.2-0.4,0.3c-0.1,0.1-0.2,0.2-0.3,0.2C14.4,21,13.9,21.5,13.9,21.7
		z"/>
	<path class="st4" d="M13.9,22.2L13.9,22.2c0-0.2,0.4-0.7,0.8-1.1c0.1-0.1,0.2-0.2,0.3-0.2c0.1-0.1,0.2-0.2,0.4-0.3
		c0.5-0.5,0.9-0.9,0.9-1.2h0c0,0.3-0.4,0.7-0.9,1.3c-0.1,0.1-0.2,0.2-0.4,0.3c-0.1,0.1-0.2,0.2-0.3,0.2C14.4,21.5,13.9,22,13.9,22.2
		z"/>
	<path class="st4" d="M14.2,22.3L14.2,22.3c0-0.2,0.6-0.8,1-1.1c0.1-0.1,0.2-0.2,0.4-0.4c0.4-0.4,0.8-0.8,0.8-1h0
		c0,0.2-0.4,0.6-0.8,1c-0.1,0.1-0.2,0.2-0.4,0.4C14.8,21.5,14.2,22.1,14.2,22.3z"/>
	<path class="st4" d="M14.7,22.3L14.7,22.3c0-0.1,0.2-0.3,0.4-0.5c0.1-0.1,0.3-0.3,0.3-0.4c0.1-0.1,0.2-0.2,0.3-0.3
		c0.3-0.3,0.6-0.5,0.6-0.7h0c0,0.2-0.3,0.4-0.6,0.7c-0.1,0.1-0.2,0.2-0.3,0.3c-0.1,0.1-0.2,0.3-0.3,0.4C14.9,22,14.7,22.2,14.7,22.3
		z"/>
	<path class="st4" d="M13.9,18.7L13.9,18.7c0-0.2,0.4-0.7,0.8-1.1c0.1-0.1,0.2-0.2,0.3-0.2c0.1-0.1,0.2-0.2,0.3-0.3
		c0.2-0.2,0.4-0.4,0.6-0.6l0,0c-0.1,0.2-0.4,0.4-0.6,0.6c-0.1,0.1-0.2,0.2-0.3,0.3c-0.1,0.1-0.2,0.2-0.3,0.2
		C14.4,18,13.9,18.5,13.9,18.7z"/>
	<path class="st4" d="M13.9,18.2L13.9,18.2c0-0.2,0.4-0.7,0.8-1.1c0.1-0.1,0.2-0.2,0.3-0.2l0.4-0.4l0,0L15,16.9
		c-0.1,0.1-0.2,0.2-0.3,0.2C14.4,17.5,13.9,18,13.9,18.2z"/>
	<path class="st4" d="M13.9,17.8L13.9,17.8c0-0.2,0.6-0.8,1-1.2l0,0C14.5,17,13.9,17.6,13.9,17.8z"/>
	<path class="st4" d="M13.9,17.3L13.9,17.3c0-0.2,0.3-0.5,0.6-0.8l0,0C14.2,16.8,13.9,17.1,13.9,17.3z"/>
	<path class="st4" d="M13.9,16.8L13.9,16.8c0-0.1,0.1-0.2,0.2-0.3l0,0C14,16.6,13.9,16.7,13.9,16.8z"/>
	<path class="st4" d="M15.3,22.1L15.3,22.1c0,0,0.1-0.1,0.3-0.3c0.2-0.2,0.5-0.5,0.6-0.7l0,0c-0.1,0.2-0.4,0.5-0.6,0.7
		C15.5,21.9,15.3,22.1,15.3,22.1z"/>
	<path class="st4" d="M16.3,19.2L16.3,19.2c0-0.2-0.5-0.7-0.9-1c-0.1-0.1-0.2-0.2-0.3-0.2c-0.1-0.1-0.2-0.2-0.4-0.3
		c-0.5-0.5-0.9-0.9-0.9-1.3h0c0,0.3,0.4,0.7,0.9,1.2c0.1,0.1,0.2,0.2,0.4,0.3c0.1,0.1,0.2,0.2,0.3,0.2C15.9,18.5,16.3,19,16.3,19.2z
		"/>
	<path class="st4" d="M16.3,19.7L16.3,19.7c0-0.2-0.5-0.7-0.9-1c-0.1-0.1-0.2-0.2-0.3-0.2c-0.1-0.1-0.2-0.2-0.4-0.3
		c-0.5-0.5-0.9-0.9-0.9-1.3h0c0,0.3,0.4,0.7,0.9,1.2c0.1,0.1,0.2,0.2,0.4,0.3c0.1,0.1,0.2,0.2,0.3,0.2C15.9,19,16.3,19.5,16.3,19.7z
		"/>
	<path class="st4" d="M16.3,20.2L16.3,20.2c0-0.2-0.5-0.7-0.9-1c-0.1-0.1-0.2-0.2-0.3-0.2c-0.1-0.1-0.2-0.2-0.4-0.3
		c-0.5-0.5-0.9-0.9-0.9-1.3h0c0,0.3,0.4,0.7,0.9,1.2c0.1,0.1,0.2,0.2,0.4,0.3c0.1,0.1,0.2,0.2,0.3,0.2C15.9,19.5,16.3,20,16.3,20.2z
		"/>
	<path class="st4" d="M16.3,20.6L16.3,20.6c0-0.2-0.4-0.6-0.8-1l-0.3-0.2c-0.1-0.1-0.2-0.2-0.4-0.3c-0.5-0.5-0.9-0.9-0.9-1.3h0
		c0,0.3,0.4,0.7,0.9,1.2c0.1,0.1,0.2,0.2,0.4,0.3l0.3,0.2C15.9,20,16.3,20.4,16.3,20.6z"/>
	<path class="st4" d="M16.2,21L16.2,21c0-0.1-0.4-0.6-0.8-0.8c-0.1-0.1-0.2-0.2-0.3-0.2c-0.1-0.1-0.2-0.2-0.4-0.3
		c-0.5-0.5-0.9-0.9-0.9-1.3h0c0,0.3,0.4,0.7,0.9,1.2c0.1,0.1,0.2,0.2,0.4,0.3c0.1,0.1,0.2,0.2,0.3,0.2C15.8,20.5,16.2,20.8,16.2,21z
		"/>
	<path class="st4" d="M16.1,21.2c-0.1-0.2-0.4-0.4-0.6-0.6c-0.1-0.1-0.2-0.2-0.3-0.3c-0.1-0.1-0.2-0.2-0.4-0.3
		c-0.5-0.5-0.9-0.9-0.9-1.3h0c0,0.3,0.4,0.7,0.9,1.2c0.1,0.1,0.2,0.2,0.4,0.3c0.1,0.1,0.2,0.2,0.3,0.3C15.7,20.8,16,21,16.1,21.2
		L16.1,21.2z"/>
	<path class="st4" d="M15.9,21.5c-0.2,0-0.3-0.2-0.5-0.4l-0.2-0.2c-0.1-0.1-0.2-0.2-0.4-0.3c-0.5-0.5-0.9-0.9-0.9-1.3h0
		c0,0.3,0.4,0.7,0.9,1.2c0.1,0.1,0.2,0.2,0.4,0.3l0.2,0.2C15.6,21.3,15.8,21.5,15.9,21.5L15.9,21.5z"/>
	<path class="st4" d="M15.7,21.7c-0.1,0-0.5-0.4-1-0.9c-0.1-0.1-0.3-0.3-0.4-0.3c-0.3-0.3-0.4-0.4-0.4-0.7h0c0,0.2,0.1,0.3,0.4,0.6
		c0.1,0.1,0.2,0.2,0.4,0.3C15,21.1,15.6,21.7,15.7,21.7L15.7,21.7z"/>
	<path class="st4" d="M16.3,18.7L16.3,18.7c0-0.2-0.5-0.7-0.9-1c-0.1-0.1-0.2-0.2-0.3-0.2c-0.1-0.1-0.2-0.2-0.3-0.3
		c-0.2-0.2-0.4-0.4-0.6-0.6l0,0c0.1,0.2,0.4,0.4,0.6,0.6c0.1,0.1,0.2,0.2,0.3,0.3c0.1,0.1,0.2,0.2,0.3,0.2
		C15.9,18,16.3,18.5,16.3,18.7z"/>
	<path class="st4" d="M16.3,18.2L16.3,18.2c0-0.2-0.5-0.7-0.9-1c-0.1-0.1-0.2-0.2-0.3-0.2l-0.4-0.4l0,0l0.4,0.4
		c0.1,0.1,0.2,0.2,0.3,0.2C15.9,17.5,16.3,18,16.3,18.2z"/>
	<path class="st4" d="M16.3,17.8L16.3,17.8c0-0.2-0.6-0.8-1-1.2l0,0C15.7,17,16.3,17.6,16.3,17.8z"/>
	<path class="st4" d="M16.3,17.3L16.3,17.3c0-0.2-0.2-0.5-0.5-0.8l0,0C16.1,16.8,16.3,17.1,16.3,17.3z"/>
	<path class="st4" d="M16.3,16.8L16.3,16.8c0-0.1-0.1-0.2-0.2-0.3l0,0C16.2,16.6,16.3,16.7,16.3,16.8z"/>
	<path class="st4" d="M15.2,22.1c-0.1,0-0.7-0.6-1.3-1.2l0,0C14.3,21.3,15.1,22.1,15.2,22.1L15.2,22.1z"/>
	<path class="st4" d="M14.8,22.2L14.8,22.2c-0.1,0-0.3-0.2-0.6-0.5c-0.1-0.1-0.2-0.2-0.3-0.3l0,0c0.1,0.1,0.2,0.2,0.3,0.3
		C14.5,22,14.7,22.2,14.8,22.2L14.8,22.2L14.8,22.2L14.8,22.2z"/>
	<rect x="14.1" y="21.7" transform="matrix(0.7071 -0.7071 0.7071 0.7071 -11.4472 16.4637)" class="st4" width="0" height="0.7"/>
	<path class="st4" d="M15.5,22c-0.1,0-0.2-0.1-0.3-0.2c-0.1-0.1-0.4-0.3-0.6-0.6c-0.3-0.3-0.5-0.5-0.7-0.7l0,0
		c0.2,0.1,0.4,0.4,0.7,0.7c0.3,0.3,0.5,0.5,0.6,0.6C15.3,21.9,15.4,22,15.5,22L15.5,22z"/>
	<path class="st4" d="M14.1,19.5c-0.1,0.3-0.3,2.7,0,2.9c0.2,0,0.6-0.1,0.7-0.1c-0.6,0.1-0.7-0.6-0.7-1C14,20.1,14.2,19.5,14.1,19.5
		z"/>
	<path class="st4" d="M14.1,22.4L14.1,22.4L14.1,22.4c-0.3-0.2-0.1-2.6,0-2.9l0,0h0l0,0c0,0,0,0.1,0,0.3c0,0.3-0.1,0.8,0,1.5
		c0,0.2,0,0.7,0.3,0.9c0.1,0.1,0.2,0.1,0.3,0.1l0,0l0.1,0l0,0l-0.1,0l-0.2,0C14.4,22.4,14.2,22.4,14.1,22.4z M14.1,19.5
		c-0.1,0.4-0.3,2.6,0,2.8c0.1,0,0.3,0,0.4-0.1l0,0l-0.2-0.1c-0.3-0.2-0.3-0.7-0.3-0.9c-0.1-0.7,0-1.2,0-1.5
		C14.1,19.7,14.1,19.6,14.1,19.5z"/>
	<path class="st2" d="M14.4,22.3c-0.4,0-0.5-0.6-0.5-0.9c0-0.5,0-1.3,0.1-1.5c0.1-0.5,0-0.4-0.3-0.2c-0.4,0.2-2.3,0.4-3.3,0.5
		c-1,0-2.2,0.5-0.7,1.2C11.2,22.1,13.4,22.5,14.4,22.3z"/>
	<path class="st4" d="M13.8,22.4c-1.1,0-2.9-0.4-4.1-1c-0.5-0.2-0.8-0.5-0.7-0.7c0.1-0.3,0.8-0.5,1.4-0.5c0.7-0.1,2.9-0.3,3.3-0.5
		l0.1,0c0.1-0.1,0.2-0.1,0.3-0.1c0,0,0,0.1,0,0.4c-0.1,0.2-0.1,1-0.1,1.5c0,0.3,0.1,0.9,0.5,0.9l0,0C14.2,22.3,14,22.4,13.8,22.4z
		 M14,19.5c0,0-0.1,0.1-0.2,0.1l-0.1,0c-0.4,0.2-2.6,0.4-3.3,0.5c-0.6,0-1.3,0.2-1.4,0.5c0,0.2,0.2,0.4,0.7,0.7
		c1.4,0.7,3.6,1.1,4.6,0.9c-0.3-0.1-0.4-0.6-0.4-0.9c0-0.5,0-1.3,0.1-1.5C14,19.7,14,19.6,14,19.5L14,19.5z"/>
	<path class="st2" d="M11.2,21.9c0,0.1-1-0.4-1.4-0.6c-1.5-0.8-0.3-1.2,0.7-1.2c0.6,0,0.8-0.1,0.8-0.1c-0.1,0-0.2,0.1-0.3,0.9
		C11,21.6,11,21.9,11.2,21.9z"/>
	<path class="st4" d="M11.2,21.9c-0.1,0-0.8-0.3-1.4-0.6C9.3,21,9,20.8,9.1,20.6c0.1-0.3,0.8-0.5,1.4-0.5c0.4,0,0.6,0,0.7-0.1l0.1,0
		l0,0l-0.1,0c-0.1,0.1-0.1,0.3-0.2,0.9C11,21.6,11,21.9,11.2,21.9L11.2,21.9L11.2,21.9L11.2,21.9L11.2,21.9z M11.2,20
		c-0.1,0-0.3,0.1-0.7,0.1c-0.6,0-1.3,0.2-1.4,0.5c-0.1,0.2,0.2,0.5,0.7,0.7c0.3,0.1,1.1,0.6,1.3,0.6c-0.1-0.1-0.1-0.4-0.1-1
		C11.1,20.4,11.1,20.1,11.2,20z"/>
	<path class="st4" d="M10.9,21.9c-0.1,0-0.1-0.3-0.1-0.9c0-0.8,0.1-0.9,0.2-0.9v0c-0.1,0-0.2,0.1-0.2,0.9
		C10.8,21.6,10.8,21.9,10.9,21.9L10.9,21.9z"/>
	<path class="st4" d="M9.5,21.2l-0.1,0l0,0c0.2,0.2,0.6-0.2,0.9-0.5c0.3-0.2,0.5-0.5,0.6-0.5v0c-0.1,0-0.3,0.2-0.6,0.5
		C10,20.8,9.7,21.2,9.5,21.2z"/>
	<path class="st4" d="M10.7,21.8c-0.1-0.1-0.3-0.3-0.4-0.6c-0.2-0.4-0.5-0.9-0.7-0.9l-0.1,0l0,0c0.3-0.1,0.5,0.4,0.8,0.9
		C10.4,21.4,10.6,21.7,10.7,21.8L10.7,21.8z"/>
	<path class="st4" d="M14,22.3c-0.5,0-0.5-0.6-0.5-1.2c0-0.6,0-1.4,0.3-1.5l0,0c-0.3,0.1-0.3,0.9-0.3,1.5
		C13.5,21.9,13.7,22.3,14,22.3L14,22.3z"/>
	<path class="st4" d="M11.1,20.5L11.1,20.5l0.2-0.2c0.2-0.1,0.4-0.3,0.6-0.3v0c-0.2,0-0.4,0.2-0.6,0.3L11.1,20.5z"/>
	<path class="st4" d="M11,20.8L11,20.8c0.1-0.1,0.2-0.2,0.3-0.3c0.3-0.3,0.7-0.6,1-0.6v0c-0.3,0-0.6,0.3-0.9,0.6
		C11.2,20.6,11.1,20.7,11,20.8z"/>
	<path class="st4" d="M11,21.2L11,21.2c0.1-0.1,0.3-0.3,0.5-0.4c0.4-0.4,0.9-0.8,1.2-0.9l0,0c-0.3,0.1-0.8,0.5-1.2,0.9
		C11.3,21,11.1,21.1,11,21.2z"/>
	<path class="st4" d="M11,21.5L11,21.5c0.2-0.2,0.6-0.5,0.9-0.8c0.5-0.4,0.9-0.8,1.2-0.9l0,0c-0.2,0.1-0.7,0.5-1.1,0.9
		C11.6,21,11.3,21.3,11,21.5z"/>
	<path class="st4" d="M11.1,21.7L11.1,21.7c0.4-0.2,1.2-1,1.9-1.5c0.3-0.3,0.6-0.5,0.7-0.6l0,0c-0.1,0.1-0.4,0.3-0.7,0.6
		C12.4,20.8,11.5,21.5,11.1,21.7z"/>
	<path class="st4" d="M11.1,21.9L11.1,21.9L11.1,21.9L11.1,21.9c0.4,0,2.1-1.5,2.4-1.9l0,0C13.2,20.4,11.5,21.9,11.1,21.9z"/>
	<path class="st4" d="M11.5,22L11.5,22L11.5,22L11.5,22c0.4,0,0.9-0.5,1.7-1.2c0.1-0.1,0.2-0.2,0.4-0.3l0,0
		c-0.1,0.1-0.2,0.2-0.4,0.3C12.4,21.5,11.8,22,11.5,22z"/>
	<path class="st4" d="M11.8,22.1l-0.1,0l0,0c0.3,0.1,0.6-0.1,1.8-1.1l0,0C12.5,21.8,12.1,22.1,11.8,22.1z"/>
	<path class="st4" d="M12.2,22.3l-0.2,0l0,0c0.3,0.1,0.6,0.1,1.4-0.8l0,0C12.8,22.1,12.5,22.3,12.2,22.3z"/>
	<path class="st4" d="M12.6,22.3L12.6,22.3c0.3,0,0.6-0.2,0.9-0.5l0,0C13.2,22.1,12.9,22.3,12.6,22.3z"/>
	<path class="st4" d="M13.1,22.3L13.1,22.3c0.2,0,0.4-0.2,0.4-0.3h0C13.5,22.1,13.3,22.3,13.1,22.3z"/>
	<path class="st4" d="M13.6,22.4L13.6,22.4l0.1-0.1h0C13.7,22.3,13.7,22.4,13.6,22.4z"/>
	<path class="st4" d="M11.2,20.2L11.2,20.2c0.1,0,0.2-0.1,0.2-0.1l0,0C11.4,20.1,11.3,20.2,11.2,20.2z"/>
	<path class="st2" d="M10.9,19.1c0.1,0,0.2-0.1,0.2-0.2v-1.7c0-0.1-0.1-0.2-0.2-0.2H7.8c-0.1,0-0.2,0.1-0.2,0.2v1.7
		c0,0.1,0.1,0.2,0.2,0.2H10.9z"/>
	<path class="st4" d="M10.9,19.1H7.8c-0.1,0-0.2-0.1-0.2-0.2v-1.7c0-0.1,0.1-0.2,0.2-0.2h3.1c0.1,0,0.2,0.1,0.2,0.2v1.7
		C11.1,19,11,19.1,10.9,19.1z M7.8,17c-0.1,0-0.2,0.1-0.2,0.2v1.7c0,0.1,0.1,0.2,0.2,0.2h3.1c0.1,0,0.2-0.1,0.2-0.2v-1.7
		c0-0.1-0.1-0.2-0.2-0.2H7.8z"/>
	<rect x="7.6" y="17.5" class="st4" width="3.5" height="0"/>
	<rect x="7.5" y="17.2" transform="matrix(0.7071 -0.7071 0.7071 0.7071 -9.8984 10.6033)" class="st4" width="0.7" height="0"/>
	<rect x="7.8" y="17.2" transform="matrix(0.7071 -0.7071 0.7071 0.7071 -9.8105 10.8153)" class="st4" width="0.7" height="0"/>
	<polygon class="st4" points="8.2,17.5 8.2,17.5 8.6,17 8.6,17 	"/>
	<rect x="8.3" y="17.2" transform="matrix(0.7071 -0.7071 0.7071 0.7071 -9.6641 11.1688)" class="st4" width="0.7" height="0"/>
	<rect x="8.6" y="17.2" transform="matrix(0.7071 -0.7071 0.7071 0.7071 -9.5761 11.3812)" class="st4" width="0.7" height="0"/>
	<rect x="8.9" y="17.2" transform="matrix(0.7071 -0.7071 0.7071 0.7071 -9.4883 11.5931)" class="st4" width="0.7" height="0"/>
	<polygon class="st4" points="9.3,17.5 9.3,17.5 9.7,17 9.7,17 	"/>
	<rect x="9.4" y="17.2" transform="matrix(0.7071 -0.7071 0.7071 0.7071 -9.3419 11.9467)" class="st4" width="0.7" height="0"/>
	<rect x="9.7" y="17.2" transform="matrix(0.7071 -0.7071 0.7071 0.7071 -9.2541 12.1587)" class="st4" width="0.7" height="0"/>
	<rect x="10" y="17.2" transform="matrix(0.7071 -0.7071 0.7071 0.7071 -9.1661 12.371)" class="st4" width="0.7" height="0"/>
	<polygon class="st4" points="10.4,17.5 10.4,17.5 10.8,17 10.8,17 	"/>
	<rect x="10.5" y="17.3" transform="matrix(0.7071 -0.7071 0.7071 0.7071 -9.0697 12.7039)" class="st4" width="0.6" height="0"/>
	<rect x="7.9" y="17" transform="matrix(0.7071 -0.7071 0.7071 0.7071 -9.9191 10.6533)" class="st4" width="0" height="0.6"/>
	<rect x="8.1" y="16.9" transform="matrix(0.7071 -0.7071 0.7071 0.7071 -9.8105 10.8153)" class="st4" width="0" height="0.7"/>
	<polygon class="st4" points="8.6,17.5 8.2,17 8.2,17 8.6,17.5 	"/>
	<rect x="8.6" y="16.9" transform="matrix(0.7071 -0.7071 0.7071 0.7071 -9.6641 11.1688)" class="st4" width="0" height="0.7"/>
	<rect x="8.9" y="16.9" transform="matrix(0.7071 -0.7071 0.7071 0.7071 -9.5761 11.3812)" class="st4" width="0" height="0.7"/>
	<rect x="9.2" y="16.9" transform="matrix(0.7071 -0.7071 0.7071 0.7071 -9.4883 11.5931)" class="st4" width="0" height="0.7"/>
	<polygon class="st4" points="9.7,17.5 9.3,17 9.3,17 9.7,17.5 	"/>
	<rect x="9.7" y="16.9" transform="matrix(0.7071 -0.7071 0.7071 0.7071 -9.3419 11.9467)" class="st4" width="0" height="0.7"/>
	<rect x="10" y="16.9" transform="matrix(0.7071 -0.7071 0.7071 0.7071 -9.2541 12.1587)" class="st4" width="0" height="0.7"/>
	<rect x="10.3" y="16.9" transform="matrix(0.7071 -0.7071 0.7071 0.7071 -9.1661 12.371)" class="st4" width="0" height="0.7"/>
	<polygon class="st4" points="10.8,17.5 10.4,17 10.4,17 10.8,17.5 	"/>
	<rect x="10.8" y="16.9" transform="matrix(0.7071 -0.7071 0.7071 0.7071 -9.0197 12.7246)" class="st4" width="0" height="0.7"/>
	<path class="st4" d="M9.3,18.5c-0.1,0-0.1-0.2-0.1-0.2L9,18.4l-0.2,0l0-0.1l0.1-0.1l-0.1,0c-0.1,0-0.2,0-0.2-0.1S8.7,18,8.8,18
		L9,18l-0.1-0.1l0-0.2c0,0,0.1,0,0.2,0.1c0,0,0.1,0.1,0.2,0.1c0-0.1,0-0.3,0.1-0.3c0.1,0,0.1,0.2,0.1,0.2l0.2-0.1l0.2,0l0.1,0.1
		l0,0.1c-0.1,0.1-0.2,0.1-0.1,0.1l0.1,0c0.1,0,0.2,0,0.2,0.1s-0.1,0.1-0.2,0.1l-0.2,0l0.1,0.1l0,0.1l-0.1,0.1l-0.2-0.1
		c0,0-0.1-0.1-0.2-0.1C9.4,18.4,9.4,18.5,9.3,18.5z M9.2,18.3L9.2,18.3L9.2,18.3l0.1,0.2l0.1-0.2v0h0c0.1,0,0.2,0.1,0.2,0.1l0.2,0.1
		l0.1-0.1l0-0.1l-0.1-0.1c0,0,0.1,0,0.2,0c0.1,0,0.2,0,0.2-0.1S10,18,9.9,18c-0.1,0-0.1,0-0.2-0.1c0,0,0-0.1,0.2-0.2l0-0.1l-0.1-0.1
		l-0.1,0c-0.1,0.1-0.2,0.1-0.2,0.1h0v0l-0.1-0.2c-0.1,0-0.1,0.2-0.1,0.3v0h0c-0.1,0-0.2-0.1-0.2-0.1c-0.1-0.1-0.2-0.1-0.2-0.1l0,0.1
		L9,18c0,0-0.1,0-0.2,0c-0.1,0-0.2,0-0.2,0.1s0.1,0.1,0.2,0.1c0.1,0,0.2,0,0.2,0c0,0,0,0-0.2,0.1l0,0.1l0.2,0
		C9.1,18.3,9.2,18.3,9.2,18.3z"/>
	<path class="st4" d="M9.4,18.1c-0.1,0-0.2-0.1-0.2-0.1l0-0.1l0.1,0L9.5,18L9.4,18.1L9.4,18.1z M9.4,17.9l-0.1,0l0,0.1
		c0,0,0,0.1,0.1,0.1l0.1,0l0,0L9.4,17.9z"/>
	<rect x="7.6" y="18.7" class="st4" width="3.5" height="0"/>
	<polygon class="st4" points="8.1,19.1 7.6,18.7 7.6,18.7 8.1,19.1 	"/>
	<polygon class="st4" points="8.4,19.1 7.9,18.7 7.9,18.7 8.4,19.1 	"/>
	<rect x="8.4" y="18.6" transform="matrix(0.7071 -0.7071 0.7071 0.7071 -10.9041 11.4755)" class="st4" width="0" height="0.6"/>
	<polygon class="st4" points="8.9,19.1 8.4,18.7 8.4,18.7 8.9,19.1 	"/>
	<polygon class="st4" points="9.2,19.1 8.7,18.7 8.7,18.7 9.2,19.1 	"/>
	<polygon class="st4" points="9.5,19.1 9,18.7 9,18.7 9.5,19.1 	"/>
	<rect x="9.5" y="18.6" transform="matrix(0.7067 -0.7075 0.7075 0.7067 -10.586 12.2655)" class="st4" width="0" height="0.6"/>
	<polygon class="st4" points="10,19.1 9.5,18.7 9.5,18.7 10,19.1 	"/>
	<polygon class="st4" points="10.3,19.1 9.8,18.7 9.8,18.7 10.3,19.1 	"/>
	<polygon class="st4" points="10.6,19.1 10.1,18.7 10.1,18.7 10.6,19.1 	"/>
	<rect x="10.6" y="18.6" transform="matrix(0.7071 -0.7071 0.7071 0.7071 -10.2598 13.031)" class="st4" width="0" height="0.6"/>
	<rect x="10.8" y="18.6" transform="matrix(0.7071 -0.7071 0.7071 0.7071 -10.2012 13.1725)" class="st4" width="0" height="0.6"/>
	<rect x="7.6" y="18.9" transform="matrix(0.7071 -0.7071 0.7071 0.7071 -11.0505 11.122)" class="st4" width="0.6" height="0"/>
	<polygon class="st4" points="7.9,19.1 7.9,19.1 8.4,18.7 8.4,18.7 	"/>
	<rect x="8.1" y="18.9" transform="matrix(0.7071 -0.7071 0.7071 0.7071 -10.9041 11.4755)" class="st4" width="0.6" height="0"/>
	<polygon class="st4" points="8.4,19.1 8.4,19.1 8.9,18.7 8.9,18.7 	"/>
	<polygon class="st4" points="8.7,19.1 8.7,19.1 9.2,18.7 9.2,18.7 	"/>
	<polygon class="st4" points="9,19.1 9,19.1 9.5,18.7 9.5,18.7 	"/>
	<rect x="9.2" y="18.9" transform="matrix(0.7071 -0.7071 0.7071 0.7071 -10.5819 12.2532)" class="st4" width="0.6" height="0"/>
	<polygon class="st4" points="9.5,19.1 9.5,19.1 10,18.7 10,18.7 	"/>
	<polygon class="st4" points="9.8,19.1 9.8,19.1 10.3,18.7 10.3,18.7 	"/>
	<polygon class="st4" points="10.1,19.1 10.1,19.1 10.6,18.7 10.6,18.7 	"/>
	<rect x="10.3" y="18.9" transform="matrix(0.7071 -0.7071 0.7071 0.7071 -10.2598 13.031)" class="st4" width="0.6" height="0"/>
	<polygon class="st4" points="10.6,19.1 10.6,19.1 11.1,18.7 11.1,18.7 	"/>
	<path class="st2" d="M18.9,19.1c-0.1,0-0.2-0.1-0.2-0.2v-1.7c0-0.1,0.1-0.2,0.2-0.2H22c0.1,0,0.2,0.1,0.2,0.2v1.7
		c0,0.1-0.1,0.2-0.2,0.2H18.9z"/>
	<path class="st4" d="M22,19.1h-3.1c-0.1,0-0.2-0.1-0.2-0.2v-1.7c0-0.1,0.1-0.2,0.2-0.2H22c0.1,0,0.2,0.1,0.2,0.2v1.7
		C22.2,19,22.1,19.1,22,19.1z M18.9,17c-0.1,0-0.2,0.1-0.2,0.2v1.7c0,0.1,0.1,0.2,0.2,0.2H22c0.1,0,0.2-0.1,0.2-0.2v-1.7
		c0-0.1-0.1-0.2-0.2-0.2H18.9z"/>
	<rect x="18.7" y="17.5" class="st4" width="3.5" height="0"/>
	<polygon class="st4" points="22.2,17.5 21.8,17 21.8,17 22.2,17.5 	"/>
	<polygon class="st4" points="21.9,17.5 21.5,17 21.5,17 21.9,17.5 	"/>
	<rect x="21.4" y="16.9" transform="matrix(0.7071 -0.7071 0.7071 0.7071 -5.915 20.22)" class="st4" width="0" height="0.7"/>
	<rect x="21.1" y="16.9" transform="matrix(0.7071 -0.7071 0.7071 0.7071 -6.0029 20.0076)" class="st4" width="0" height="0.7"/>
	<polygon class="st4" points="21.1,17.5 20.7,17 20.7,17 21.1,17.5 	"/>
	<polygon class="st4" points="20.8,17.5 20.4,17 20.4,17 20.8,17.5 	"/>
	<rect x="20.3" y="16.9" transform="matrix(0.7071 -0.7071 0.7071 0.7071 -6.2372 19.4421)" class="st4" width="0" height="0.7"/>
	<rect x="20" y="16.9" transform="matrix(0.7071 -0.7071 0.7071 0.7071 -6.3251 19.2298)" class="st4" width="0" height="0.7"/>
	<polygon class="st4" points="20,17.5 19.6,17 19.6,17 20,17.5 	"/>
	<polygon class="st4" points="19.7,17.5 19.3,17 19.3,17 19.7,17.5 	"/>
	<rect x="19.2" y="16.9" transform="matrix(0.7071 -0.7071 0.7071 0.7071 -6.5594 18.6642)" class="st4" width="0" height="0.7"/>
	<rect x="19" y="17" transform="matrix(0.7067 -0.7075 0.7075 0.7067 -6.6673 18.5178)" class="st4" width="0" height="0.6"/>
	<rect x="21.7" y="17.3" transform="matrix(0.7071 -0.7071 0.7071 0.7071 -5.7893 20.6234)" class="st4" width="0.6" height="0"/>
	<polygon class="st4" points="21.5,17.5 21.5,17.5 21.9,17 21.9,17 	"/>
	<rect x="21.1" y="17.2" transform="matrix(0.7071 -0.7071 0.7071 0.7071 -5.915 20.22)" class="st4" width="0.7" height="0"/>
	<rect x="20.8" y="17.2" transform="matrix(0.7071 -0.7071 0.7071 0.7071 -6.0029 20.0076)" class="st4" width="0.7" height="0"/>
	<polygon class="st4" points="20.7,17.5 20.7,17.5 21.1,17 21.1,17 	"/>
	<polygon class="st4" points="20.4,17.5 20.4,17.5 20.8,17 20.8,17 	"/>
	<rect x="20" y="17.2" transform="matrix(0.7071 -0.7071 0.7071 0.7071 -6.2372 19.4421)" class="st4" width="0.7" height="0"/>
	<rect x="19.7" y="17.2" transform="matrix(0.7071 -0.7071 0.7071 0.7071 -6.3251 19.2298)" class="st4" width="0.7" height="0"/>
	<polygon class="st4" points="19.6,17.5 19.6,17.5 20,17 20,17 	"/>
	<polygon class="st4" points="19.3,17.5 19.3,17.5 19.7,17 19.7,17 	"/>
	<rect x="18.9" y="17.2" transform="matrix(0.7071 -0.7071 0.7071 0.7071 -6.5594 18.6642)" class="st4" width="0.7" height="0"/>
	<rect x="18.6" y="17.2" transform="matrix(0.7071 -0.7071 0.7071 0.7071 -6.6472 18.4522)" class="st4" width="0.7" height="0"/>
	<path class="st4" d="M20.5,18.4c-0.1,0-0.1-0.2-0.1-0.2c-0.1,0-0.2,0.1-0.2,0.1L20,18.4L20,18.3l0-0.1l0.1-0.1l-0.2,0
		c-0.1,0-0.2,0-0.2-0.1s0.1-0.1,0.2-0.1l0.2,0L20,17.8l0-0.1l0.1-0.1l0.2,0l0.2,0.1c0,0,0-0.2,0.1-0.2c0.1,0,0.1,0.2,0.1,0.2
		c0.1,0,0.2-0.1,0.2-0.1l0.2-0.1l0.1,0.1l0,0.1l-0.1,0.1l0.2,0c0.1,0,0.2,0,0.2,0.1s-0.1,0.1-0.2,0.1l-0.2,0l0.1,0.1l0,0.1l-0.1,0.1
		l-0.2,0l-0.2-0.1C20.6,18.3,20.6,18.4,20.5,18.4z M20.4,18.2L20.4,18.2L20.4,18.2l0.1,0.2l0.1-0.2v0h0c0,0,0.1,0,0.2,0.1l0.1,0
		l0.1-0.1l0-0.1l-0.1-0.1c0,0,0.1,0,0.2,0c0.1,0,0.2,0,0.2-0.1s-0.1-0.1-0.2-0.1c-0.1,0-0.2,0-0.2,0l0.1-0.1l0-0.1L21,17.6l-0.2,0.1
		c0,0-0.1,0.1-0.2,0.1h0v0l-0.1-0.2l-0.1,0.2v0h0c0,0-0.1,0-0.2-0.1l-0.1,0L20,17.7l0,0.1l0.1,0.1c0,0-0.1,0-0.2,0
		c-0.1,0-0.2,0-0.2,0.1s0.1,0.1,0.2,0.1c0.1,0,0.2,0,0.2,0L20,18.2l0,0.1l0.1,0.1l0.2-0.1C20.2,18.3,20.3,18.2,20.4,18.2z"/>
	<path class="st4" d="M20.4,18.1L20.4,18.1L20.3,18l0.2-0.1c0.1,0,0.2,0.1,0.2,0.1l0,0.1L20.4,18.1L20.4,18.1z M20.5,17.9L20.4,18
		l0,0.1l0.1,0l0.1,0l0-0.1C20.6,18,20.6,17.9,20.5,17.9z"/>
	<rect x="18.7" y="18.7" class="st4" width="3.5" height="0"/>
	<rect x="21.7" y="18.9" transform="matrix(0.7071 -0.7071 0.7071 0.7071 -6.9208 21.0921)" class="st4" width="0.6" height="0"/>
	<rect x="21.4" y="18.9" transform="matrix(0.7071 -0.7071 0.7071 0.7071 -7.0087 20.8799)" class="st4" width="0.6" height="0"/>
	<polygon class="st4" points="21.2,19.1 21.2,19.1 21.7,18.7 21.7,18.7 	"/>
	<polygon class="st4" points="20.9,19.1 20.9,19.1 21.4,18.7 21.4,18.7 	"/>
	<rect x="20.6" y="18.9" transform="matrix(0.7071 -0.7071 0.7071 0.7071 -7.2429 20.3144)" class="st4" width="0.6" height="0"/>
	<rect x="20.3" y="18.9" transform="matrix(0.7071 -0.7071 0.7071 0.7071 -7.3309 20.102)" class="st4" width="0.6" height="0"/>
	<polygon class="st4" points="20.1,19.1 20.1,19.1 20.6,18.7 20.6,18.7 	"/>
	<polygon class="st4" points="19.8,19.1 19.8,19.1 20.3,18.7 20.3,18.7 	"/>
	<rect x="19.5" y="18.9" transform="matrix(0.7071 -0.7071 0.7071 0.7071 -7.5651 19.5365)" class="st4" width="0.6" height="0"/>
	<rect x="19.2" y="18.9" transform="matrix(0.7071 -0.7071 0.7071 0.7071 -7.653 19.3243)" class="st4" width="0.6" height="0"/>
	<polygon class="st4" points="19,19.1 19,19.1 19.5,18.7 19.5,18.7 	"/>
	<rect x="18.7" y="18.9" transform="matrix(0.7071 -0.7071 0.7071 0.7071 -7.7995 18.9708)" class="st4" width="0.6" height="0"/>
	<rect x="22" y="18.6" transform="matrix(0.7067 -0.7075 0.7075 0.7067 -6.9194 21.1097)" class="st4" width="0" height="0.6"/>
	<rect x="21.7" y="18.6" transform="matrix(0.7071 -0.7071 0.7071 0.7071 -7.0087 20.8799)" class="st4" width="0" height="0.6"/>
	<polygon class="st4" points="21.7,19.1 21.2,18.7 21.2,18.7 21.7,19.1 	"/>
	<polygon class="st4" points="21.4,19.1 20.9,18.7 20.9,18.7 21.4,19.1 	"/>
	<rect x="20.9" y="18.6" transform="matrix(0.7071 -0.7071 0.7071 0.7071 -7.2429 20.3144)" class="st4" width="0" height="0.6"/>
	<rect x="20.6" y="18.6" transform="matrix(0.7071 -0.7071 0.7071 0.7071 -7.3309 20.102)" class="st4" width="0" height="0.6"/>
	<polygon class="st4" points="20.6,19.1 20.1,18.7 20.1,18.7 20.6,19.1 	"/>
	<polygon class="st4" points="20.3,19.1 19.8,18.7 19.8,18.7 20.3,19.1 	"/>
	<rect x="19.8" y="18.6" transform="matrix(0.7071 -0.7071 0.7071 0.7071 -7.5651 19.5365)" class="st4" width="0" height="0.6"/>
	<rect x="19.5" y="18.6" transform="matrix(0.7067 -0.7075 0.7075 0.7067 -7.6527 19.3409)" class="st4" width="0" height="0.6"/>
	<polygon class="st4" points="19.5,19.1 19,18.7 19,18.7 19.5,19.1 	"/>
	<polygon class="st4" points="19.2,19.1 18.7,18.7 18.7,18.7 19.2,19.1 	"/>
	<path class="st2" d="M12.8,18.4c0.8-0.1,1.9-0.1,2.4,0v-0.5c-0.5,0-1.6,0-2.4,0L12.8,18.4z"/>
	<path class="st4" d="M15.2,18.4L15.2,18.4c-0.5-0.1-1.6-0.1-2.4,0l0,0v-0.5h2.4V18.4z M12.8,17.9v0.5c0.8-0.1,1.9-0.1,2.4,0v-0.5
		H12.8z"/>
	<path class="st2" d="M13.5,18.1c0,0.3,0,0.6,0.3,0.6s0.3-0.3,0.3-0.6c0-0.3,0-0.6-0.3-0.6S13.5,17.7,13.5,18.1h-0.3
		c0-0.5,0-0.9,0.6-0.9c0.5,0,0.6,0.4,0.6,0.9s0,0.9-0.6,0.9c-0.5,0-0.6-0.4-0.6-0.9H13.5z"/>
	<path class="st4" d="M13.8,19c-0.5,0-0.6-0.5-0.6-0.9v0c0-0.5,0-0.9,0.6-0.9c0.5,0,0.6,0.5,0.6,0.9C14.4,18.6,14.4,19,13.8,19z
		 M13.2,18.1c0,0.4,0.1,0.9,0.6,0.9c0.6,0,0.6-0.4,0.6-0.9c0-0.4-0.1-0.9-0.6-0.9C13.2,17.2,13.2,17.6,13.2,18.1l0.3,0
		c0-0.4,0-0.6,0.3-0.6c0.3,0,0.3,0.3,0.3,0.6s0,0.6-0.3,0.6c-0.3,0-0.3-0.3-0.3-0.6H13.2z M13.5,18.1c0,0.3,0,0.6,0.3,0.6
		c0.3,0,0.3-0.3,0.3-0.6s0-0.6-0.3-0.6C13.5,17.5,13.5,17.7,13.5,18.1z"/>
	<path class="st2" d="M12.6,18.1c0,0.2,0.1,0.3,0.3,0.3s0.3-0.1,0.3-0.3c0-0.2-0.1-0.3-0.3-0.3C12.8,17.8,12.6,17.9,12.6,18.1h-0.3
		c0-0.4,0.3-0.7,0.7-0.7s0.7,0.3,0.7,0.7s-0.3,0.7-0.7,0.7s-0.7-0.3-0.7-0.7H12.6z"/>
	<path class="st4" d="M13,18.8c-0.4,0-0.7-0.3-0.7-0.7v0c0-0.4,0.3-0.7,0.7-0.7c0.4,0,0.7,0.3,0.7,0.7C13.7,18.5,13.4,18.8,13,18.8z
		 M12.3,18.1c0,0.4,0.3,0.7,0.7,0.7c0.4,0,0.7-0.3,0.7-0.7s-0.3-0.7-0.7-0.7C12.6,17.4,12.3,17.7,12.3,18.1l0.3,0
		c0-0.2,0.2-0.3,0.3-0.3c0.2,0,0.3,0.1,0.3,0.3s-0.1,0.3-0.3,0.3c-0.2,0-0.3-0.1-0.3-0.3H12.3z M12.6,18.1c0,0.2,0.1,0.3,0.3,0.3
		s0.3-0.1,0.3-0.3s-0.1-0.3-0.3-0.3C12.8,17.8,12.6,17.9,12.6,18.1z"/>
	<path class="st2" d="M12.7,18.1c0,0.5,0,0.9-0.6,0.9s-0.6-0.4-0.6-0.9s0-0.9,0.6-0.9C12.7,17.1,12.7,17.6,12.7,18.1h-0.3
		c0-0.3,0-0.6-0.3-0.6c-0.4,0-0.3,0.3-0.3,0.6c0,0.3,0,0.6,0.3,0.6c0.4,0,0.3-0.3,0.3-0.6H12.7z"/>
	<path class="st4" d="M12.1,19c-0.6,0-0.6-0.4-0.6-0.9s0-0.9,0.6-0.9c0.2,0,0.3,0,0.4,0.1c0.2,0.2,0.2,0.5,0.2,0.8v0
		C12.7,18.6,12.7,19,12.1,19z M12.2,17.2l-0.1,0c-0.6,0-0.6,0.4-0.6,0.9s0,0.9,0.6,0.9c0.6,0,0.6-0.4,0.6-0.9h-0.3l0,0.1
		c0,0.2,0,0.3-0.1,0.4c-0.1,0.1-0.1,0.1-0.3,0.1c-0.3,0-0.3-0.3-0.3-0.6l0-0.2c0-0.2,0-0.3,0.1-0.4c0.1-0.1,0.1-0.1,0.3-0.1
		c0.3,0,0.3,0.3,0.3,0.6h0.3c0-0.3,0-0.7-0.2-0.8C12.4,17.2,12.4,17.2,12.2,17.2z M12.1,17.5c-0.1,0-0.2,0-0.2,0.1
		c-0.1,0.1-0.1,0.2-0.1,0.4l0,0.2c0,0.3,0,0.6,0.3,0.6c0.1,0,0.2,0,0.2-0.1c0.1-0.1,0.1-0.2,0.1-0.4l0-0.1v0
		C12.4,17.8,12.4,17.5,12.1,17.5z"/>
	<path class="st2" d="M10.8,18.1c0,0.5-0.2,0.4,0.6,0.4c0.6,0,0.4,0,0.4-0.4s0.2-0.4-0.4-0.4C10.6,17.6,10.8,17.6,10.8,18.1z"/>
	<path class="st4" d="M10.9,18.5l-0.1,0l0-0.1c0-0.1,0-0.1,0-0.2c0-0.1,0-0.2,0-0.2c0-0.1,0-0.2,0-0.2c0,0,0.2,0,0.5,0l0.1,0h0
		c0.3,0,0.4,0,0.4,0l0,0.1c0,0.1,0,0.1,0,0.2s0,0.2,0,0.2l0,0.1c0,0-0.1,0-0.4,0c-0.1,0-0.2,0-0.3,0L10.9,18.5z M10.9,17.7l-0.1,0
		c0,0,0,0.1,0,0.2c0,0.1,0,0.1,0,0.2c0,0.1,0,0.2,0,0.2l0,0.1c0,0,0.1,0,0.3,0c0.1,0,0.2,0,0.3,0c0.3,0,0.4,0,0.4,0l0-0.1
		c0-0.1,0-0.1,0-0.2s0-0.2,0-0.2l0-0.1c0,0-0.1,0-0.4,0l-0.1,0C11.1,17.7,11,17.7,10.9,17.7z"/>
	<path class="st2" d="M12.2,18.1c0,0.4-0.2,0.4,0.4,0.4c0.5,0,0.3-0.1,0.3-0.4c0-0.3,0.2-0.3-0.3-0.4C12,17.7,12.2,17.6,12.2,18.1z"
		/>
	<path class="st4" d="M12.6,18.5c-0.3,0-0.4,0-0.4,0l0-0.1c0-0.1,0-0.1,0-0.2c0-0.1,0-0.2,0-0.3l0-0.1c0,0,0.1,0,0.2,0
		c0.1,0,0.1,0,0.2,0c0.2,0,0.3,0.1,0.3,0.1l0,0.1l0,0.2l0,0.2l0,0.2C12.9,18.5,12.8,18.5,12.6,18.5z M12.3,17.7L12.3,17.7l-0.1,0.1
		c0,0.1,0,0.2,0,0.3c0,0.1,0,0.2,0,0.2l0,0.1c0,0,0.1,0,0.4,0c0.2,0,0.3,0,0.3-0.1v-0.1l0-0.2l0-0.2l0-0.1c0,0-0.1-0.1-0.3-0.1h0
		C12.5,17.7,12.4,17.7,12.3,17.7L12.3,17.7z"/>
	<path class="st2" d="M17.1,18.1c0,0.5,0,0.9,0.6,0.9s0.6-0.4,0.6-0.9s0-0.9-0.6-0.9C17.2,17.1,17.1,17.6,17.1,18.1h0.3
		c0-0.3,0-0.6,0.3-0.6c0.4,0,0.3,0.3,0.3,0.6c0,0.3,0,0.6-0.3,0.6c-0.4,0-0.3-0.3-0.3-0.6H17.1z"/>
	<path class="st4" d="M17.7,19c-0.6,0-0.6-0.4-0.6-0.9v0c0-0.4,0.1-0.7,0.2-0.8c0.1-0.1,0.2-0.1,0.4-0.1h0c0.6,0,0.6,0.4,0.6,0.9
		S18.3,19,17.7,19z M17.1,18.1c0,0.5,0,0.9,0.6,0.9c0.6,0,0.6-0.4,0.6-0.9s0-0.9-0.6-0.9c-0.2,0-0.3,0-0.4,0.1
		C17.2,17.4,17.1,17.7,17.1,18.1l0.3,0c0-0.3,0-0.6,0.3-0.6c0.1,0,0.2,0,0.3,0.1c0.1,0.1,0.1,0.2,0.1,0.4l0,0.2c0,0.3,0,0.6-0.3,0.6
		c-0.1,0-0.2,0-0.3-0.1c-0.1-0.1-0.1-0.2-0.1-0.4l0-0.1H17.1z M17.4,18.1l0,0.1c0,0.1,0,0.3,0.1,0.4c0,0,0.1,0.1,0.2,0.1
		c0.3,0,0.3-0.3,0.3-0.6l0-0.2c0-0.2,0-0.3-0.1-0.4c0,0-0.1-0.1-0.2-0.1C17.4,17.5,17.4,17.8,17.4,18.1L17.4,18.1z"/>
	<path class="st2" d="M19,18.1c0,0.5,0.2,0.4-0.6,0.4c-0.6,0-0.4,0-0.4-0.4s-0.2-0.4,0.4-0.4C19.2,17.6,19,17.6,19,18.1z"/>
	<path class="st4" d="M18.9,18.5l-0.1,0c-0.1,0-0.2,0-0.3,0c-0.3,0-0.4,0-0.4,0l0-0.1c0-0.1,0-0.1,0-0.2s0-0.2,0-0.2l0-0.1
		c0,0,0.1,0,0.4,0l0.1,0c0.3,0,0.4-0.1,0.5,0c0,0,0,0.1,0,0.2c0,0.1,0,0.1,0,0.2c0,0.1,0,0.2,0,0.2l0,0.1L18.9,18.5z M18.9,17.7
		c-0.1,0-0.2,0-0.4,0l-0.1,0c-0.3,0-0.4,0-0.4,0l0,0.1c0,0.1,0,0.1,0,0.2s0,0.2,0,0.2l0,0.1c0,0,0.1,0,0.4,0c0.1,0,0.2,0,0.3,0
		c0.2,0,0.2,0,0.3,0l0-0.1c0-0.1,0-0.1,0-0.2c0-0.1,0-0.2,0-0.2c0-0.1,0-0.1,0-0.2L18.9,17.7z"/>
	<path class="st2" d="M15.7,18.1c0,0.2,0,0.4,0.3,0.4c0.3,0,0.3-0.2,0.3-0.4c0-0.2,0-0.4-0.3-0.4C15.7,17.6,15.7,17.8,15.7,18.1
		h-0.3c0-0.4,0-0.8,0.5-0.8s0.5,0.3,0.5,0.8c0,0.4,0,0.8-0.5,0.8s-0.5-0.3-0.5-0.8H15.7z"/>
	<path class="st4" d="M15.9,18.9c-0.5,0-0.5-0.3-0.5-0.8v0c0-0.4,0-0.8,0.5-0.8c0.5,0,0.5,0.3,0.5,0.8
		C16.4,18.5,16.4,18.9,15.9,18.9z M15.4,18.1c0,0.5,0,0.8,0.5,0.8c0.5,0,0.5-0.4,0.5-0.8c0-0.5,0-0.8-0.5-0.8
		C15.4,17.3,15.4,17.7,15.4,18.1l0.3,0c0-0.2,0-0.3,0.1-0.4c0,0,0.1,0,0.2,0h0c0.3,0,0.3,0.2,0.3,0.4s0,0.4-0.3,0.4
		c-0.3,0-0.3-0.2-0.3-0.4H15.4z M15.7,18.1c0,0.2,0,0.4,0.3,0.4s0.3-0.2,0.3-0.4s0-0.4-0.3-0.4c-0.1,0-0.2,0-0.2,0
		C15.7,17.8,15.7,17.9,15.7,18.1z"/>
	<path class="st2" d="M15.8,18.1c0,0.4,0.1,0.4-0.4,0.4s-0.3-0.1-0.3-0.4c0-0.3-0.2-0.3,0.3-0.4C16,17.7,15.8,17.6,15.8,18.1z"/>
	<path class="st4" d="M15.4,18.5c-0.2,0-0.3,0-0.3-0.1l0-0.2l0-0.2l0-0.2l0-0.1c0,0,0.1-0.1,0.3-0.1c0.1,0,0.2,0,0.3,0
		c0.1,0,0.2,0,0.2,0l0,0.1c0,0.1,0,0.2,0,0.3l0,0.2c0,0.1,0,0.2,0,0.2C15.7,18.5,15.6,18.5,15.4,18.5z M15.7,17.7L15.7,17.7
		c-0.2,0-0.2,0-0.3,0c-0.2,0-0.3,0.1-0.3,0.1l0,0.1l0,0.2l0,0.2v0.1c0,0,0.1,0.1,0.3,0.1c0.2,0,0.3,0,0.4,0c0,0,0-0.1,0-0.2l0-0.2
		c0-0.1,0-0.2,0-0.3L15.7,17.7L15.7,17.7z"/>
	<path class="st2" d="M17.6,18.1c0,0.3,0.1,0.3-0.7,0.3c-0.8,0-0.7,0.1-0.7-0.3c0-0.3-0.1-0.3,0.7-0.3S17.6,17.7,17.6,18.1z"/>
	<path class="st4" d="M16.4,18.4l-0.1,0c0,0,0-0.1,0-0.2l0-0.1l0-0.1l0-0.2c0.1-0.1,0.2-0.1,0.7-0.1c0.2,0,0.3,0,0.4,0
		c0.2,0,0.3,0,0.3,0c0,0,0,0.1,0,0.2l0,0.1l0,0.1l0,0.2c-0.1,0.1-0.2,0.1-0.7,0.1c-0.2,0-0.3,0-0.4,0L16.4,18.4z M17.4,17.8l-0.1,0
		c-0.1,0-0.2,0-0.4,0c-0.4,0-0.6,0-0.7,0.1l0,0.1l0,0.1l0,0.1l0,0.2c0,0,0.1,0,0.3,0c0.1,0,0.2,0,0.4,0c0.5,0,0.6,0,0.7-0.1l0-0.1
		l0-0.1l0-0.1l0-0.2L17.4,17.8z"/>
</g>
</svg>
