<?xml version="1.0" encoding="utf-8"?>
<!-- Generator: Adobe Illustrator 19.2.1, SVG Export Plug-In . SVG Version: 6.00 Build 0)  -->
<svg version="1.1" id="Layer_1" xmlns="http://www.w3.org/2000/svg" xmlns:xlink="http://www.w3.org/1999/xlink" x="0px" y="0px"
	 viewBox="0 0 159.9 45" style="enable-background:new 0 0 159.9 45;" xml:space="preserve">
<style type="text/css">
	.st0{fill:#F68B2D;}
	.st1{fill:#FFFFFF;}
	.st2{fill-rule:evenodd;clip-rule:evenodd;fill:#F68B2D;}
	.st3{fill:#BDBEC0;}
	.st4{fill:#D7D6D6;}
</style>
<g>
	<g>
		<path class="st0" d="M22.4,44.9C10,44.9,0,34.9,0,22.5S10,0.1,22.4,0.1V44.9z"/>
		<path class="st1" d="M22.4,37.1c-8.1,0-14.6-6.5-14.6-14.6S14.3,7.9,22.4,7.9V37.1z"/>
	</g>
	<g>
		<path class="st2" d="M31,14.1c0.7-1,1.4-2,1.4-3.2c-0.2-2.3-0.8-10.2-0.8-10.8c0-0.2-0.2-0.2-0.2,0c-0.1,2.4-0.2,5.7-0.3,8.2
			c0,0.5-0.4,0.4-0.4,0c-0.2-2.4-0.3-5.8-0.6-8.2c0-0.2-0.2-0.2-0.2,0c-0.1,2.4-0.3,5.8-0.4,8.2c0,0.4-0.5,0.4-0.5,0
			c-0.1-2.4-0.3-5.8-0.4-8.2c0-0.2-0.2-0.2-0.2,0c-0.2,2.4-0.3,5.8-0.6,8.2c0,0.4-0.4,0.5-0.4,0c-0.1-2.4-0.2-5.7-0.3-8.2
			C27.2,0,27,0,27,0.2c0,0.6-0.6,8.5-0.8,10.8c-0.1,1.1,0.7,2.2,1.4,3.2c0.9,1.3,1.1,2.5,1.1,4.1c-0.1,7.4-1.3,14.2-1.7,21.6
			c-0.3,6.7,5,6.7,4.7,0c-0.4-7.4-1.6-14.2-1.7-21.6C30,16.6,30.1,15.5,31,14.1L31,14.1z"/>
		<path class="st2" d="M35.9,22.3c-0.3,5.8-1.4,11.4-1.7,17.4c-0.3,6.9,4.9,6.9,4.6,0c-0.3-5.6-1.1-10.9-1.4-16.3
			c-0.1-1.9,0.1-3.8,0.1-5.6c0-1,0-2,0-3V5.3c0-1.1-0.3-8-2.3-3.9C34.3,3,34,4.6,33.8,6.4c-0.4,4-0.3,9.4,0,11.4
			C34.2,21.5,35.4,20.2,35.9,22.3L35.9,22.3z"/>
	</g>
	<g>
		<g>
			<path class="st3" d="M58,12.2l-1.2-3.3h-4.6L51,12.2H49l4.5-12h2.1l4.5,12H58z M56.3,7.2l-1.1-3.3c-0.1-0.2-0.2-0.6-0.3-1
				c-0.1-0.5-0.2-0.8-0.3-1c-0.1,0.7-0.4,1.4-0.6,2.2l-1.1,3.1H56.3z"/>
			<path class="st3" d="M71.4,6.1c0,2-0.5,3.5-1.6,4.5c-1.1,1-2.7,1.6-4.7,1.6h-3.4v-12h3.7c1.9,0,3.4,0.5,4.5,1.5
				C70.9,2.8,71.4,4.2,71.4,6.1z M69.3,6.1c0-2.9-1.3-4.3-4-4.3h-1.7v8.7H65C67.9,10.5,69.3,9.1,69.3,6.1z"/>
			<path class="st3" d="M83.7,6.1c0,2-0.5,3.5-1.6,4.5c-1.1,1-2.7,1.6-4.7,1.6H74v-12h3.7c1.9,0,3.4,0.5,4.5,1.5
				C83.2,2.8,83.7,4.2,83.7,6.1z M81.7,6.1c0-2.9-1.3-4.3-4-4.3h-1.7v8.7h1.4C80.2,10.5,81.7,9.1,81.7,6.1z"/>
			<path class="st3" d="M94,5.7l2.8-5.5H99l-4,7.3v4.6h-2V7.6l-4-7.4h2.1L94,5.7z"/>
			<path class="st3" d="M111.2,6.2c0,2-0.5,3.5-1.5,4.5s-2.4,1.6-4.1,1.6c-1.8,0-3.2-0.5-4.2-1.6c-1-1.1-1.5-2.6-1.5-4.6
				c0-2,0.5-3.5,1.5-4.6c1-1.1,2.4-1.6,4.2-1.6c1.8,0,3.2,0.5,4.1,1.6C110.7,2.7,111.2,4.2,111.2,6.2z M102.1,6.2
				c0,1.5,0.3,2.6,0.9,3.4c0.6,0.8,1.5,1.1,2.6,1.1c1.2,0,2-0.4,2.6-1.1c0.6-0.8,0.9-1.9,0.9-3.4c0-1.5-0.3-2.6-0.9-3.3
				c-0.6-0.8-1.5-1.1-2.6-1.1c-1.2,0-2.1,0.4-2.7,1.1C102.4,3.6,102.1,4.7,102.1,6.2z"/>
			<path class="st3" d="M123.2,0.2v7.8c0,0.9-0.2,1.7-0.6,2.3c-0.4,0.7-0.9,1.2-1.6,1.5c-0.7,0.4-1.6,0.5-2.6,0.5
				c-1.5,0-2.6-0.4-3.5-1.2c-0.8-0.8-1.2-1.9-1.2-3.2V0.2h2v7.6c0,1,0.2,1.7,0.7,2.2c0.5,0.5,1.2,0.7,2.1,0.7c1.8,0,2.8-1,2.8-2.9
				V0.2H123.2z"/>
			<path class="st3" d="M128.2,7.4v4.8h-2v-12h3.4c1.5,0,2.7,0.3,3.4,0.9c0.7,0.6,1.1,1.5,1.1,2.6c0,1.5-0.8,2.6-2.3,3.2l3.4,5.3
				H133l-2.9-4.8H128.2z M128.2,5.8h1.4c0.9,0,1.6-0.2,2-0.5c0.4-0.3,0.6-0.8,0.6-1.5c0-0.7-0.2-1.2-0.7-1.5c-0.4-0.3-1.1-0.4-2-0.4
				h-1.3V5.8z"/>
		</g>
	</g>
	<g>
		<path class="st1" d="M52.3,24.9v4.4h-3.2v-12H53c3.3,0,4.9,1.2,4.9,3.5c0,1.4-0.7,2.5-2,3.2l3.5,5.2h-3.7l-2.5-4.4H52.3z
			 M52.3,22.5h0.6c1.1,0,1.7-0.5,1.7-1.5c0-0.8-0.6-1.2-1.7-1.2h-0.6V22.5z"/>
		<path class="st1" d="M67.5,29.3h-7.1v-12h7.1v2.6h-3.9v1.9h3.6v2.6h-3.6v2.3h3.9V29.3z"/>
		<path class="st1" d="M77.5,25.6c0,0.7-0.2,1.4-0.6,2c-0.4,0.6-0.9,1-1.6,1.3c-0.7,0.3-1.5,0.5-2.5,0.5c-0.8,0-1.5-0.1-2-0.2
			c-0.5-0.1-1.1-0.3-1.7-0.6v-2.9c0.6,0.3,1.3,0.6,1.9,0.7c0.7,0.2,1.3,0.3,1.8,0.3c0.5,0,0.8-0.1,1.1-0.2c0.2-0.2,0.3-0.4,0.3-0.6
			c0-0.2,0-0.3-0.1-0.4c-0.1-0.1-0.2-0.2-0.4-0.4c-0.2-0.1-0.7-0.4-1.6-0.8c-0.8-0.4-1.4-0.7-1.8-1c-0.4-0.3-0.7-0.7-0.9-1.1
			c-0.2-0.4-0.3-0.9-0.3-1.5c0-1.1,0.4-2,1.2-2.6c0.8-0.6,1.9-0.9,3.3-0.9c1.2,0,2.5,0.3,3.8,0.9l-1,2.5c-1.1-0.5-2.1-0.8-2.9-0.8
			c-0.4,0-0.7,0.1-0.9,0.2c-0.2,0.1-0.3,0.3-0.3,0.5c0,0.2,0.1,0.4,0.4,0.6c0.2,0.2,0.9,0.5,2,1c1,0.5,1.7,1,2.2,1.5
			S77.5,24.8,77.5,25.6z"/>
		<path class="st1" d="M84.6,29.3h-3.2v-9.3h-2.9v-2.6h9.1v2.6h-2.9V29.3z"/>
		<path class="st1" d="M96.6,29.3L96,27h-3.9l-0.6,2.2h-3.6l3.9-12h4.3l4,12H96.6z M95.3,24.4l-0.5-2c-0.1-0.4-0.3-1-0.4-1.7
			c-0.2-0.7-0.3-1.2-0.3-1.5c0,0.3-0.1,0.7-0.3,1.4s-0.5,1.9-1,3.8H95.3z"/>
		<path class="st1" d="M111.6,17.3v7.2c0,1.6-0.4,2.8-1.3,3.6c-0.9,0.9-2.2,1.3-3.8,1.3c-1.6,0-2.9-0.4-3.8-1.3
			c-0.9-0.8-1.3-2-1.3-3.6v-7.3h3.3v7c0,0.8,0.2,1.5,0.5,1.8c0.3,0.4,0.8,0.6,1.4,0.6c0.7,0,1.1-0.2,1.4-0.6c0.3-0.4,0.4-1,0.4-1.9
			v-7H111.6z"/>
		<path class="st1" d="M117.4,24.9v4.4h-3.2v-12h3.9c3.3,0,4.9,1.2,4.9,3.5c0,1.4-0.7,2.5-2,3.2l3.5,5.2h-3.7l-2.5-4.4H117.4z
			 M117.4,22.5h0.6c1.1,0,1.7-0.5,1.7-1.5c0-0.8-0.6-1.2-1.7-1.2h-0.6V22.5z"/>
		<path class="st1" d="M132.8,29.3l-0.6-2.2h-3.9l-0.6,2.2h-3.6l3.9-12h4.3l4,12H132.8z M131.6,24.4l-0.5-2c-0.1-0.4-0.3-1-0.4-1.7
			c-0.2-0.7-0.3-1.2-0.3-1.5c0,0.3-0.1,0.7-0.3,1.4c-0.1,0.6-0.5,1.9-1,3.8H131.6z"/>
		<path class="st1" d="M149.1,29.3h-4.2l-4.4-8.4h-0.1c0.1,1.3,0.2,2.3,0.2,3v5.4h-2.9v-12h4.2l4.4,8.3h0c-0.1-1.2-0.1-2.2-0.1-2.9
			v-5.4h2.9V29.3z"/>
		<path class="st1" d="M157,29.3h-3.2v-9.3h-2.9v-2.6h9.1v2.6H157V29.3z"/>
	</g>
	<g>
		<path class="st4" d="M52.9,36.7c-0.9,0-1.6,0.3-2.1,0.9C50.3,38.2,50,39,50,40c0,1.1,0.2,1.9,0.7,2.5c0.5,0.6,1.2,0.9,2.1,0.9
			c0.6,0,1.2-0.1,1.9-0.3v0.8c-0.6,0.2-1.3,0.3-2.1,0.3c-1.2,0-2.1-0.4-2.8-1.1c-0.6-0.7-1-1.8-1-3.1c0-0.8,0.2-1.6,0.5-2.2
			c0.3-0.6,0.8-1.1,1.4-1.5c0.6-0.3,1.3-0.5,2.1-0.5c0.9,0,1.6,0.2,2.2,0.5l-0.4,0.8C54.1,36.8,53.5,36.7,52.9,36.7z"/>
		<path class="st4" d="M57.4,44.1h-0.9v-8.6h0.9V44.1z"/>
		<path class="st4" d="M59.2,36.4c0-0.2,0.1-0.4,0.2-0.5c0.1-0.1,0.2-0.1,0.4-0.1c0.1,0,0.3,0,0.4,0.1c0.1,0.1,0.2,0.3,0.2,0.5
			c0,0.2-0.1,0.4-0.2,0.5c-0.1,0.1-0.2,0.2-0.4,0.2c-0.2,0-0.3-0.1-0.4-0.2C59.3,36.7,59.2,36.6,59.2,36.4z M60.2,44.1h-0.9V38h0.9
			V44.1z"/>
		<path class="st4" d="M64.6,44.2c-0.9,0-1.6-0.3-2-0.8c-0.5-0.5-0.7-1.3-0.7-2.3c0-1,0.2-1.8,0.7-2.4c0.5-0.6,1.2-0.8,2.1-0.8
			c0.3,0,0.6,0,0.9,0.1c0.3,0.1,0.5,0.1,0.7,0.2L66,39c-0.2-0.1-0.4-0.1-0.7-0.2c-0.2-0.1-0.5-0.1-0.6-0.1c-1.2,0-1.9,0.8-1.9,2.4
			c0,0.7,0.2,1.3,0.5,1.7c0.3,0.4,0.7,0.6,1.3,0.6c0.5,0,1-0.1,1.6-0.3v0.8C65.8,44.1,65.2,44.2,64.6,44.2z"/>
		<path class="st4" d="M68.5,41c0.2-0.2,0.4-0.5,0.7-0.9l2-2.1h1.1l-2.5,2.6l2.6,3.5h-1.1l-2.1-2.9l-0.7,0.6v2.3h-0.9v-8.6h0.9V40
			C68.5,40.2,68.5,40.6,68.5,41L68.5,41z"/>
		<path class="st4" d="M82.8,44.1h-0.9v-3.8h-4.3v3.8h-0.9V36h0.9v3.5h4.3V36h0.9V44.1z"/>
		<path class="st4" d="M87.5,44.2c-0.9,0-1.6-0.3-2.1-0.8c-0.5-0.5-0.8-1.3-0.8-2.3c0-1,0.2-1.8,0.7-2.3c0.5-0.6,1.1-0.9,1.9-0.9
			c0.8,0,1.4,0.3,1.8,0.8c0.4,0.5,0.7,1.2,0.7,2v0.6h-4.2c0,0.7,0.2,1.3,0.5,1.6c0.3,0.4,0.8,0.6,1.4,0.6c0.7,0,1.3-0.1,1.9-0.4v0.8
			c-0.3,0.1-0.6,0.2-0.9,0.3C88.2,44.2,87.9,44.2,87.5,44.2z M87.2,38.7c-0.5,0-0.9,0.2-1.2,0.5c-0.3,0.3-0.5,0.8-0.5,1.3h3.2
			c0-0.6-0.1-1-0.4-1.3C88.1,38.8,87.7,38.7,87.2,38.7z"/>
		<path class="st4" d="M94.1,37.9c0.3,0,0.5,0,0.7,0.1l-0.1,0.9c-0.3-0.1-0.5-0.1-0.7-0.1c-0.5,0-0.9,0.2-1.3,0.6
			c-0.3,0.4-0.5,0.9-0.5,1.5v3.3h-0.9V38H92l0.1,1.1h0c0.2-0.4,0.5-0.7,0.8-0.9C93.3,38,93.7,37.9,94.1,37.9z"/>
		<path class="st4" d="M98.5,44.2c-0.9,0-1.6-0.3-2.1-0.8c-0.5-0.5-0.8-1.3-0.8-2.3c0-1,0.2-1.8,0.7-2.3c0.5-0.6,1.1-0.9,1.9-0.9
			c0.8,0,1.4,0.3,1.8,0.8c0.4,0.5,0.7,1.2,0.7,2v0.6h-4.2c0,0.7,0.2,1.3,0.5,1.6c0.3,0.4,0.8,0.6,1.4,0.6c0.7,0,1.3-0.1,1.9-0.4v0.8
			c-0.3,0.1-0.6,0.2-0.9,0.3C99.3,44.2,98.9,44.2,98.5,44.2z M98.2,38.7c-0.5,0-0.9,0.2-1.2,0.5c-0.3,0.3-0.5,0.8-0.5,1.3h3.2
			c0-0.6-0.1-1-0.4-1.3C99.1,38.8,98.7,38.7,98.2,38.7z"/>
	</g>
	<g>
		<path class="st0" d="M112,40.3c0,0.1,0,0.2-0.1,0.2l-4.4,4.4c-0.1,0.1-0.1,0.1-0.2,0.1s-0.2,0-0.2-0.1l-0.5-0.5
			c-0.1-0.1-0.1-0.1-0.1-0.2c0-0.1,0-0.2,0.1-0.2l3.7-3.7l-3.7-3.7c-0.1-0.1-0.1-0.1-0.1-0.2c0-0.1,0-0.2,0.1-0.2l0.5-0.5
			c0.1-0.1,0.1-0.1,0.2-0.1s0.2,0,0.2,0.1l4.4,4.4C111.9,40.2,112,40.2,112,40.3z M115.6,40.3c0,0.1,0,0.2-0.1,0.2l-4.4,4.4
			c-0.1,0.1-0.1,0.1-0.2,0.1s-0.2,0-0.2-0.1l-0.5-0.5c-0.1-0.1-0.1-0.1-0.1-0.2c0-0.1,0-0.2,0.1-0.2l3.7-3.7l-3.7-3.7
			c-0.1-0.1-0.1-0.1-0.1-0.2c0-0.1,0-0.2,0.1-0.2l0.5-0.5c0.1-0.1,0.1-0.1,0.2-0.1s0.2,0,0.2,0.1l4.4,4.4
			C115.6,40.2,115.6,40.2,115.6,40.3z"/>
	</g>
</g>
</svg>
