<?xml version="1.0" encoding="utf-8"?>
<!-- Generator: Adobe Illustrator 19.2.1, SVG Export Plug-In . SVG Version: 6.00 Build 0)  -->
<svg version="1.1" id="Layer_1" xmlns="http://www.w3.org/2000/svg" xmlns:xlink="http://www.w3.org/1999/xlink" x="0px" y="0px"
	 viewBox="0 0 138.2 45" style="enable-background:new 0 0 138.2 45;" xml:space="preserve">
<style type="text/css">
	.st0{fill:#BDBEC0;}
	.st1{fill:#FFFFFF;}
	.st2{fill:#D7D6D6;}
	.st3{fill:#F68B2D;}
	.st4{fill:#FFCD25;}
	.st5{fill:#87338C;}
	.st6{fill:#1683C6;}
	.st7{fill:#6EC9ED;}
	.st8{fill:#E00D7B;}
	.st9{fill:#90C73E;}
	.st10{fill:#F39220;}
</style>
<g>
	<g>
		<path class="st0" d="M65,5.6l2.8-5.5H70l-4,7.3v4.6h-2V7.6l-4-7.4h2.1L65,5.6z"/>
		<path class="st0" d="M82.2,6.1c0,1.9-0.5,3.5-1.5,4.5c-1,1.1-2.3,1.6-4.1,1.6c-1.8,0-3.2-0.5-4.2-1.6c-1-1.1-1.5-2.6-1.5-4.6
			c0-2,0.5-3.5,1.5-4.5c1-1.1,2.4-1.6,4.2-1.6c1.8,0,3.1,0.5,4.1,1.6C81.7,2.7,82.2,4.2,82.2,6.1z M73,6.1c0,1.5,0.3,2.6,0.9,3.3
			c0.6,0.8,1.5,1.1,2.6,1.1c1.2,0,2-0.4,2.6-1.1c0.6-0.8,0.9-1.9,0.9-3.4c0-1.5-0.3-2.6-0.9-3.3c-0.6-0.8-1.5-1.1-2.6-1.1
			c-1.2,0-2.1,0.4-2.7,1.1C73.3,3.6,73,4.7,73,6.1z"/>
		<path class="st0" d="M94.1,0.2v7.7c0,0.9-0.2,1.7-0.6,2.3c-0.4,0.7-0.9,1.2-1.6,1.5c-0.7,0.4-1.6,0.5-2.6,0.5
			c-1.5,0-2.6-0.4-3.5-1.2c-0.8-0.8-1.2-1.9-1.2-3.2V0.2h2v7.6c0,1,0.2,1.7,0.7,2.2c0.5,0.5,1.2,0.7,2.1,0.7c1.8,0,2.8-1,2.8-2.9
			V0.2H94.1z"/>
		<path class="st0" d="M108.2,12.1h-6.8V0.2h6.8v1.7h-4.8v3.3h4.5v1.6h-4.5v3.8h4.8V12.1z"/>
		<path class="st0" d="M118.2,12.1L117,8.8h-4.6l-1.2,3.3h-2.1l4.5-12h2.1l4.5,12H118.2z M116.5,7.1l-1.1-3.3
			c-0.1-0.2-0.2-0.6-0.3-1c-0.1-0.5-0.2-0.8-0.3-1c-0.1,0.7-0.4,1.4-0.6,2.2l-1.1,3.1H116.5z"/>
		<path class="st0" d="M126,12.1h-2V1.9h-3.5V0.2h9v1.7H126V12.1z"/>
		<path class="st1" d="M66.6,29.4h-3.2v-9.3h-2.9v-2.6h9.1v2.6h-2.9V29.4z"/>
		<path class="st1" d="M81.5,29.4h-3.2v-4.9h-3.8v4.9h-3.2V17.4h3.2v4.4h3.8v-4.4h3.2V29.4z"/>
		<path class="st1" d="M91.2,29.4h-7.1V17.4h7.1V20h-3.9v1.9h3.6v2.6h-3.6v2.3h3.9V29.4z"/>
		<path class="st1" d="M97.5,21.9l2.1-4.4h3.5l-3.9,7.3v4.7h-3.3v-4.6L92,17.4h3.5L97.5,21.9z"/>
		<path class="st1" d="M115.8,29.4h-7.1V17.4h7.1V20h-3.9v1.9h3.6v2.6h-3.6v2.3h3.9V29.4z"/>
		<path class="st1" d="M125.2,29.4l-0.6-2.2h-3.9l-0.6,2.2h-3.5l3.9-12h4.3l3.9,12H125.2z M124,24.5l-0.5-2c-0.1-0.4-0.3-1-0.4-1.7
			c-0.2-0.7-0.3-1.2-0.3-1.5c0,0.3-0.1,0.7-0.3,1.4c-0.1,0.6-0.5,1.9-1,3.8H124z"/>
		<path class="st1" d="M135.3,29.4h-3.2v-9.3h-2.9v-2.6h9.1v2.6h-2.9V29.4z"/>
	</g>
	<g>
		<path class="st2" d="M61.3,40.7v3.4h-0.9V36h2.2c1,0,1.7,0.2,2.2,0.6c0.5,0.4,0.7,1,0.7,1.7c0,1.1-0.5,1.8-1.6,2.2l2.2,3.6H65
			l-2-3.4H61.3z M61.3,39.9h1.3c0.7,0,1.2-0.1,1.5-0.4c0.3-0.3,0.5-0.7,0.5-1.2c0-0.5-0.2-0.9-0.5-1.2c-0.3-0.2-0.8-0.4-1.5-0.4
			h-1.2V39.9z"/>
		<path class="st2" d="M69.8,44.2c-0.9,0-1.6-0.3-2.1-0.8c-0.5-0.5-0.8-1.3-0.8-2.3c0-1,0.2-1.8,0.7-2.3c0.5-0.6,1.1-0.9,1.9-0.9
			c0.8,0,1.4,0.2,1.8,0.7c0.4,0.5,0.7,1.2,0.7,2v0.6h-4.2c0,0.7,0.2,1.3,0.5,1.6c0.3,0.4,0.8,0.6,1.4,0.6c0.7,0,1.3-0.1,1.9-0.4v0.8
			c-0.3,0.1-0.6,0.2-0.9,0.3C70.6,44.2,70.2,44.2,69.8,44.2z M69.6,38.7c-0.5,0-0.9,0.2-1.2,0.5c-0.3,0.3-0.5,0.8-0.5,1.3H71
			c0-0.6-0.1-1-0.4-1.3C70.4,38.8,70,38.7,69.6,38.7z"/>
		<path class="st2" d="M77.3,44.1l-0.2-0.9h0c-0.3,0.4-0.6,0.6-0.9,0.8c-0.3,0.1-0.7,0.2-1.1,0.2c-0.6,0-1.1-0.2-1.4-0.5
			c-0.3-0.3-0.5-0.8-0.5-1.3c0-1.2,1-1.9,2.9-1.9l1,0v-0.4c0-0.5-0.1-0.8-0.3-1.1c-0.2-0.2-0.5-0.3-1-0.3c-0.5,0-1.1,0.2-1.7,0.5
			l-0.3-0.7c0.3-0.2,0.6-0.3,1-0.4c0.4-0.1,0.7-0.1,1.1-0.1c0.7,0,1.3,0.2,1.6,0.5c0.3,0.3,0.5,0.8,0.5,1.5v4.1H77.3z M75.3,43.4
			c0.6,0,1-0.2,1.3-0.5c0.3-0.3,0.5-0.8,0.5-1.3v-0.5l-0.9,0c-0.7,0-1.3,0.1-1.6,0.3c-0.3,0.2-0.5,0.5-0.5,0.9
			c0,0.3,0.1,0.6,0.3,0.8C74.6,43.4,74.9,43.4,75.3,43.4z"/>
		<path class="st2" d="M84,43.3L84,43.3c-0.5,0.6-1.1,0.9-2,0.9c-0.8,0-1.4-0.3-1.9-0.8c-0.4-0.5-0.7-1.3-0.7-2.3
			c0-1,0.2-1.8,0.7-2.3c0.4-0.6,1.1-0.8,1.8-0.8c0.8,0,1.5,0.3,1.9,0.9H84l0-0.4l0-0.4v-2.5h0.9v8.6h-0.7L84,43.3z M82.2,43.4
			c0.6,0,1.1-0.2,1.4-0.5c0.3-0.3,0.4-0.9,0.4-1.7v-0.2c0-0.9-0.1-1.5-0.4-1.8c-0.3-0.4-0.7-0.6-1.4-0.6c-0.5,0-1,0.2-1.2,0.6
			c-0.3,0.4-0.4,1-0.4,1.8c0,0.8,0.1,1.4,0.4,1.8C81.2,43.2,81.6,43.4,82.2,43.4z"/>
		<path class="st2" d="M93.5,44.1l-2.7-7.2h0c0.1,0.6,0.1,1.2,0.1,2v5.1h-0.9V36h1.4l2.6,6.7h0l2.6-6.7h1.4v8.1H97v-5.2
			c0-0.6,0-1.2,0.1-1.9h0l-2.8,7.2H93.5z"/>
		<path class="st2" d="M105.2,41.1c0,1-0.2,1.8-0.7,2.3c-0.5,0.6-1.2,0.8-2.1,0.8c-0.5,0-1-0.1-1.4-0.4c-0.4-0.3-0.7-0.6-1-1.1
			c-0.2-0.5-0.3-1-0.3-1.7c0-1,0.2-1.8,0.7-2.3c0.5-0.6,1.2-0.8,2.1-0.8c0.8,0,1.5,0.3,2,0.8C105,39.3,105.2,40.1,105.2,41.1z
			 M100.6,41.1c0,0.8,0.2,1.4,0.5,1.8s0.8,0.6,1.4,0.6c0.6,0,1.1-0.2,1.4-0.6c0.3-0.4,0.5-1,0.5-1.8c0-0.8-0.2-1.4-0.5-1.8
			s-0.8-0.6-1.4-0.6c-0.6,0-1.1,0.2-1.4,0.6C100.8,39.7,100.6,40.3,100.6,41.1z"/>
		<path class="st2" d="M109.6,37.9c0.3,0,0.5,0,0.7,0.1l-0.1,0.9c-0.3-0.1-0.5-0.1-0.7-0.1c-0.5,0-0.9,0.2-1.3,0.6
			c-0.3,0.4-0.5,0.9-0.5,1.5v3.3h-0.9V38h0.8l0.1,1.1h0c0.2-0.4,0.5-0.7,0.8-0.9C108.9,38,109.2,37.9,109.6,37.9z"/>
		<path class="st2" d="M114,44.2c-0.9,0-1.6-0.3-2.1-0.8c-0.5-0.5-0.8-1.3-0.8-2.3c0-1,0.2-1.8,0.7-2.3c0.5-0.6,1.1-0.9,1.9-0.9
			c0.8,0,1.4,0.2,1.8,0.7c0.4,0.5,0.7,1.2,0.7,2v0.6h-4.2c0,0.7,0.2,1.3,0.5,1.6c0.3,0.4,0.8,0.6,1.4,0.6c0.7,0,1.3-0.1,1.9-0.4v0.8
			c-0.3,0.1-0.6,0.2-0.9,0.3C114.8,44.2,114.5,44.2,114,44.2z M113.8,38.7c-0.5,0-0.9,0.2-1.2,0.5c-0.3,0.3-0.5,0.8-0.5,1.3h3.2
			c0-0.6-0.1-1-0.4-1.3C114.6,38.8,114.3,38.7,113.8,38.7z"/>
	</g>
	<g>
		<path class="st3" d="M126.8,40.3c0,0.1,0,0.2-0.1,0.2l-4.4,4.4c-0.1,0.1-0.1,0.1-0.2,0.1c-0.1,0-0.2,0-0.2-0.1l-0.5-0.5
			c-0.1-0.1-0.1-0.1-0.1-0.2c0-0.1,0-0.2,0.1-0.2l3.7-3.7l-3.7-3.7c-0.1-0.1-0.1-0.1-0.1-0.2c0-0.1,0-0.2,0.1-0.2l0.5-0.5
			c0.1-0.1,0.1-0.1,0.2-0.1c0.1,0,0.2,0,0.2,0.1l4.4,4.4C126.7,40.2,126.8,40.2,126.8,40.3z M130.4,40.3c0,0.1,0,0.2-0.1,0.2
			l-4.4,4.4c-0.1,0.1-0.1,0.1-0.2,0.1c-0.1,0-0.2,0-0.2-0.1l-0.5-0.5c-0.1-0.1-0.1-0.1-0.1-0.2c0-0.1,0-0.2,0.1-0.2l3.7-3.7
			l-3.7-3.7c-0.1-0.1-0.1-0.1-0.1-0.2c0-0.1,0-0.2,0.1-0.2l0.5-0.5c0.1-0.1,0.1-0.1,0.2-0.1c0.1,0,0.2,0,0.2,0.1l4.4,4.4
			C130.3,40.2,130.4,40.2,130.4,40.3z"/>
	</g>
	<g>
		<path class="st4" d="M13.6,25.7L12.4,31l-0.1,0.2l0,0c-0.1,0.1-0.1,0.1-0.2,0c-0.1-0.2-0.2-0.4-0.2-0.6c0,0,0.6-6,0.7-7.1
			c0.1-1.4-1.5-1.5-1.7-0.3c0,0.2-0.2,1-0.3,1.9c0,0.3-0.1,0.7-0.2,1c-0.3,1.7-0.5,3.6-0.5,3.6c0,0.1,0,0.2,0,0.2
			c0,0.2-0.1,0.3-0.3,0.4c-0.1-0.1-0.2-0.2-0.2-0.4c0-0.5,0-2.1,0-3.7c0-1.8-0.1-3.6-0.1-3.7c0-1.5-1.9-1.7-2-0.2c0,0,0,0.1,0,0.4
			c0,0.9,0,3.3-0.1,5.1c0,1,0,1.8,0,2.1c0,0.4-0.4,0.3-0.4-0.1l-1-5.7C5.8,23,4,22.9,4.1,24.4l0.6,5.9c0.3,1.9-0.5,2.5-0.5,2.5
			c0,0,0,0-0.1,0c-0.2,0-0.4-0.2-0.5-0.4l0,0l0,0l0,0c-0.2-0.5-0.4-1-0.6-1.5c-0.3-0.6-0.5-1.5-1-1.9c-0.4-0.3-1.1-0.6-1.5-0.3
			c-0.1,0-0.2,0.1-0.3,0.2c-0.1,0.1-0.1,0.4-0.2,0.4c-0.1,0,0.4,0.8,0.4,0.9c0.3,0.7,0.3,1.4,0.4,2.2c0,0.2,0.1,0.4,0.2,0.6
			c0.1,0.3,0.3,0.8,0.5,1.1l0.3,0.9l0,0l0,0.1l0,0c0,0.2,0.1,0.3,0.2,0.5l0,0l0,0l0,0c0,0.2,0.1,0.3,0.1,0.5c0.2,1.1,0.7,2.1,1.3,3
			c0.6,1,2.2,1.6,2.2,2.9l0,2.9h6.3v-2.8c0.2-0.6,0.4-0.9,0.7-1.3c1.3-1.7,1.4-4.5,1.5-6.4c0-0.5,0.2-1.4,0.3-2.5
			c0.2-1.6,0.5-3.5,0.7-4.7c0.1-0.5,0.2-1,0.2-1.2C15.5,24.7,13.9,24.3,13.6,25.7z"/>
		<path class="st5" d="M19.5,19.8l-0.2,1.1l-0.9,4.2l-0.1,0.2l0,0c0,0,0,0-0.1,0c0,0-0.1,0-0.1,0c-0.1-0.1-0.1-0.3-0.2-0.5
			c0,0,0-0.1,0-0.1c0,0,0.3-3.3,0.5-5.4c0.1-0.8,0.1-1.4,0.2-1.6c0.1-0.8-0.5-1.2-1-1.1c-0.3,0.1-0.6,0.3-0.7,0.8
			c-0.1,0.7-1,6.5-1,6.5c0,0.1,0,0.2,0,0.2c0,0.2-0.1,0.3-0.3,0.4c-0.1-0.1-0.2-0.2-0.2-0.4c0-1.1-0.1-7.2-0.1-7.4
			c0-1.5-1.9-1.7-2-0.2c0,0-0.1,6.6-0.1,7.6c0,0.4-0.4,0.3-0.4-0.1l-1-5.7c-0.1-1.2-1.9-1.4-1.8,0.2l0.6,5.9c0,0.3,0.1,0.6,0.1,0.8
			c0,0.4-0.1,0.8-0.2,1c-0.2,0.5-0.4,0.7-0.4,0.7c0,0,0,0-0.1,0c-0.2,0-0.4-0.2-0.5-0.4l0,0l0,0l0,0c0-0.1,0-0.1-0.1-0.2
			C9.2,25.9,9,25.4,8.9,25c-0.3-0.6-0.5-1.5-1-1.9c-0.2-0.1-0.4-0.2-0.6-0.3c-0.3-0.1-0.7-0.1-1,0c-0.1,0-0.2,0.1-0.3,0.2
			C6,23,6,23.3,5.9,23.3c-0.1,0,0.4,0.8,0.4,0.9c0.3,0.7,0.3,1.4,0.4,2.2c0,0.2,0.1,0.4,0.2,0.6c0.1,0.3,0.2,0.6,0.3,0.8
			c0,0.1,0.1,0.2,0.1,0.2L7.7,29l0,0l0,0.1l0,0c0,0.2,0.1,0.3,0.2,0.5l0,0l0,0l0,0C7.9,29.9,8,30,8,30.2c0.2,1.1,0.7,2.1,1.3,3
			c0.6,1,2.2,1.6,2.2,2.9l0,8.8h6.3v-8.7c0.2-0.6,0.4-0.9,0.7-1.3c0.5-0.6,0.8-1.5,1.1-2.3c0-0.2,0.1-0.4,0.1-0.6
			c0.2-1.2,0.3-2.5,0.3-3.5c0.1-0.9,0.4-3,0.7-4.9c0.1-0.4,0.1-0.7,0.2-1c0.2-1.2,0.3-2.1,0.4-2.4C21.4,18.8,19.8,18.4,19.5,19.8z"
			/>
		<path class="st6" d="M29.1,31.4c0,0-0.1-0.3-0.2-0.4c-0.1-0.1-0.2-0.2-0.3-0.2c-0.5-0.2-1.1,0-1.5,0.3c-0.5,0.5-0.7,1.3-1,1.9
			c-0.2,0.5-0.4,1-0.6,1.5l0,0l0,0l0,0C25.4,34.8,25.2,35,25,35c0,0-0.1,0-0.1,0c0,0-0.8-0.7-0.5-2.5l0.2-1.6l0.4-4.3
			c0.1-1.5-1.7-1.4-1.8-0.2l-0.4,2.3l-0.5,2.6L22.2,32c0,0.3-0.4,0.5-0.4,0.1c0-0.3,0-1.3,0-2.4c0-0.3,0-0.5,0-0.8
			c0-0.5,0-1.1,0-1.6c0-1.5,0-2.7,0-2.7c-0.1-0.7-0.6-1.1-1.1-1c-0.5,0.1-0.9,0.5-0.9,1.2c0,0.2-0.1,5.8-0.1,7.2c0,0.1,0,0.1,0,0.2
			c0,0.1,0,0.3-0.1,0.4c0,0,0,0,0,0c-0.2-0.1-0.3-0.2-0.3-0.4c0-0.1,0-0.2,0-0.2c0,0-0.9-5.9-1-6.5c0,0,0,0,0-0.1
			c-0.1-0.2-0.2-0.4-0.3-0.5c-0.5-0.5-1.5-0.2-1.4,0.9c0.1,1,0.7,7.1,0.7,7.1c0,0.2,0,0.4-0.2,0.6c-0.1,0.1-0.1,0.1-0.2,0l0,0
			l-0.1-0.2l-1.2-5.3c-0.1-0.3-0.2-0.6-0.4-0.7c-0.6-0.5-1.5,0-1.3,1c0.1,0.5,0.3,2,0.6,3.7c0.3,1.8,0.6,3.8,0.6,4.7
			c0.1,1.9,0.2,4.8,1.5,6.4c0.3,0.4,0.5,0.7,0.7,1.3v0.6h6.3v-0.7c0-1.3,1.6-1.9,2.2-2.9c0.2-0.3,0.4-0.6,0.5-0.9
			c0.3-0.7,0.6-1.4,0.8-2.1c0-0.2,0.1-0.3,0.1-0.5l0,0l0,0l0,0c0.1-0.2,0.1-0.3,0.2-0.5l0,0l0-0.1l0,0l0.3-0.9
			c0.2-0.3,0.3-0.8,0.5-1.1c0.1-0.2,0.1-0.4,0.2-0.6c0.1-0.7,0.1-1.4,0.4-2.2C28.7,32.2,29.1,31.4,29.1,31.4z"/>
		<path class="st7" d="M35.7,25.1c-0.2,0.1-0.4,0.4-0.4,0.7l-0.1,0.5l-1.1,4.9L34,31.3l0,0c-0.1,0.1-0.1,0.1-0.2,0
			c-0.1-0.2-0.2-0.4-0.2-0.6c0,0,0.6-6,0.7-7.1c0.1-1.2-1.1-1.5-1.5-0.7c-0.1,0.1-0.1,0.2-0.2,0.4c0,0.3-0.2,1.2-0.4,2.3v0
			c-0.3,1.9-0.6,4.2-0.6,4.2c0,0.1,0,0.2,0,0.2c0,0.2-0.1,0.3-0.3,0.4c-0.1-0.1-0.2-0.2-0.2-0.4c0-1.1-0.1-7.2-0.1-7.4
			c0-0.4-0.1-0.6-0.2-0.8c-0.1-0.1-0.2-0.2-0.4-0.3c-0.6-0.3-1.3,0-1.4,0.9c0,0-0.1,6.6-0.1,7.6c0,0.4-0.4,0.3-0.4-0.1l-1-5.7
			c-0.1-1.2-1.8-1.4-1.8,0.2l0.6,5.9c0.3,1.9-0.5,2.5-0.5,2.5c0,0,0,0-0.1,0c-0.2,0-0.4-0.2-0.5-0.4l0,0l0,0l0,0
			c-0.2-0.5-0.4-1-0.6-1.5c0-0.1,0-0.1-0.1-0.2c-0.2-0.6-0.4-1.3-0.9-1.8c-0.2-0.2-0.5-0.3-0.9-0.4c-0.2,0-0.5,0-0.7,0.1
			c-0.1,0-0.2,0.1-0.3,0.2c0,0,0,0,0,0c0,0,0,0,0,0c-0.1,0.1-0.1,0.3-0.1,0.3c0,0,0,0.2,0.1,0.4c0,0,0,0,0,0.1
			c0.1,0.2,0.2,0.5,0.2,0.5c0.1,0.3,0.2,0.7,0.3,1c0.1,0.4,0.1,0.8,0.2,1.1c0,0.2,0.1,0.4,0.2,0.6c0.1,0.3,0.3,0.8,0.5,1.1l0.3,0.9
			l0,0l0,0.1l0,0c0,0.2,0.1,0.3,0.2,0.5l0,0l0,0l0,0c0,0.2,0.1,0.3,0.1,0.5c0.2,1.1,0.7,2.1,1.3,3c0.3,0.5,0.7,0.8,1.2,1.2
			c0.5,0.5,1,1,1,1.7l0,2.8h6.3v-2.7c0.2-0.6,0.4-0.9,0.7-1.3c0.5-0.6,0.8-1.3,1-2c0.3-1.2,0.4-2.5,0.5-3.7c0-0.2,0-0.5,0-0.7
			c0.1-1.6,1-7.4,1.2-8.4C37.2,25.1,36.3,24.6,35.7,25.1z"/>
		<path class="st8" d="M45.2,25.9c0,0-0.1-0.3-0.2-0.4c-0.1-0.1-0.2-0.2-0.3-0.2c-0.5-0.2-1.1,0-1.5,0.3c-0.5,0.5-0.7,1.3-1,1.9
			c-0.1,0.3-0.2,0.5-0.3,0.8c0,0.1-0.1,0.2-0.1,0.3c0,0,0,0,0,0c-0.1,0.1-0.1,0.2-0.2,0.4l0,0l0,0l0,0c-0.1,0.2-0.2,0.4-0.5,0.4
			c0,0-0.1,0-0.1,0c0,0-0.8-0.7-0.5-2.5l0.6-5.9c0.1-1.5-1.7-1.4-1.8-0.2l-1,5.7c0,0.3-0.4,0.5-0.4,0.1c0-0.9-0.1-7.6-0.1-7.6
			c-0.2-1.4-2.1-1.2-2,0.2c0,0.1-0.1,3.5-0.1,5.7c0,0.8,0,1.4,0,1.7c0,0.2,0,0.3-0.2,0.4c-0.2-0.1-0.3-0.2-0.3-0.4
			c0-0.1,0-0.2,0-0.2c0,0,0-0.1,0-0.2c-0.2-1.1-0.8-5.7-1-6.3c-0.2-1.2-1.8-1-1.7,0.3c0,0.4,0.1,1.4,0.3,2.6c0.2,2,0.4,4.4,0.4,4.4
			c0,0.2,0,0.4-0.2,0.6c-0.1,0.1-0.1,0.1-0.2,0l0,0l-0.1-0.2l-0.5-2.1v0l-0.7-3.2c-0.1-0.5-0.4-0.7-0.7-0.8c-0.2-0.1-0.3-0.1-0.5,0
			c-0.4,0.1-0.7,0.5-0.6,1.1c0,0.1,0,0.3,0.1,0.5c0.3,1.7,1,6.5,1.1,7.9c0.1,1.9,0.2,4.8,1.5,6.4c0.3,0.4,0.5,0.7,0.7,1.3v6.1h6.3
			l0-6.2c0-1,1-1.6,1.7-2.3c0.1-0.1,0.2-0.3,0.4-0.4c0.1-0.1,0.1-0.2,0.2-0.2c0.6-0.9,1-1.9,1.3-3c0-0.2,0.1-0.3,0.1-0.5l0,0l0,0
			l0,0c0.1-0.2,0.1-0.3,0.2-0.5l0,0l0-0.1l0,0l0.3-0.9c0,0,0-0.1,0.1-0.1c0.2-0.3,0.3-0.7,0.4-1c0.1-0.2,0.1-0.4,0.2-0.6
			c0.1-0.7,0.1-1.4,0.4-2.2C44.8,26.8,45.2,25.9,45.2,25.9z"/>
		<path class="st9" d="M48,32.2l-1.2,5.3l-0.1,0.2l0,0c-0.1,0.1-0.1,0.1-0.2,0c-0.1-0.2-0.2-0.4-0.2-0.6c0,0,0.6-6,0.7-7.1
			c0.1-1.4-1.5-1.5-1.7-0.3c-0.1,0.7-1,6.5-1,6.5c0,0.1,0,0.2,0,0.2c0,0.2-0.1,0.3-0.3,0.4c-0.1-0.1-0.2-0.2-0.2-0.4
			c0-0.7-0.1-4-0.1-6c0-0.8,0-1.4,0-1.4c0-1.3-1.4-1.6-1.9-0.7c-0.1,0.1-0.1,0.2-0.1,0.3c0,0,0,0,0,0c0,0.1,0,0.1,0,0.2
			c0,0-0.1,5.3-0.1,7.1c0,0.2,0,0.4,0,0.5c0,0.4-0.4,0.3-0.4-0.1c0,0,0,0,0,0l-1-5.7c-0.1-1.2-1.9-1.4-1.8,0.2l0.6,5.9
			c0.3,1.9-0.5,2.5-0.5,2.5c0,0,0,0-0.1,0c-0.2,0-0.4-0.2-0.5-0.4l0,0l0,0l0,0c-0.2-0.5-0.4-1-0.6-1.5c-0.3-0.6-0.5-1.5-1-1.9
			c-0.2-0.1-0.4-0.3-0.6-0.3c-0.3-0.1-0.6-0.1-0.9,0c-0.1,0-0.2,0.1-0.3,0.2c-0.1,0.1-0.1,0.4-0.2,0.4c-0.1,0,0.4,0.8,0.4,0.9
			c0.3,0.7,0.3,1.4,0.4,2.2c0,0,0,0,0,0c0,0.2,0.1,0.4,0.2,0.6c0.1,0.3,0.3,0.8,0.5,1.1l0.3,0.9l0,0l0,0.1l0,0
			c0,0.2,0.1,0.3,0.2,0.5l0,0l0,0l0,0c0,0.2,0.1,0.3,0.1,0.5c0.2,0.8,0.5,1.6,0.9,2.3h10.7c0.3-1.4,0.4-2.8,0.4-4
			c0.1-1.6,1-7.4,1.2-8.4C49.9,31.2,48.3,30.8,48,32.2z"/>
		<path class="st10" d="M31.3,5.3l-1.4,6.3l-0.1,0.2l0,0c-0.1,0.1-0.2,0.1-0.2,0c-0.2-0.2-0.2-0.5-0.2-0.7c0,0,0.7-7.1,0.8-8.3
			c0.2-1.6-1.8-1.8-2-0.4C28,3.2,27,10.1,27,10.1c0,0.1,0,0.2,0,0.3c0,0.2-0.2,0.4-0.4,0.5c-0.2-0.1-0.2-0.3-0.2-0.5
			c0-1.2-0.1-8.5-0.1-8.7c0.1-1.8-2.2-2-2.4-0.3c0,0-0.1,7.8-0.1,8.9c0,0.5-0.5,0.3-0.4-0.1l-1.2-6.7c-0.1-1.4-2.2-1.6-2.1,0.2
			l0.7,7c0.3,2.2-0.6,3-0.6,3c0,0-0.1,0-0.1,0c-0.3,0-0.5-0.2-0.6-0.5l0,0l0-0.1l0,0c-0.2-0.6-0.5-1.1-0.7-1.7
			c-0.3-0.8-0.5-1.7-1.2-2.3c-0.5-0.4-1.2-0.6-1.8-0.4c-0.1,0-0.2,0.1-0.3,0.2c-0.1,0.1-0.1,0.5-0.2,0.5c-0.1,0,0.4,1,0.5,1.1
			c0.3,0.8,0.3,1.7,0.5,2.5c0,0.2,0.1,0.5,0.2,0.7c0.2,0.4,0.3,0.9,0.5,1.3l0.4,1.1l0,0l0,0.1l0,0c0,0.1,0.1,0.2,0.1,0.3
			c0,0.1,0.1,0.2,0.1,0.2l0,0l0,0l0,0c0,0.2,0.1,0.4,0.1,0.6c0.1,0.6,0.3,1.3,0.6,1.9c0.2,0.6,0.5,1.1,0.9,1.6c0,0,0,0,0,0
			c0.3,0.6,1,1.1,1.5,1.6c0.6,0.5,1,1.1,1,1.9v2.9l0,1.7v0.7l0,15.2h7.4V24.5c0.2-0.6,0.4-0.9,0.7-1.4c0-0.1,0.1-0.1,0.1-0.2
			c0.3-0.3,0.5-0.7,0.7-1.1c0-0.1,0.1-0.2,0.1-0.3c0.8-1.9,0.9-4.3,1-6.1c0.1-1.9,1.2-8.7,1.4-9.9C33.6,4.1,31.7,3.6,31.3,5.3z
			 M20.5,16.9v-0.5c0.1-1.6,1.1-2.4,2-2.4c0.1,0,0.3,0,0.4,0c1,0,1.5,0.4,2.1,1.1c0.6-0.7,1.1-1.1,2.1-1.1c0.1,0,0.3,0,0.4,0
			c0.9,0.1,1.9,0.9,2,2.4v0.5c-0.1,1.5-1.2,3.3-4.5,5.6C21.8,20.2,20.7,18.4,20.5,16.9z"/>
	</g>
</g>
</svg>
