<?xml version="1.0" encoding="utf-8"?>
<!-- Generator: Adobe Illustrator 19.2.1, SVG Export Plug-In . SVG Version: 6.00 Build 0)  -->
<svg version="1.1" id="Layer_1" xmlns="http://www.w3.org/2000/svg" xmlns:xlink="http://www.w3.org/1999/xlink" x="0px" y="0px"
	 viewBox="0 0 80 61" style="enable-background:new 0 0 80 61;" xml:space="preserve">
<style type="text/css">
	.st0{fill:#C8C8C8;}
</style>
<g>
	<path class="st0" d="M66,44.2H14V45c0,1.9,1.8,3.5,4.3,3.5h43.3c2.4,0,4.3-1.6,4.3-3.5v-0.8H66z"/>
	<path class="st0" d="M32.2,21.8c1.1-0.5,2.4,0,3,1.1c0.5,1.1,0,2.5-1.1,3c-5.1,2.4-8.4,7.1-9.3,13.9h39c0-11.7-8.3-21.5-19.4-23.6
		c0,0,0,0,0-0.1c0-2.5-2-3.6-4.5-3.6s-4.5,1.1-4.5,3.6c0,0,0,0,0,0.1C24.5,18.3,16.2,28,16.2,39.8h4.3C21.7,28.8,27.6,24,32.2,21.8z
		"/>
</g>
</svg>
